<svg width="48" height="48" viewBox="0 0 48 48" fill="none" xmlns="http://www.w3.org/2000/svg">
<path d="M44.367 31.3431L36.467 28.4711C36.2963 28.4093 36.1455 28.3022 36.031 28.1613C35.9165 28.0204 35.8425 27.8509 35.817 27.6711L35.412 24.8351C36.8009 24.0511 37.9572 22.913 38.7632 21.5367C39.5691 20.1603 39.9959 18.595 40 17.0001V11.0721C39.9985 9.76023 39.5169 8.49428 38.6461 7.51311C37.7752 6.53194 36.5754 5.90341 35.273 5.74611L34.4 4.00011C34.1976 3.60581 33.8597 3.29773 33.4484 3.13242C33.0372 2.9671 32.5801 2.95563 32.161 3.10011L26.774 5.02511C25.1059 5.68254 23.7306 6.91907 22.9 8.50811C24.1859 9.57792 25.2201 10.9182 25.9287 12.4334C26.6374 13.9485 27.0032 15.6014 27 17.2741V19.0001C27.2349 21.6101 28.0922 24.1258 29.5 26.3361C29.7362 26.6903 29.8943 27.0906 29.9638 27.5105C30.0333 27.9305 30.0127 28.3604 29.9032 28.7718C29.7938 29.1831 29.5981 29.5665 29.3291 29.8964C29.0601 30.2263 28.7239 30.4951 28.343 30.6851C28.0219 30.8378 27.69 30.9668 27.35 31.0711L28.728 31.4841C29.9663 31.8508 31.0521 32.6093 31.8224 33.6458C32.5928 34.6823 33.006 35.9407 33 37.2321V42.0001C32.9967 42.3415 32.9345 42.6799 32.816 43.0001H46C46.2652 43.0001 46.5196 42.8948 46.7071 42.7072C46.8947 42.5197 47 42.2653 47 42.0001V35.1001C46.9981 34.2797 46.7447 33.4797 46.2739 32.8079C45.8031 32.1361 45.1375 31.6248 44.367 31.3431Z" fill="#0044E7"/>
<path d="M30 43H2.00004C1.73482 43 1.48047 42.8947 1.29293 42.7071C1.1054 42.5196 1.00004 42.2652 1.00004 42V37.232C0.996202 36.3707 1.27209 35.5314 1.78623 34.8404C2.30037 34.1493 3.02496 33.6439 3.85104 33.4L10.488 31.409C10.6703 31.3538 10.833 31.2477 10.957 31.1031C11.081 30.9585 11.1612 30.7816 11.188 30.593L11.35 29.468C7.06504 30.119 4.66204 28.949 4.55004 28.895C4.42308 28.8316 4.31105 28.742 4.22142 28.6319C4.13179 28.5219 4.0666 28.3941 4.03018 28.2569C3.99377 28.1198 3.98696 27.9765 4.01021 27.8365C4.03346 27.6965 4.08624 27.563 4.16504 27.445C5.79713 24.9093 6.7715 22.0069 7.00004 19V17C7.00004 15.7676 7.25316 14.5483 7.74372 13.4177C8.23427 12.2871 8.95181 11.2693 9.85186 10.4273C10.7519 9.58542 11.8153 8.93733 12.9761 8.52323C14.1369 8.10913 15.3703 7.93786 16.6 8.02002C18.9115 8.21272 21.0639 9.27497 22.6228 10.9924C24.1818 12.7099 25.0313 14.9547 25 17.274V19C25.2277 22.0066 26.201 24.9091 27.832 27.445C27.9108 27.563 27.9636 27.6965 27.9869 27.8365C28.0101 27.9765 28.0033 28.1198 27.9669 28.2569C27.9305 28.3941 27.8653 28.5219 27.7757 28.6319C27.686 28.742 27.574 28.8316 27.447 28.895C27.337 28.949 24.934 30.118 20.647 29.468L20.809 30.593C20.8359 30.7816 20.916 30.9585 21.0401 31.1031C21.1641 31.2477 21.3268 31.3538 21.509 31.409L28.149 33.4C28.9751 33.6439 29.6997 34.1493 30.2138 34.8404C30.728 35.5314 31.0039 36.3707 31 37.232V42C31 42.2652 30.8947 42.5196 30.7071 42.7071C30.5196 42.8947 30.2653 43 30 43Z" fill="#0044E7"/>
</svg>
