<svg width="327" height="164" viewBox="0 0 327 164" fill="none" xmlns="http://www.w3.org/2000/svg">
<mask id="mask0" mask-type="alpha" maskUnits="userSpaceOnUse" x="0" y="0" width="327" height="164">
<rect width="327" height="164" fill="#FCF2DC"/>
</mask>
<g mask="url(#mask0)">
<rect width="327" height="164" fill="#FCF2DC"/>
<path d="M36.7319 115.738L29.9022 141.538C29.6788 142.383 30.2871 143.292 31.014 143.181L55.1304 140.123C55.9337 140 56.2675 138.852 55.6876 138.129L38.3627 115.394C37.9046 114.7 36.9553 114.893 36.7319 115.738Z" fill="#FF6B57"/>
<path d="M52.0714 137.775L33.2938 140.162C32.9495 140.214 32.6079 140.028 32.4051 139.725C32.1952 139.375 32.093 138.962 32.1962 138.612L37.5172 118.576C37.6134 118.18 37.8839 117.9 38.2281 117.847C38.5724 117.795 38.9069 117.935 39.148 118.232L52.6046 135.881C52.8528 136.225 52.9621 136.685 52.8277 137.087C52.7245 137.437 52.454 137.717 52.0714 137.775ZM37.9211 118.657L32.6001 138.694C32.5591 138.938 32.5947 139.171 32.7067 139.393C32.8571 139.608 33.0243 139.678 33.2538 139.643L51.9932 137.262C52.2228 137.227 52.3927 137.058 52.4719 136.808C52.5511 136.557 52.5085 136.277 52.3199 136.068L38.8633 118.418C38.7201 118.249 38.5074 118.139 38.3162 118.168C38.132 118.244 37.9621 118.413 37.9211 118.657Z" fill="white"/>
<path d="M40.6825 123.674C40.3998 122.334 38.633 122.555 38.9228 123.942C39.474 126.53 39.9487 129.129 40.354 131.786C40.5673 133.184 42.327 132.916 42.1137 131.517C41.7155 128.907 41.2337 126.261 40.6825 123.674Z" fill="white"/>
<path d="M41.6402 133.546C41.1882 133.663 40.8314 134.147 40.9239 134.753L41.0448 135.545C41.1301 136.105 41.6291 136.553 42.0881 136.483C42.5401 136.367 42.8969 135.883 42.8045 135.277L42.6836 134.485C42.5912 133.878 42.1304 133.424 41.6402 133.546Z" fill="white"/>
<path d="M53.3801 36.3494L41.4603 60.2281C41.0701 61.0103 41.4815 62.0238 42.2158 62.0626L66.4512 63.9586C67.2627 64.0015 67.8224 62.945 67.401 62.1199L55.0467 36.3431C54.7388 35.5712 53.7702 35.5672 53.3801 36.3494Z" fill="#FF6B57"/>
<path d="M63.9319 61.0394L45.0603 59.5688C44.7125 59.5504 44.4158 59.2986 44.2787 58.9608C44.1441 58.5759 44.1278 58.15 44.2998 57.8285L53.5734 39.2878C53.7479 38.9192 54.0695 38.7001 54.4173 38.7185C54.7651 38.7369 55.0643 38.9416 55.2401 39.2815L64.838 59.2928C65.0113 59.6798 65.0251 60.1527 64.8119 60.5192C64.6399 60.8407 64.3183 61.0598 63.9319 61.0394ZM53.9524 39.4495L44.6788 57.9902C44.5891 58.2216 44.5766 58.4571 44.6414 58.6966C44.7449 58.9382 44.8945 59.0406 45.1264 59.0528L63.9593 60.5213C64.1911 60.5336 64.3918 60.4026 64.5202 60.1732C64.6486 59.9439 64.6635 59.6614 64.5214 59.4177L54.9235 39.4064C54.8175 39.2119 54.6317 39.0604 54.4385 39.0502C54.2428 39.0871 54.0421 39.2181 53.9524 39.4495Z" fill="white"/>
<path d="M55.6392 44.9218C55.6342 43.552 53.8591 43.4109 53.8616 44.8278C53.8767 47.4731 53.8145 50.1144 53.6725 52.7986C53.5977 54.2114 55.3753 54.3054 55.4501 52.8927C55.5896 50.2555 55.6543 47.5671 55.6392 44.9218Z" fill="white"/>
<path d="M54.5749 54.7839C54.1087 54.8064 53.6612 55.2078 53.6288 55.82L53.5865 56.6206C53.5566 57.1857 53.9542 57.7262 54.418 57.7507C54.8842 57.7281 55.3317 57.3268 55.3641 56.7146L55.4064 55.914C55.4388 55.3018 55.0798 54.7634 54.5749 54.7839Z" fill="white"/>
<path d="M146.648 15.4837L137.565 40.5793C137.268 41.4013 137.794 42.3604 138.528 42.3142L162.82 41.3985C163.631 41.3475 164.065 40.2333 163.551 39.4624L148.302 15.285C147.907 14.5538 146.945 14.6617 146.648 15.4837Z" fill="#FF6B57"/>
<path d="M159.98 38.7898L141.065 39.5085C140.718 39.5304 140.394 39.3146 140.219 38.9949C140.04 38.6281 139.975 38.2069 140.109 37.8677L147.179 18.38C147.31 17.9938 147.604 17.739 147.952 17.7171C148.299 17.6952 148.62 17.864 148.834 18.1813L160.679 36.9502C160.896 37.3146 160.964 37.7828 160.794 38.1715C160.661 38.5107 160.367 38.7654 159.98 38.7898ZM147.574 18.4969L140.504 37.9846C140.442 38.2248 140.456 38.4601 140.548 38.6906C140.679 38.9186 140.84 39.003 141.071 38.9884L159.948 38.2721C160.18 38.2575 160.364 38.1041 160.465 37.8615C160.566 37.6189 160.548 37.3365 160.379 37.1109L148.534 18.342C148.406 18.161 148.204 18.032 148.011 18.0441C147.821 18.1034 147.637 18.2567 147.574 18.4969Z" fill="white"/>
<path d="M149.882 23.7374C149.719 22.3774 147.939 22.4423 148.105 23.8493C148.426 26.4752 148.669 29.106 148.838 31.7887C148.927 33.2007 150.703 33.0888 150.614 31.6768C150.448 29.0412 150.202 26.3634 149.882 23.7374Z" fill="white"/>
<path d="M149.964 33.6565C149.503 33.7328 149.105 34.1831 149.143 34.7949L149.194 35.595C149.229 36.1598 149.687 36.6508 150.15 36.6216C150.611 36.5453 151.009 36.095 150.97 35.4832L150.92 34.683C150.881 34.0712 150.463 33.5778 149.964 33.6565Z" fill="white"/>
<path d="M217.17 57.4869L184.881 74.0026C184.558 74.168 184.461 74.5097 184.638 74.8568C184.816 75.2039 185.15 75.325 185.473 75.1596L217.761 58.6439C218.085 58.4785 218.182 58.1368 218.005 57.7897C217.827 57.4426 217.493 57.3215 217.17 57.4869Z" fill="#80A1F3"/>
<path d="M218.293 57.2773C215.788 56.6609 213.169 56.249 210.552 56.1277C210.174 56.1021 209.886 56.3953 209.861 56.7734C209.835 57.1514 210.128 57.4393 210.449 57.4945C212.629 57.6198 214.841 57.9483 217.054 58.422C215.738 60.7008 214.275 62.8357 212.783 64.9127C212.553 65.1763 212.615 65.5826 212.937 65.7831C213.141 65.8975 213.403 65.9823 213.635 65.8639C213.693 65.8343 213.808 65.7751 213.894 65.6581C215.617 63.3174 217.222 60.8907 218.623 58.3495C218.737 58.1451 218.764 57.9123 218.675 57.7388C218.615 57.4778 218.468 57.3338 218.293 57.2773Z" fill="#80A1F3"/>
<path d="M151.484 47.4453L148.348 66.6736C148.316 66.8662 148.552 67.0365 148.937 67.0992C149.322 67.162 149.599 67.0754 149.631 66.8828L152.767 47.6545C152.798 47.4619 152.563 47.2916 152.178 47.2289C151.793 47.1661 151.516 47.2527 151.484 47.4453Z" fill="#80A1F3"/>
<path d="M151.862 47.1461C149.881 48.7981 147.997 50.6634 146.348 52.6988C146.103 52.988 146.169 53.3938 146.458 53.6385C146.747 53.8832 147.153 53.8177 147.387 53.5925C148.781 51.9105 150.356 50.324 152.05 48.8226C153.105 51.2332 153.957 53.6766 154.746 56.1095C154.822 56.451 155.185 56.6421 155.538 56.502C155.751 56.4051 155.975 56.2441 156.016 55.9876C156.027 55.9234 156.048 55.7952 156.005 55.6564C155.14 52.8819 154.137 50.1507 152.921 47.5163C152.824 47.303 152.653 47.1433 152.46 47.1119C152.214 47.006 152.011 47.0387 151.862 47.1461Z" fill="#80A1F3"/>
<path d="M79.5786 59.4675L115.932 69.6042C116.296 69.7057 116.609 69.5231 116.713 69.1475C116.818 68.772 116.645 68.4539 116.281 68.3524L79.9276 58.2156C79.5635 58.1141 79.2509 58.2968 79.1462 58.6723C79.0415 59.0479 79.2144 59.3659 79.5786 59.4675Z" fill="#80A1F3"/>
<path d="M79.1066 58.9985C80.5306 61.1494 82.1772 63.2276 84.0189 65.0903C84.2795 65.3653 84.6899 65.3449 84.9649 65.0843C85.24 64.8237 85.2195 64.4132 85.0215 64.1556C83.5031 62.5854 82.0996 60.8449 80.7936 58.9967C83.3056 58.213 85.8279 57.6347 88.3328 57.1189C88.6807 57.0809 88.9106 56.7403 88.8101 56.375C88.7372 56.1523 88.6018 55.9122 88.3515 55.8423C88.2889 55.8249 88.1637 55.79 88.0211 55.8177C85.1683 56.3714 82.3433 57.0677 79.5911 57.9868C79.3684 58.0596 79.1908 58.2125 79.1385 58.4002C79.0061 58.6332 79.0163 58.8384 79.1066 58.9985Z" fill="#80A1F3"/>
<path d="M56.9181 119.567L116.131 95.0562C116.724 94.8107 117.02 94.4068 116.871 94.0466C116.722 93.6864 116.227 93.6099 115.634 93.8554L56.4211 118.367C55.828 118.612 55.532 119.016 55.6811 119.376C55.8302 119.736 56.325 119.813 56.9181 119.567Z" fill="#80A1F3"/>
<path d="M55.4191 119.836C57.8665 120.652 60.4442 121.273 63.0427 121.603C63.4174 121.659 63.7279 121.39 63.7838 121.015C63.8396 120.641 63.5704 120.33 63.2557 120.249C61.0921 119.949 58.914 119.445 56.7461 118.795C58.2407 116.629 59.8698 114.618 61.5238 112.668C61.7743 112.423 61.7453 112.013 61.4409 111.788C61.2463 111.657 60.9916 111.552 60.7514 111.651C60.6914 111.676 60.5713 111.726 60.4761 111.836C58.5716 114.03 56.7769 116.321 55.1768 118.741C55.0463 118.936 55.0008 119.166 55.0754 119.346C55.1148 119.611 55.2494 119.766 55.4191 119.836Z" fill="#80A1F3"/>
<path d="M268.627 111.247L190.101 86.8137C189.315 86.5689 188.713 86.6539 188.597 87.0262C188.481 87.3985 188.929 87.8098 189.715 88.0546L268.241 112.488C269.027 112.732 269.629 112.647 269.745 112.275C269.86 111.903 269.413 111.492 268.627 111.247Z" fill="#80A1F3"/>
<path d="M271.222 112.395C269.863 110.202 268.278 108.076 266.493 106.159C266.241 105.877 265.83 105.885 265.547 106.137C265.264 106.39 265.273 106.801 265.463 107.064C266.934 108.679 268.285 110.46 269.536 112.346C267.001 113.055 264.463 113.558 261.944 113.999C261.595 114.027 261.355 114.36 261.445 114.729C261.511 114.953 261.639 115.197 261.887 115.275C261.949 115.294 262.074 115.333 262.217 115.309C265.085 114.84 267.929 114.228 270.708 113.391C270.932 113.325 271.114 113.178 271.172 112.992C271.312 112.763 271.307 112.557 271.222 112.395Z" fill="#80A1F3"/>
<path d="M245.36 27.2209L229.894 48.9712C229.387 49.6837 229.637 50.7485 230.357 50.9004L254.008 56.5182C254.803 56.686 255.519 55.7286 255.231 54.8483L247.007 27.4722C246.822 26.662 245.866 26.5084 245.36 27.2209Z" fill="#FF6B57"/>
<path d="M251.97 53.2447L233.552 48.876C233.212 48.8041 232.957 48.5094 232.874 48.1545C232.801 47.7534 232.85 47.3301 233.07 47.0391L245.097 30.1539C245.326 29.8167 245.678 29.6499 246.019 29.7218C246.359 29.7937 246.623 30.0422 246.744 30.4052L253.135 51.6591C253.247 52.0682 253.187 52.5376 252.92 52.8668C252.7 53.1579 252.349 53.3246 251.97 53.2447ZM245.446 30.3722L233.419 47.2574C233.295 47.4722 233.246 47.7029 233.273 47.9496C233.338 48.2042 233.47 48.3285 233.697 48.3764L252.077 52.7372C252.304 52.7851 252.523 52.6866 252.685 52.4799C252.847 52.2732 252.906 51.9963 252.803 51.7336L246.412 30.4797C246.338 30.2711 246.178 30.0928 245.988 30.0528C245.789 30.059 245.571 30.1575 245.446 30.3722Z" fill="white"/>
<path d="M246.267 36.0394C246.474 34.6853 244.742 34.2716 244.526 35.6719C244.132 38.2878 243.662 40.8877 243.107 43.5178C242.815 44.902 244.557 45.2696 244.849 43.8853C245.394 41.3014 245.873 38.6553 246.267 36.0394Z" fill="white"/>
<path d="M243.692 45.6183C243.228 45.5686 242.724 45.896 242.597 46.4958L242.432 47.2802C242.315 47.8339 242.624 48.4294 243.079 48.5253C243.543 48.575 244.047 48.2476 244.173 47.6478L244.339 46.8634C244.465 46.2635 244.194 45.6761 243.692 45.6183Z" fill="white"/>
<path d="M282.723 110.983L271.331 135.118C270.958 135.909 271.392 136.913 272.127 136.936L296.398 138.298C297.21 138.323 297.746 137.255 297.307 136.439L284.389 110.94C284.064 110.175 283.096 110.193 282.723 110.983Z" fill="#FF6B57"/>
<path d="M293.815 135.435L274.916 134.38C274.568 134.369 274.265 134.124 274.121 133.789C273.978 133.407 273.952 132.982 274.117 132.657L282.981 113.917C283.147 113.544 283.464 113.318 283.812 113.329C284.16 113.34 284.464 113.538 284.647 113.874L294.683 133.669C294.864 134.052 294.888 134.525 294.683 134.896C294.518 135.221 294.202 135.447 293.815 135.435ZM283.363 114.07L274.499 132.81C274.415 133.044 274.408 133.279 274.478 133.517C274.586 133.757 274.738 133.856 274.97 133.863L293.831 134.917C294.063 134.924 294.261 134.789 294.384 134.556C294.507 134.324 294.516 134.042 294.369 133.801L284.333 114.006C284.223 113.814 284.034 113.666 283.84 113.66C283.646 113.701 283.448 113.837 283.363 114.07Z" fill="white"/>
<path d="M285.17 119.504C285.135 118.134 283.357 118.032 283.391 119.449C283.464 122.093 283.46 124.735 283.377 127.422C283.333 128.836 285.112 128.891 285.156 127.477C285.238 124.837 285.243 122.148 285.17 119.504Z" fill="white"/>
<path d="M284.323 129.387C283.857 129.42 283.419 129.831 283.4 130.444L283.375 131.245C283.357 131.81 283.767 132.342 284.231 132.356C284.697 132.324 285.135 131.913 285.154 131.3L285.179 130.498C285.198 129.886 284.827 129.355 284.323 129.387Z" fill="white"/>
<path d="M136.369 91.5235L128.251 79.8187C126.93 77.9308 124.287 76.9869 122.21 78.3084C120.322 79.4411 119.19 82.4617 120.7 84.3496C123.343 88.3141 126.175 92.2786 128.818 96.0544C130.139 97.9422 132.782 98.8862 134.859 97.5647C136.747 96.432 137.691 93.6001 136.369 91.5235Z" fill="#D9E3FB"/>
<path d="M252.473 205.362L191.495 117.387C183.944 106.626 171.106 100.774 158.646 107.381C148.074 113.045 141.089 129.469 148.64 140.23C169.029 169.492 189.23 198.943 209.619 228.205C217.17 238.966 230.008 244.818 242.467 238.211C253.04 232.736 259.836 216.311 252.473 205.362Z" fill="#D9E3FB"/>
<path d="M181.3 125.505H147.508C146.752 125.505 145.997 125.128 145.62 124.372L123.532 74.7215C122.965 73.3999 123.909 71.8896 125.419 71.8896H159.212C159.967 71.8896 160.723 72.2672 161.1 73.0224L183.188 122.673C183.755 123.995 182.811 125.505 181.3 125.505Z" fill="#333333"/>
<path d="M177.147 119.464H149.207C148.64 119.464 147.885 119.087 147.696 118.52L144.676 111.535L129.573 77.5535C129.006 76.4208 129.95 75.2881 131.083 75.2881H159.024C159.779 75.2881 160.345 75.6657 160.534 76.232L176.958 113.045L178.846 117.199C179.035 118.143 178.28 119.464 177.147 119.464Z" fill="#FFF9EF"/>
<path d="M157.145 79H135.855C134.715 79 134.715 81 135.855 81H157.145C158.285 81 158.285 79 157.145 79Z" fill="#B3C7F8"/>
<path d="M160.145 84H138.855C137.715 84 137.715 86 138.855 86H160.145C161.285 86 161.285 84 160.145 84Z" fill="#B3C7F8"/>
<path d="M162.145 89H140.855C139.715 89 139.715 91 140.855 91H162.145C163.285 91 163.285 89 162.145 89Z" fill="#B3C7F8"/>
<path d="M165.145 94H143.855C142.715 94 142.715 96 143.855 96H165.145C166.285 96 166.285 94 165.145 94Z" fill="#B3C7F8"/>
<path d="M168.145 99H146.855C145.715 99 145.715 101 146.855 101H168.145C169.285 101 169.285 99 168.145 99Z" fill="#B3C7F8"/>
<path d="M190.929 128.148C192.25 107.382 188.663 96.4319 176.581 90.9571C164.499 85.2935 172.994 100.208 179.602 109.836C186.775 120.408 184.132 130.98 184.132 130.98L190.929 128.148Z" fill="#D9E3FB"/>
<path d="M151.661 129.281C147.508 123.617 147.508 118.331 148.64 111.346C149.773 104.739 144.109 103.417 141.466 107.004C141.655 104.739 142.033 102.662 142.977 100.585C144.865 96.6209 140.522 93.034 137.502 93.9779C137.691 93.4116 137.879 92.6564 138.068 91.9013C139.956 86.6152 131.461 84.161 129.573 89.6358C127.496 95.4882 127.307 101.529 129.006 107.382C129.573 109.458 131.272 110.402 132.782 110.591C133.16 113.423 133.915 116.255 135.048 118.898C135.992 120.786 137.502 121.352 139.012 121.163C139.579 125.694 141.089 130.036 143.921 133.623C147.319 138.343 155.059 134.001 151.661 129.281Z" fill="#D9E3FB"/>
<path d="M142.41 126.261C140.523 119.842 140.523 113.612 142.41 107.193C142.788 105.872 140.711 105.305 140.334 106.627C138.257 113.423 138.446 120.219 140.334 126.827C140.711 128.148 142.977 127.582 142.41 126.261Z" fill="#B3C7F8"/>
<path d="M135.803 93.6003C132.593 99.4527 131.083 105.871 131.272 112.668C131.272 114.178 133.537 114.178 133.537 112.668C133.16 106.249 134.67 100.208 137.691 94.733C138.446 93.4115 136.558 92.2788 135.803 93.6003Z" fill="#B3C7F8"/>
</g>
</svg>
