<svg width="49" height="48" viewBox="0 0 49 48" fill="none" xmlns="http://www.w3.org/2000/svg">
<path d="M24.9665 39.071L27.2162 36.778C27.4001 36.5905 27.5035 36.3361 27.5035 36.071C27.5035 35.8058 27.4001 35.5515 27.2162 35.364L24.263 32.354L27.0033 29.561C27.2794 29.2796 27.4345 28.8979 27.4345 28.5C27.4345 28.102 27.2794 27.7204 27.0033 27.439C26.7272 27.1576 26.3528 26.9995 25.9623 26.9995C25.5719 26.9995 25.1974 27.1576 24.9213 27.439L22.181 30.232L18.3762 26.354L21.1165 23.561C21.3926 23.2796 21.5477 22.8979 21.5477 22.5C21.5477 22.102 21.3926 21.7204 21.1165 21.439C20.8404 21.1576 20.466 20.9995 20.0755 20.9995C19.6851 20.9995 19.3106 21.1576 19.0345 21.439L16.2942 24.232L13.341 21.222C13.157 21.0345 12.9075 20.9292 12.6474 20.9292C12.3872 20.9292 12.1377 21.0345 11.9537 21.222L9.70398 23.515L24.9665 39.071Z" fill="#0044E7"/>
<path d="M8.31661 24.9287L8.02914 25.2217C6.1288 27.1635 5.00795 29.7583 4.886 32.4981C4.76405 35.2379 5.64979 37.9255 7.36982 40.0347L2.212 45.2927C2.1183 45.385 2.04355 45.4953 1.99213 45.6173C1.94071 45.7393 1.91364 45.8705 1.91251 46.0033C1.91138 46.1361 1.9362 46.2678 1.98554 46.3907C2.03487 46.5136 2.10772 46.6252 2.19984 46.7191C2.29196 46.813 2.40151 46.8872 2.52209 46.9375C2.64266 46.9878 2.77186 47.0131 2.90213 47.012C3.03241 47.0108 3.16115 46.9832 3.28085 46.9308C3.40056 46.8784 3.50882 46.8022 3.59932 46.7067L8.75812 41.4497C10.8266 43.205 13.4639 44.1091 16.1527 43.9848C18.8414 43.8605 21.3876 42.7167 23.2916 40.7777L23.5791 40.4847L8.31661 24.9287Z" fill="#0044E7"/>
<path d="M24.0148 8.92871L21.765 11.2217C21.5811 11.4092 21.4778 11.6635 21.4778 11.9287C21.4778 12.1939 21.5811 12.4482 21.765 12.6357L35.6402 26.7777C35.8242 26.9652 36.0737 27.0705 36.3339 27.0705C36.594 27.0705 36.8435 26.9652 37.0275 26.7777L39.2773 24.4847L24.0148 8.92871Z" fill="#0044E7"/>
<path d="M46.7692 1.29279C46.5852 1.10532 46.3357 1 46.0755 1C45.8154 1 45.5659 1.10532 45.3819 1.29279L40.2231 6.54979C38.1537 4.79668 35.5168 3.89391 32.8287 4.01821C30.1406 4.1425 27.5947 5.28491 25.6896 7.22179L25.4021 7.51479L40.6646 23.0708L40.9521 22.7778C42.8524 20.836 43.9733 18.2412 44.0952 15.5014C44.2171 12.7616 43.3314 10.074 41.6114 7.96479L46.7692 2.70679C46.9531 2.51926 47.0565 2.26495 47.0565 1.99979C47.0565 1.73462 46.9531 1.48031 46.7692 1.29279Z" fill="#0044E7"/>
</svg>
