<svg width="64" height="64" viewBox="0 0 64 64" fill="none" xmlns="http://www.w3.org/2000/svg">
<path d="M32 40C33.1046 40 34 39.1046 34 38C34 36.8954 33.1046 36 32 36C30.8954 36 30 36.8954 30 38C30 39.1046 30.8954 40 32 40Z" fill="#0044E7"/>
<path d="M56.242 8.03123L32.242 2.03123C32.0833 1.99024 31.9167 1.99024 31.758 2.03123L7.758 8.03123C7.54173 8.08517 7.34969 8.20981 7.21236 8.38537C7.07503 8.56093 7.00028 8.77734 7 9.00023V37.0002C7 43.6306 9.63392 49.9895 14.3223 54.6779C19.0107 59.3663 25.3696 62.0002 32 62.0002C38.6304 62.0002 44.9893 59.3663 49.6777 54.6779C54.3661 49.9895 57 43.6306 57 37.0002V9.00023C56.9997 8.77734 56.925 8.56093 56.7876 8.38537C56.6503 8.20981 56.4583 8.08517 56.242 8.03123V8.03123ZM25 23.0002C25 21.1437 25.7375 19.3632 27.0503 18.0505C28.363 16.7377 30.1435 16.0002 32 16.0002C33.8565 16.0002 35.637 16.7377 36.9497 18.0505C38.2625 19.3632 39 21.1437 39 23.0002V28.0002H37V23.0002C37 21.6741 36.4732 20.4024 35.5355 19.4647C34.5979 18.527 33.3261 18.0002 32 18.0002C30.6739 18.0002 29.4021 18.527 28.4645 19.4647C27.5268 20.4024 27 21.6741 27 23.0002V28.0002H25V23.0002ZM43 45.0002C43 45.2654 42.8946 45.5198 42.7071 45.7073C42.5196 45.8949 42.2652 46.0002 42 46.0002H22C21.7348 46.0002 21.4804 45.8949 21.2929 45.7073C21.1054 45.5198 21 45.2654 21 45.0002V31.0002C21 30.735 21.1054 30.4807 21.2929 30.2931C21.4804 30.1056 21.7348 30.0002 22 30.0002H42C42.2652 30.0002 42.5196 30.1056 42.7071 30.2931C42.8946 30.4807 43 30.735 43 31.0002V45.0002Z" fill="#0044E7"/>
</svg>
