<svg width="327" height="164" viewBox="0 0 327 164" fill="none" xmlns="http://www.w3.org/2000/svg">
<mask id="mask0" mask-type="alpha" maskUnits="userSpaceOnUse" x="0" y="0" width="327" height="164">
<rect width="327" height="164" fill="#F1F1F1"/>
</mask>
<g mask="url(#mask0)">
<rect width="327" height="164" fill="#FCF2DC"/>
<path d="M113.041 79.9388C112.846 63.434 122.463 49.9833 142.216 54.6618C161.97 59.3403 162.23 74.0906 162.23 74.0906C162.23 74.0906 184.648 65.8382 190.366 86.5017C190.366 86.5017 217.073 90.5954 211.939 111.194C206.676 132.247 177.76 119.836 139.162 120.031C100.565 120.226 82.5654 126.009 84.5797 107.49C86.5941 88.9709 102.059 97.1583 102.059 97.1583C102.059 97.1583 94.2617 82.6679 113.041 79.9388Z" fill="#FFF9EF"/>
<path d="M108.037 47.1892C97.3157 46.0196 94.8464 50.5032 94.3266 54.272C94.3266 54.272 75.5475 54.0121 76.7822 65.7084C76.7822 65.7084 65.3458 62.1345 68.1399 72.5962C70.934 82.9929 91.7274 78.1844 108.752 78.7043C125.777 79.2241 130.65 76.7549 126.556 70.8418C124.282 67.5278 117.654 68.0476 117.654 68.0476C117.654 68.0476 119.669 58.3657 113.82 57.1311C113.885 57.1311 115.12 47.969 108.037 47.1892Z" fill="#FFF9EF"/>
<path d="M225.195 82.0833C225.195 84.4226 223.571 86.242 221.231 86.242C218.892 86.242 216.618 84.3576 216.683 82.0183C216.748 79.0943 218.762 77.7947 221.101 77.7947C223.441 77.7947 225.195 79.6791 225.195 82.0833Z" fill="#4EDDBB"/>
<path d="M220.062 80.1339L217.463 78.3794C216.748 77.9246 216.098 79.0292 216.813 79.4841C217.658 80.0689 218.567 80.6537 219.412 81.2385C220.127 81.7584 220.777 80.5887 220.062 80.1339Z" fill="#4EDDBB"/>
<path d="M224.156 85.5921C223.896 84.7474 223.636 83.9026 223.376 83.0579C223.116 82.2781 221.881 82.603 222.141 83.3828C222.401 84.2275 222.661 85.0723 222.921 85.917C223.116 86.7617 224.351 86.4368 224.156 85.5921Z" fill="#4EDDBB"/>
<path d="M225.78 79.419C224.87 79.6789 223.896 80.0038 222.986 80.2637C222.206 80.5236 222.531 81.7582 223.311 81.4983C224.221 81.2384 225.195 80.9135 226.105 80.6536C226.95 80.4587 226.56 79.2241 225.78 79.419Z" fill="#4EDDBB"/>
<path d="M220.777 83.5779L221.102 82.7331C221.232 82.3433 220.647 82.1483 220.452 82.5382C220.322 82.8631 220.192 83.188 220.062 83.4479C219.672 83.5129 219.282 83.8378 219.217 84.2277C219.087 84.6175 219.737 84.8125 219.867 84.4226C219.932 84.1627 220.257 84.0327 220.517 84.0977C220.842 84.2277 220.972 84.5526 221.037 84.8775C221.102 85.2673 221.751 85.1374 221.686 84.6825C221.556 84.2277 221.232 83.7728 220.777 83.5779Z" fill="#788BF1"/>
<path d="M221.362 79.0942C221.427 78.7043 220.842 78.5094 220.712 78.8993C220.647 79.1592 220.647 79.744 220.387 79.874C220.062 80.0689 219.607 79.744 219.347 79.5491C219.022 79.2892 218.697 79.874 219.022 80.1339C219.347 80.3938 219.737 80.5888 220.127 80.5888C220.257 80.7837 220.452 80.9786 220.582 81.1736C220.842 81.4985 221.297 81.0436 221.037 80.7187C220.972 80.5888 220.842 80.5238 220.777 80.3938C221.232 80.0689 221.297 79.5491 221.362 79.0942Z" fill="#788BF1"/>
<path d="M223.961 82.2133C223.831 82.1484 223.441 82.0184 223.506 81.8235C223.506 81.6935 223.831 81.6935 223.961 81.6935C224.351 81.6935 224.351 81.0437 223.961 81.0437C223.571 81.0437 223.181 81.1737 222.986 81.4986H222.921C222.856 81.4986 222.726 81.4986 222.661 81.4986C222.271 81.3036 221.946 81.8884 222.336 82.0834C222.531 82.1484 222.726 82.2133 222.921 82.1483C223.051 82.4732 223.441 82.7332 223.831 82.8631C224.156 82.9931 224.351 82.3433 223.961 82.2133Z" fill="#788BF1"/>
<path d="M217.333 77.4697C217.073 77.1448 216.618 77.5996 216.878 77.9245C217.008 78.1195 216.878 78.3794 216.683 78.5094C216.423 78.7043 216.033 78.6393 215.773 78.5094C215.383 78.3794 215.188 79.0292 215.578 79.1592C216.163 79.2891 216.813 79.3541 217.268 78.8343C217.658 78.4444 217.658 77.8596 217.333 77.4697Z" fill="#4EDDBB"/>
<path d="M227.145 80.5239C226.885 80.5239 226.625 80.3939 226.625 80.134C226.56 79.8091 226.82 79.5492 227.015 79.2893C227.275 78.9644 226.82 78.5095 226.56 78.8344C226.235 79.2893 225.845 79.8091 226.04 80.3939C226.17 80.9138 226.69 81.1737 227.21 81.1737C227.535 81.1087 227.535 80.4589 227.145 80.5239Z" fill="#4EDDBB"/>
<path d="M217.788 83.1878C217.593 82.6679 217.073 82.473 216.553 82.408C216.488 82.408 216.488 82.3431 216.423 82.408C216.358 82.408 216.293 82.408 216.228 82.408C215.838 82.408 215.838 83.0578 216.228 83.0578C216.618 83.0578 217.073 83.0578 217.203 83.4477C217.333 83.7076 217.268 84.0325 217.008 84.2274C216.683 84.5523 217.138 84.9422 217.463 84.6823L217.593 84.5523C217.658 84.4874 217.658 84.4874 217.658 84.4224C217.918 84.0325 217.918 83.5777 217.788 83.1878Z" fill="#4EDDBB"/>
<path d="M225.195 86.3717C224.935 85.9168 224.415 85.6569 223.896 85.7869C223.246 85.9168 223.051 86.4367 222.856 87.0215C222.726 87.4114 223.311 87.6063 223.506 87.2164C223.636 86.8915 223.701 86.5666 224.026 86.4367C224.285 86.3717 224.545 86.5016 224.675 86.6966C224.87 87.0865 225.39 86.7616 225.195 86.3717Z" fill="#4EDDBB"/>
<path d="M115.835 93.0649C115.835 96.8986 113.171 99.7577 109.402 99.7577C105.568 99.7577 101.929 96.7687 102.059 92.9349C102.189 88.2564 105.373 86.1121 109.207 86.1121C112.976 86.1121 115.835 89.2961 115.835 93.0649Z" fill="#4EDDBB"/>
<path d="M117.199 87.0867C116.939 86.8268 116.55 86.8918 116.29 87.0867C115.445 87.7365 114.6 88.3863 113.69 89.1011C113.431 89.296 113.496 89.8159 113.69 90.0108C113.95 90.2707 114.34 90.2057 114.6 90.0108C115.445 89.361 116.29 88.7112 117.199 87.9964C117.524 87.8015 117.459 87.2817 117.199 87.0867Z" fill="#4EDDBB"/>
<path d="M111.286 97.9382C111.221 97.0935 109.922 97.0935 109.987 97.9382C110.052 99.1728 110.182 100.407 110.247 101.642C110.312 102.487 111.611 102.487 111.546 101.642C111.481 100.407 111.416 99.1728 111.286 97.9382Z" fill="#4EDDBB"/>
<path d="M106.348 89.5558C105.828 88.5161 105.308 87.4115 104.723 86.3718C104.333 85.592 103.229 86.3068 103.619 87.0216C104.139 88.0613 104.658 89.1659 105.243 90.2056C105.568 90.9853 106.673 90.2706 106.348 89.5558Z" fill="#4EDDBB"/>
<path d="M105.243 85.3973C105.048 84.6175 103.814 84.9424 104.009 85.7222C104.074 85.8521 103.879 86.0471 103.749 85.9171C103.489 85.6572 103.099 85.6572 102.839 85.9171C102.579 86.177 102.579 86.6319 102.839 86.8268C103.359 87.2817 104.009 87.4116 104.593 87.0217C105.113 86.7618 105.373 86.047 105.243 85.3973Z" fill="#4EDDBB"/>
<path d="M118.954 87.1518C118.629 87.1518 118.304 87.1518 118.044 87.0868C117.914 87.0868 117.849 87.0868 117.719 87.0868C117.849 86.9568 117.914 86.8269 118.044 86.6319C118.434 85.9172 117.264 85.2024 116.94 85.9821C116.745 86.307 116.485 86.567 116.355 86.8918C116.225 87.2817 116.29 87.7366 116.615 87.9965C116.875 88.2564 117.264 88.3214 117.654 88.3214C118.109 88.3864 118.564 88.3864 119.019 88.3864C119.799 88.5163 119.799 87.2167 118.954 87.1518Z" fill="#4EDDBB"/>
<path d="M112.391 102.682C112.066 102.097 111.611 101.252 110.961 100.992C110.052 100.602 109.662 101.772 109.272 102.357C108.817 103.072 109.987 103.721 110.377 103.007C110.506 102.812 110.571 102.682 110.701 102.487C110.766 102.552 110.831 102.617 110.831 102.682C110.961 102.877 111.091 103.137 111.221 103.332C111.676 104.111 112.781 103.461 112.391 102.682Z" fill="#4EDDBB"/>
<path d="M107.907 93.9096C107.648 94.1695 107.388 94.3645 107.063 94.4944C106.998 94.4944 106.998 94.5594 106.933 94.5594C106.608 94.4295 106.218 94.4944 105.893 94.4944C105.568 94.5594 104.918 94.5594 104.723 94.9493C104.658 95.0792 104.658 95.2742 104.853 95.4042C104.853 95.4042 104.853 95.4042 104.918 95.4042C105.048 95.5341 105.243 95.4041 105.373 95.2742C105.568 95.2092 105.958 95.2092 106.023 95.2092C106.283 95.1442 106.673 95.1442 106.868 95.2742C107.453 95.6641 107.063 96.4438 106.868 96.8987C106.738 97.2886 107.323 97.4835 107.518 97.0936C107.777 96.4438 107.972 95.5991 107.583 95.0143C107.907 94.8193 108.167 94.6244 108.427 94.3645C108.622 94.0396 108.167 93.5847 107.907 93.9096Z" fill="#788BF1"/>
<path d="M109.857 87.6716C109.922 87.2817 109.337 87.0868 109.207 87.4767C109.142 87.7366 109.077 88.1265 108.817 88.3214C108.752 88.3214 108.687 88.3214 108.622 88.3864C108.297 88.3864 107.972 87.9315 107.712 87.8016C107.323 87.6066 106.998 88.1265 107.388 88.3864C107.777 88.6463 108.102 88.9712 108.557 89.0362C108.622 89.2961 108.752 89.621 108.817 89.8809C108.947 90.2708 109.597 90.1408 109.467 89.686C109.402 89.4261 109.272 89.1661 109.207 88.8412C109.597 88.5813 109.727 88.1265 109.857 87.6716Z" fill="#788BF1"/>
<path d="M114.275 93.1298C114.015 92.9999 113.691 92.8699 113.431 92.61C113.171 92.3501 113.041 91.7003 113.561 91.7653C113.95 91.7653 113.95 91.1155 113.561 91.1155C113.106 91.1155 112.716 91.3754 112.586 91.7653C112.261 91.7653 111.871 91.7653 111.546 91.8303C111.156 91.8303 111.156 92.4801 111.546 92.4801C111.871 92.4801 112.261 92.48 112.586 92.4151C112.781 93.0649 113.366 93.3898 113.885 93.6497C114.275 93.9096 114.6 93.3248 114.275 93.1298Z" fill="#788BF1"/>
<path d="M112.131 96.1838C112.066 95.859 112.001 95.5341 112.001 95.2092C112.001 94.8193 111.351 94.8193 111.351 95.2092C111.351 95.599 111.416 95.9889 111.481 96.3788C111.156 96.6387 111.026 97.0936 111.156 97.4834C111.286 97.8733 111.936 97.6784 111.806 97.2885C111.741 97.1585 111.806 96.8986 111.936 96.8336C112.001 96.7687 112.196 96.7687 112.196 96.9636C112.196 97.3535 112.846 97.3535 112.846 96.9636C112.846 96.5737 112.521 96.2488 112.131 96.1838Z" fill="#788BF1"/>
<path d="M104.528 90.8556C104.139 90.7906 103.684 90.6607 103.294 90.5307C103.294 90.0759 102.969 89.621 102.579 89.2961C102.254 89.0362 101.799 89.4911 102.124 89.751C102.319 89.9459 102.709 90.2708 102.644 90.5307C102.514 90.7906 102.124 90.7906 101.929 90.8556C101.539 90.9206 101.669 91.5704 102.124 91.5054C102.449 91.4404 102.839 91.3105 103.099 91.1155C103.554 91.2455 103.944 91.3755 104.398 91.4404C104.723 91.5054 104.918 90.9206 104.528 90.8556Z" fill="#788BF1"/>
<path d="M214.474 117.627C214.474 123.93 210.12 128.608 203.882 128.608C197.644 128.608 191.536 123.67 191.796 117.367C192.056 109.634 197.254 106.125 203.557 106.125C209.86 106.125 214.474 111.324 214.474 117.627Z" fill="#4EDDBB"/>
<path d="M200.763 108.595C200.243 107.23 199.723 105.866 199.203 104.501C198.879 103.721 197.644 104.046 197.969 104.826C198.489 106.19 199.009 107.555 199.528 108.92C199.788 109.699 201.088 109.374 200.763 108.595Z" fill="#4EDDBB"/>
<path d="M215.383 113.533C214.279 113.923 213.239 114.248 212.134 114.638C211.355 114.898 211.679 116.132 212.459 115.873C213.564 115.483 214.604 115.158 215.708 114.768C216.488 114.508 216.163 113.273 215.383 113.533Z" fill="#4EDDBB"/>
<path d="M195.955 122.89C195.24 123.41 194.46 123.865 193.745 124.385C193.485 124.58 193.29 124.775 193.03 124.97C192.9 124.97 192.706 125.035 192.576 125.165C192.446 125.295 192.251 125.49 192.251 125.685C192.186 125.944 192.316 126.269 192.576 126.399C193.16 126.724 193.81 126.009 194.265 125.685C195.045 125.035 195.89 124.58 196.669 123.995C197.254 123.54 196.604 122.436 195.955 122.89Z" fill="#4EDDBB"/>
<path d="M199.139 126.334C198.684 127.439 198.424 128.543 198.424 129.713C198.359 130.558 199.658 130.558 199.723 129.713C199.788 128.673 199.983 127.634 200.438 126.659C200.698 125.944 199.463 125.619 199.139 126.334Z" fill="#4EDDBB"/>
<path d="M193.225 125.814C192.511 124.905 191.211 124.97 190.171 125.035C189.327 125.1 189.327 126.399 190.171 126.334C190.756 126.269 191.536 126.139 192.056 126.464C192.316 126.594 192.576 127.049 192.316 127.309C191.731 127.894 192.64 128.803 193.225 128.219C193.94 127.569 193.81 126.529 193.225 125.814Z" fill="#4EDDBB"/>
<path d="M199.203 102.812C199.138 103.201 199.138 103.851 198.749 104.111C198.554 104.241 198.359 104.176 198.294 103.981C198.229 103.656 197.774 103.461 197.514 103.526C197.124 103.656 196.994 103.981 197.059 104.306C197.189 105.216 198.294 105.606 199.073 105.346C200.178 105.021 200.438 103.786 200.503 102.812C200.568 102.032 199.268 102.032 199.203 102.812Z" fill="#4EDDBB"/>
<path d="M217.268 114.378C216.748 114.378 216.293 113.728 216.813 113.403C217.528 112.948 216.878 111.779 216.163 112.299C215.513 112.753 215.123 113.598 215.318 114.378C215.578 115.223 216.358 115.742 217.203 115.742C218.112 115.677 218.112 114.378 217.268 114.378Z" fill="#4EDDBB"/>
<path d="M200.568 131.532C200.438 130.753 199.983 129.908 199.139 129.778C198.294 129.648 197.514 130.363 197.644 131.208C197.709 131.532 198.099 131.727 198.424 131.662C198.749 131.597 198.879 131.338 198.879 131.078H198.944C198.944 131.078 199.009 131.078 199.009 131.143C199.204 131.338 199.268 131.662 199.333 131.922C199.398 132.247 199.788 132.442 200.113 132.377C200.503 132.247 200.633 131.922 200.568 131.532Z" fill="#4EDDBB"/>
<path d="M211.874 127.114C211.225 126.009 209.535 125.814 208.82 126.919C208.496 127.439 208.366 128.089 208.625 128.609C208.885 129.323 209.795 129.258 210.055 128.609C210.185 128.349 210.055 128.089 209.795 127.959C209.86 127.504 210.445 127.244 210.77 127.764C211.16 128.479 212.264 127.829 211.874 127.114Z" fill="#4EDDBB"/>
<path d="M198.749 111.649C198.489 111.454 198.099 111.389 197.839 111.649C197.644 111.844 197.579 112.363 197.839 112.558C198.099 112.753 198.164 113.208 197.904 113.403C197.514 113.728 196.929 113.403 196.734 113.013C196.279 112.299 195.175 112.948 195.63 113.663C196.279 114.638 197.644 115.158 198.684 114.443C199.463 113.858 199.658 112.364 198.749 111.649Z" fill="#788BF1"/>
<path d="M209.08 115.937C208.755 116.002 208.301 115.872 208.236 115.548C208.171 115.288 208.301 115.028 208.625 114.963C209.47 114.833 209.08 113.533 208.301 113.728C207.326 113.923 206.806 115.028 207.001 115.937C207.261 116.977 208.496 117.432 209.47 117.237C210.25 117.042 209.925 115.742 209.08 115.937Z" fill="#788BF1"/>
<path d="M203.427 122.695L203.817 120.811C204.012 119.966 202.777 119.641 202.582 120.486C202.452 121.136 202.322 121.786 202.127 122.436C201.153 122.566 200.243 123.605 199.658 124.32C199.138 124.97 200.048 125.879 200.568 125.23C200.893 124.775 201.738 123.605 202.387 123.67C203.167 123.735 203.232 124.97 203.297 125.555C203.427 126.399 204.662 126.009 204.532 125.23C204.532 124.255 204.207 123.215 203.427 122.695Z" fill="#788BF1"/>
<path d="M200.373 115.483C200.113 114.703 199.723 113.988 199.139 113.468C198.554 112.883 197.579 113.793 198.229 114.378C198.684 114.768 198.944 115.288 199.139 115.808C199.333 116.652 200.568 116.327 200.373 115.483Z" fill="#788BF1"/>
<path d="M207.001 115.353C206.806 115.483 206.611 115.548 206.416 115.483C205.571 115.288 205.247 116.522 206.091 116.717C206.676 116.847 207.196 116.782 207.651 116.457C208.366 116.002 207.716 114.898 207.001 115.353Z" fill="#788BF1"/>
<path d="M209.665 106.84C209.34 107.1 208.755 107.36 208.366 107.1C208.106 106.97 207.846 106.58 208.041 106.32C208.431 105.606 207.326 104.891 206.936 105.671C206.546 106.45 206.741 107.295 207.261 107.88C206.806 108.53 206.546 109.309 206.481 110.089C206.416 110.414 206.806 110.739 207.131 110.739C207.521 110.739 207.716 110.414 207.781 110.089C207.846 109.504 208.106 108.985 208.431 108.53C209.21 108.66 210.055 108.335 210.64 107.815C211.225 107.23 210.315 106.32 209.665 106.84Z" fill="#788BF1"/>
<path d="M195.435 107.425C195.045 106.71 193.875 107.36 194.33 108.075C194.72 108.725 194.005 109.504 193.29 109.18C192.575 108.79 191.861 109.894 192.64 110.284C193.485 110.674 194.46 110.609 195.11 109.894C195.759 109.244 195.889 108.205 195.435 107.425Z" fill="#788BF1"/>
<path d="M196.019 118.472C194.98 118.407 193.94 118.602 192.965 118.991C192.446 118.537 191.666 118.342 190.951 118.212C190.106 118.082 189.781 119.316 190.626 119.446C191.146 119.511 191.861 119.641 192.186 120.031C192.381 120.291 192.381 120.681 192.056 120.746C191.211 120.876 191.601 122.175 192.381 121.981C193.225 121.786 193.615 120.941 193.55 120.096C194.33 119.836 195.175 119.706 196.019 119.771C196.864 119.836 196.864 118.537 196.019 118.472Z" fill="#788BF1"/>
<path d="M213.499 122.045C212.654 121.851 211.68 122.175 211.225 122.955C210.77 123.735 210.965 124.775 211.615 125.424C212.199 126.009 213.174 125.1 212.524 124.515C212.004 123.995 212.394 123.15 213.109 123.345C214.019 123.475 214.344 122.24 213.499 122.045Z" fill="#788BF1"/>
<path d="M124.737 142.514H86.6591C86.2692 142.514 86.0093 142.774 86.0093 143.164C86.0093 143.554 86.2692 143.814 86.6591 143.814H124.737C125.127 143.814 125.387 143.554 125.387 143.164C125.387 142.839 125.127 142.514 124.737 142.514Z" fill="#788BF1"/>
<path d="M93.6769 138.226C93.5469 137.901 93.1571 137.706 92.7672 137.901C90.168 139.201 87.6338 140.63 85.2296 142.255C85.0346 142.385 84.9047 142.58 84.9047 142.774C84.9047 142.969 84.9696 143.164 85.0996 143.294C87.049 144.984 89.1933 146.543 91.4676 147.843C91.5976 147.908 91.6625 147.908 91.7925 147.908C91.9224 147.908 91.9874 147.908 92.1174 147.843C92.3123 147.713 92.4423 147.518 92.4423 147.258C92.4423 146.998 92.3123 146.803 92.1174 146.738C90.233 145.634 88.4136 144.334 86.6591 142.904C88.8684 141.475 91.0777 140.24 93.417 139.071C93.6769 138.876 93.8068 138.551 93.6769 138.226Z" fill="#788BF1"/>
<path d="M125.712 143.099C123.697 141.019 121.423 139.265 118.889 137.9C118.694 137.77 118.434 137.77 118.239 137.9C118.044 138.03 117.914 138.29 117.914 138.485C117.914 138.68 118.044 138.875 118.239 139.005C120.448 140.175 122.463 141.669 124.282 143.424C122.593 144.658 120.903 145.828 119.279 146.933C119.084 147.063 118.954 147.257 118.954 147.517C118.954 147.777 119.084 147.972 119.344 148.102C119.409 148.167 119.539 148.167 119.604 148.167C119.734 148.167 119.864 148.102 119.929 148.037C121.878 146.803 123.827 145.438 125.647 144.009C125.842 143.879 125.907 143.684 125.907 143.489C125.907 143.424 125.842 143.229 125.712 143.099Z" fill="#788BF1"/>
<path d="M234.552 142.189H195.63C195.24 142.189 194.98 142.449 194.98 142.839C194.98 143.229 195.24 143.489 195.63 143.489H234.552C234.942 143.489 235.202 143.229 235.202 142.839C235.202 142.449 234.942 142.189 234.552 142.189Z" fill="#788BF1"/>
<path d="M235.917 142.514C233.967 140.825 231.823 139.265 229.549 137.966C229.224 137.771 228.834 137.901 228.639 138.226C228.444 138.55 228.574 138.94 228.834 139.135C230.718 140.24 232.538 141.539 234.292 142.969C232.083 144.399 229.809 145.633 227.534 146.803C227.21 146.933 227.08 147.323 227.275 147.648C227.405 147.842 227.599 148.037 227.859 148.037C227.924 148.037 228.054 148.037 228.184 147.972C230.783 146.673 233.318 145.243 235.722 143.619C235.917 143.489 236.047 143.294 236.047 143.099C236.112 142.839 236.047 142.644 235.917 142.514Z" fill="#788BF1"/>
<path d="M202.192 147.193C199.983 146.023 197.969 144.528 196.149 142.774C197.839 141.539 199.528 140.37 201.153 139.265C201.478 139.07 201.543 138.68 201.348 138.355C201.153 138.03 200.763 137.965 200.503 138.16C198.554 139.395 196.604 140.76 194.785 142.189C194.59 142.319 194.525 142.514 194.525 142.709C194.525 142.904 194.59 143.034 194.72 143.229C196.734 145.308 199.008 147.063 201.543 148.427C201.673 148.492 201.738 148.492 201.868 148.492C202.127 148.492 202.322 148.362 202.452 148.167C202.582 147.712 202.517 147.388 202.192 147.193Z" fill="#788BF1"/>
<path d="M47.2166 97.2882C34.4156 95.1439 35.7152 101.382 31.1667 104.241C26.6181 107.035 23.1742 106.19 23.1742 106.19L25.0586 107.88C26.4232 108.335 27.7877 108.075 29.0223 107.425C30.257 106.775 31.2966 108.66 30.127 109.244C29.3472 109.634 28.4375 109.959 27.5928 110.089L38.8342 120.226C38.8342 120.226 46.6318 115.223 46.6318 108.075C46.6318 100.927 46.1769 100.082 50.5305 99.1726C54.8192 98.3279 47.2166 97.2882 47.2166 97.2882Z" fill="#333333"/>
<path d="M50.4656 100.342L47.3465 116.587C46.3069 121.916 54.4943 124.19 55.469 118.861C56.5086 113.468 57.5483 108.01 58.588 102.617C59.6277 97.2883 51.5052 95.014 50.4656 100.342Z" fill="#D9E3FB"/>
<path d="M56.1188 84.0325C47.0866 82.9929 45.5921 85.787 46.3719 95.9238C47.2166 106.775 61.9019 109.115 61.9669 105.021C62.1619 94.6892 63.7214 84.9423 56.1188 84.0325Z" fill="#D9E3FB"/>
<path d="M52.3499 97.6784C52.22 102.162 52.9347 106.646 55.404 110.284C55.8588 110.739 56.3787 111.129 56.8985 111.454C57.4833 108.465 58.0681 105.541 58.588 102.552C59.3677 98.6531 55.0141 96.3788 52.3499 97.6784Z" fill="#80A1F3"/>
<path d="M48.7111 102.032C50.5305 98.0682 49.9457 93.2597 49.4259 88.6461C49.3609 88.1913 49.8158 87.6715 50.2056 87.6065C53.7145 86.8917 57.2234 87.0217 60.7973 87.0866C60.2125 85.3322 58.2631 84.1626 55.9888 83.9026C46.9567 82.863 45.3322 85.917 46.1769 96.1188C46.3069 98.523 47.4765 100.407 48.7111 102.032Z" fill="#333333"/>
<path d="M55.014 91.3752C55.014 92.09 55.014 92.8048 55.014 93.5195C55.014 93.9094 55.6638 93.9744 55.6638 93.5845C55.6638 92.8698 55.6638 92.155 55.6638 91.4402C55.6638 91.0503 55.014 90.9853 55.014 91.3752Z" fill="#333333"/>
<path d="M60.7972 91.6999C60.7972 92.4147 60.7972 93.1295 60.7972 93.8442C60.7972 94.2341 61.447 94.3641 61.447 93.9092C61.447 93.1945 61.447 92.4797 61.447 91.7649C61.447 91.375 60.7972 91.31 60.7972 91.6999Z" fill="#333333"/>
<path d="M60.3424 90.2707C60.6673 90.5306 61.0571 90.0757 60.7972 89.8158C60.0175 89.101 59.0428 89.6209 58.8478 90.7255C58.6529 91.6352 59.1078 92.8049 59.3027 93.6496L60.2774 98.1332C60.3424 98.5231 60.9272 98.3931 60.8622 97.9382C60.6023 96.7686 60.3424 95.534 60.0824 94.3644C59.9525 93.7796 59.8225 93.1947 59.6926 92.5449C59.6276 92.35 59.6276 92.1551 59.5626 91.9601C59.1727 91.1154 59.4976 90.0107 60.3424 90.2707Z" fill="#333333"/>
<path d="M57.2233 96.3137C55.3389 96.1838 54.0393 95.5989 52.7397 94.2344C52.5448 94.2994 52.3499 94.4293 52.2199 94.5593C52.1549 94.5593 52.025 100.083 52.025 102.812C51.2452 101.447 50.5304 100.018 49.8157 98.718C49.6207 98.3281 48.841 98.1981 49.0359 98.588C50.2055 100.732 51.5051 103.851 53.2596 105.671C57.4183 107.685 61.9018 107.425 61.9668 105.151C62.0318 102.032 62.2267 98.9779 62.2267 96.1838C60.5373 96.3137 58.8478 96.4437 57.2233 96.3137Z" fill="#333333"/>
<path d="M50.4655 91.6352C45.4621 90.1406 42.0181 96.8335 50.4655 99.2378V91.6352Z" fill="#E4E9FF"/>
<path d="M50.2706 95.5339C49.5558 94.7542 48.7111 94.1044 47.8664 93.5196C47.4765 93.3246 47.1516 93.8445 47.5415 94.1044C48.3862 94.6242 49.166 95.274 49.8158 95.9888C50.0757 96.3137 50.5305 95.8588 50.2706 95.5339Z" fill="#333333"/>
<path d="M49.8808 96.7686C49.166 96.7036 48.8411 95.9239 49.3609 95.404C49.6209 95.0791 49.166 94.6243 48.9061 94.9492C48.0613 95.9239 48.6462 97.3534 49.9457 97.4184C50.3356 97.4834 50.3356 96.8336 49.8808 96.7686Z" fill="#333333"/>
<path d="M53.4546 95.8589C53.0647 94.7542 52.5449 93.7795 51.8951 92.8048C51.3103 92.0251 50.5955 91.1803 49.6858 90.9204C49.2959 90.7904 49.101 91.4402 49.4908 91.5702C50.4005 91.8301 51.1803 92.9348 51.7001 93.6495C52.22 94.3643 52.5449 95.2091 52.8698 96.0538C52.9347 96.4437 53.5845 96.2487 53.4546 95.8589Z" fill="#333333"/>
<path d="M55.5339 89.3607C55.2091 89.4257 54.8842 89.5557 54.5593 89.6206C54.1694 89.7506 54.2993 90.3354 54.6892 90.2704C55.0141 90.2055 55.339 90.0755 55.6639 90.0105C56.0538 89.8806 55.9238 89.2958 55.5339 89.3607Z" fill="#333333"/>
<path d="M54.7543 84.5524C54.6893 84.3574 54.3644 84.3574 54.1694 84.4874C54.1045 84.2925 53.7146 84.1625 53.5846 84.4224C52.285 86.5667 49.9458 87.4115 47.7365 88.2562C47.4116 88.3862 47.4116 88.776 47.7365 88.906C49.361 89.4908 50.9205 88.841 52.285 87.9963C53.3897 87.2815 54.5593 86.4368 54.7543 85.0722C54.7543 85.0072 54.8192 85.0072 54.8192 84.9422C54.8842 84.8123 54.8192 84.6823 54.7543 84.5524Z" fill="#333333"/>
<path d="M77.7568 164.412H27.5277C28.1125 127.829 27.2678 117.237 37.2746 113.858C38.7692 113.338 40.5236 113.013 42.6029 112.753C44.0325 112.559 45.592 112.494 47.3464 112.364C49.4258 112.234 51.765 112.169 54.2992 112.104C56.1836 112.039 57.8731 112.039 59.4326 112.104C81.7206 113.013 77.042 124.775 77.7568 164.412Z" fill="#4EDDBB"/>
<path d="M54.2992 112.234C51.765 112.299 49.4258 112.364 47.3464 112.494C49.8157 116.847 57.1583 116.522 59.4326 112.299C57.8731 112.169 56.1187 112.169 54.2992 112.234Z" fill="#E4E9FF"/>
<path d="M69.3096 164.412H68.6598C69.0497 151.481 68.9197 138.55 68.3999 125.684C68.3999 125.294 69.0497 125.294 69.0497 125.684C69.5695 138.615 69.6345 151.546 69.3096 164.412Z" fill="#FFF9EF"/>
<path d="M60.7322 159.474C58.5879 155.575 56.3786 151.676 54.2343 147.777C54.0393 147.387 53.4545 147.712 53.6495 148.102C55.7938 152.001 58.0031 155.9 60.1474 159.799C60.3423 160.188 60.9272 159.864 60.7322 159.474Z" fill="#788BF1"/>
<path d="M46.5018 141.799C44.9423 150.441 40.1988 158.304 36.365 166.166C35.9751 166.946 37.1448 167.596 37.4697 166.816C41.3684 158.889 46.1119 150.961 47.7364 142.189C47.8664 141.344 46.6318 140.954 46.5018 141.799Z" fill="#333333"/>
<path d="M43.7077 140.825C44.7473 133.352 44.8773 131.662 50.7254 126.399C50.7904 126.334 50.8554 126.334 50.8554 126.269C50.6605 122.565 47.1516 120.291 43.7726 120.421C43.1228 116.262 38.8342 112.623 34.3506 115.613C26.748 120.681 23.8889 129.778 21.6796 138.225C19.3404 147.063 16.9361 158.174 21.9395 166.621C24.7986 171.43 32.0763 173.899 36.4949 170C38.7042 168.051 39.0941 166.232 40.0688 163.307C40.9785 157.979 42.9279 146.218 43.7077 140.825Z" fill="#4EDDBB"/>
<path d="M45.3971 143.684C46.4368 143.619 47.5414 143.554 48.5161 143.424C49.0359 143.359 49.4908 142.904 49.4908 142.384C49.6857 132.182 47.4115 122.045 42.603 112.818C40.5886 113.078 38.8342 113.403 37.2747 113.923C42.2131 122.76 44.5524 132.637 44.2924 142.579C44.2275 143.164 44.7473 143.684 45.3971 143.684Z" fill="#333333"/>
<path d="M32.5962 131.467C30.7118 139.525 28.8924 147.582 27.008 155.64C26.943 156.03 27.5278 156.225 27.6577 155.77C29.5421 147.712 31.3616 139.655 33.246 131.597C33.311 131.207 32.6612 131.077 32.5962 131.467Z" fill="#FFF9EF"/>
<path d="M43.3177 141.409L40.0688 160.448C40.0038 160.838 40.6536 161.033 40.7186 160.643C41.8232 154.275 42.8629 147.972 43.9675 141.604C43.9675 141.149 43.3827 140.954 43.3177 141.409Z" fill="#FFF9EF"/>
<path d="M33.3759 130.753C36.7548 122.305 40.1987 119.576 48.5161 120.486C50.5304 120.681 50.3355 123.28 50.3355 123.28C50.3355 123.28 50.0106 124.125 50.7254 126.464C51.1152 127.634 51.3102 128.544 50.9853 131.533C50.6604 134.522 49.3608 135.041 49.0359 135.171C48.9059 135.171 48.9709 132.312 47.6064 132.897C46.1768 133.547 44.9422 136.406 43.1877 139.59C43.2527 139.525 33.5058 133.352 33.3759 130.753Z" fill="#D9E3FB"/>
<path d="M50.3356 122.955C48.5162 121.851 46.4368 121.591 44.4225 122.241C44.0326 122.37 44.2275 123.02 44.6174 122.89C46.5018 122.306 48.3862 122.5 50.0757 123.54C50.3356 123.735 50.6605 123.15 50.3356 122.955Z" fill="#80A1F3"/>
<path d="M50.9854 126.399C49.9457 124.71 47.9313 124.19 46.2419 125.294C45.917 125.489 46.2419 126.074 46.5668 125.879C47.9313 125.034 49.5558 125.359 50.4006 126.789C50.6605 127.049 51.2453 126.724 50.9854 126.399Z" fill="#80A1F3"/>
<path d="M47.5414 128.543C47.2165 128.738 47.5414 129.323 47.8663 129.128C49.1659 128.283 50.7254 129.323 50.5955 130.883C50.5305 131.273 51.1803 131.273 51.2453 130.883C51.4402 128.803 49.2309 127.504 47.5414 128.543Z" fill="#80A1F3"/>
<path d="M48.1263 131.338C47.8664 131.727 47.5415 132.117 47.2815 132.507C47.0216 132.832 47.6064 133.157 47.8664 132.832C48.1263 132.442 48.4512 132.052 48.7111 131.663C48.906 131.273 48.3862 130.948 48.1263 131.338Z" fill="#80A1F3"/>
<path d="M27.8526 150.961L24.9285 153.69C24.6036 153.95 25.0585 154.405 25.3834 154.145C26.3581 153.236 27.3328 152.326 28.3075 151.416C28.6324 151.156 28.1775 150.636 27.8526 150.961Z" fill="#FFF9EF"/>
<path d="M263.533 81.0436C255.216 80.8486 252.811 82.993 254.436 89.036C255.671 93.7146 263.533 81.0436 263.533 81.0436Z" fill="#80A1F3"/>
<path d="M270.486 84.7473C273.93 98.9128 276.854 95.9888 276.984 102.487L264.768 103.656L270.486 84.7473Z" fill="#80A1F3"/>
<path d="M267.952 98.3931L271.071 114.638C272.11 119.966 263.923 122.241 262.948 116.912C261.909 111.519 260.869 106.061 259.829 100.667C258.79 95.3391 266.977 93.0648 267.952 98.3931Z" fill="#D9E3FB"/>
<path d="M261.064 106.97C261.909 106.45 262.753 105.995 263.468 105.346C265.937 102.941 266.067 99.1077 265.223 95.9887C265.158 95.7937 265.158 95.6638 265.223 95.5338C262.558 95.014 259.18 97.1583 259.829 100.732C260.219 102.747 260.609 104.826 261.064 106.97Z" fill="#D9E3FB"/>
<path d="M255.801 92.61C255.801 95.4041 255.995 98.4582 256.06 101.577C256.125 103.851 260.609 104.176 264.768 102.097C266.457 101.252 268.082 100.083 269.316 98.5231C270.551 96.8987 271.136 94.8193 271.331 92.3501C272.175 82.2133 270.486 79.939 261.389 80.9787C256.06 81.6285 255.736 86.177 255.801 92.61Z" fill="#D9E3FB"/>
<path d="M269.251 98.523C267.432 94.5593 268.017 89.7508 268.537 85.1373C268.602 84.6824 268.147 84.1626 267.757 84.0976C264.248 83.3828 259.699 83.7077 256.125 83.7727C257.035 82.0832 259.504 80.8486 261.844 80.5887C270.876 79.549 272.37 82.3431 271.591 92.4799C271.461 94.9492 270.551 96.9635 269.251 98.523Z" fill="#80A1F3"/>
<path d="M263.403 88.3862C263.403 89.101 263.403 89.8158 263.403 90.5305C263.403 90.9204 262.753 90.9854 262.753 90.5955C262.753 89.8807 262.753 89.166 262.753 88.4512C262.753 88.0613 263.403 87.9963 263.403 88.3862Z" fill="#333333"/>
<path d="M257.23 88.2564C257.23 88.9712 257.23 89.686 257.23 90.4007C257.23 90.7906 256.58 90.8556 256.58 90.4657C256.58 89.751 256.58 89.0362 256.58 88.3214C256.58 87.8666 257.23 87.8016 257.23 88.2564Z" fill="#333333"/>
<path d="M258.14 86.8918C257.88 87.1517 257.49 86.6968 257.75 86.4369C258.465 85.7221 259.309 86.242 259.504 87.3466C259.634 88.2563 259.309 89.426 259.114 90.2707L258.27 94.7543C258.205 95.1442 257.685 95.0142 257.75 94.5593C257.945 93.3897 258.205 92.1551 258.4 90.9855C258.53 90.4007 258.66 89.8158 258.725 89.166C258.79 88.9711 258.79 88.7762 258.855 88.5812C259.179 87.8015 258.92 86.6318 258.14 86.8918Z" fill="#333333"/>
<path d="M260.804 92.8699C262.688 92.7399 263.988 92.1551 265.288 90.7905C265.482 90.8555 265.677 90.9855 265.807 91.1154C265.872 91.1154 266.002 96.6387 266.002 99.3678C266.782 98.0032 267.497 96.5737 268.212 95.2741C268.407 94.8842 269.186 94.7543 268.991 95.1441C267.822 97.2885 266.522 100.407 264.768 102.227C260.609 104.241 256.125 103.981 256.06 101.707C255.995 98.5881 255.801 95.534 255.801 92.7399C257.425 92.8699 259.114 92.9348 260.804 92.8699Z" fill="white"/>
<path d="M267.497 88.1913C272.5 86.6968 275.944 93.3897 267.497 95.7939V88.1913Z" fill="#D9E3FB"/>
<path d="M267.757 92.0901C268.471 91.3103 269.316 90.6605 270.161 90.0757C270.551 89.8808 270.876 90.4006 270.486 90.6606C269.641 91.1804 268.861 91.8302 268.212 92.545C267.952 92.8698 267.432 92.415 267.757 92.0901Z" fill="#333333"/>
<path d="M268.082 93.3247C268.796 93.2598 269.121 92.48 268.601 91.9602C268.342 91.6353 268.796 91.1804 269.056 91.5053C269.901 92.48 269.316 93.9096 268.017 93.9745C267.692 94.0395 267.692 93.3897 268.082 93.3247Z" fill="#333333"/>
<path d="M264.573 92.415C264.963 91.3104 265.483 90.3357 266.132 89.361C266.717 88.5812 267.432 87.7365 268.342 87.4766C268.732 87.3466 268.926 87.9964 268.537 88.1264C267.627 88.3863 266.847 89.4909 266.327 90.2057C265.807 90.9205 265.483 91.7652 265.158 92.6099C265.028 92.9998 264.378 92.8049 264.573 92.415Z" fill="white"/>
<path d="M263.078 86.1769C263.403 86.2419 263.728 86.3069 264.053 86.3718C264.443 86.4368 264.378 87.0866 263.923 87.0216C263.598 86.9567 263.273 86.8917 262.948 86.8267C262.558 86.6967 262.688 86.1119 263.078 86.1769Z" fill="#333333"/>
<path d="M261.064 82.4732C264.508 87.2167 268.536 88.5163 270.161 88.1914C271.785 87.8665 267.887 82.3433 267.887 82.3433L261.064 82.4732Z" fill="#80A1F3"/>
<path d="M290.695 164.412H242.415C242.935 125.165 244.104 117.562 251.967 110.869C253.721 109.375 256.645 108.4 260.024 107.88C263.403 107.36 267.172 107.295 270.746 107.555C275.619 107.945 280.038 109.05 282.052 110.609C290.11 117.042 290.045 121.851 290.695 164.412Z" fill="#333333"/>
<path d="M270.746 107.62L262.039 135.951L259.959 107.945C263.338 107.425 267.172 107.36 270.746 107.62Z" fill="#D9E3FB"/>
<path d="M260.154 110.479L262.039 135.951L270.096 109.635C267.237 111.064 262.818 111.844 260.154 110.479Z" fill="#80A1F3"/>
<path d="M251.382 126.659C250.537 139.2 250.082 151.806 250.082 164.412H249.433C249.433 151.806 249.822 139.2 250.732 126.659C250.732 126.269 251.447 126.269 251.382 126.659Z" fill="#80A1F3"/>
<path d="M308.044 146.348C300.831 133.937 293.424 123.02 283.612 112.559C282.247 111.129 279.583 109.829 278.154 109.764C276.724 114.703 275.684 119.706 274.84 124.775C280.428 131.013 285.496 137.576 290.045 144.528C282.507 145.308 276.854 143.424 266.847 144.658C267.692 149.337 267.432 154.535 266.782 159.279C279.193 159.799 291.604 159.019 304.015 156.939C308.824 156.16 310.123 149.922 308.044 146.348Z" fill="#333333"/>
<path d="M290.305 143.294C287.251 138.81 284.132 134.327 281.078 129.843C280.818 129.518 280.298 129.843 280.493 130.168C283.547 134.652 286.666 139.135 289.72 143.619C289.98 144.009 290.565 143.684 290.305 143.294Z" fill="#80A1F3"/>
<path d="M294.074 143.489C285.171 143.684 276.334 143.814 267.432 144.009C267.042 144.009 267.042 144.658 267.432 144.658C276.334 144.463 285.171 144.334 294.074 144.139C294.463 144.139 294.463 143.489 294.074 143.489Z" fill="#80A1F3"/>
<path d="M266.912 144.658C262.234 143.749 259.114 139.2 254.891 141.929C250.667 144.658 253.591 144.658 255.736 144.269C257.88 143.879 259.634 144.529 259.439 145.698C259.244 146.868 252.422 145.503 250.992 147.193C249.563 148.882 252.617 150.312 252.617 150.312C252.617 150.312 250.797 151.156 251.967 153.236C253.136 155.315 252.162 156.485 253.786 157.784C255.411 159.084 264.183 157.589 267.107 157.784C267.107 157.719 270.486 148.882 266.912 144.658Z" fill="#D9E3FB"/>
<path d="M273.345 148.102C272.24 148.232 271.006 148.037 270.746 149.272C270.486 150.442 270.681 151.871 270.616 153.106C270.551 154.6 270.551 156.095 270.486 157.524C270.486 157.914 271.136 157.914 271.136 157.524C271.201 155.835 271.266 154.145 271.331 152.456C271.331 151.676 270.811 148.947 272.24 148.947C272.5 148.882 272.825 148.882 273.085 148.817C274.255 148.687 274.32 149.142 274.515 150.247C274.645 151.026 274.515 152.001 274.45 152.781C274.385 154.405 273.8 157.784 273.8 157.849V158.434C273.8 158.824 274.385 158.889 274.45 158.499C274.905 155.965 275.164 153.366 275.164 150.831C275.1 149.012 275.359 147.907 273.345 148.102Z" fill="#80A1F3"/>
<path d="M255.021 150.182C254.371 150.052 253.721 149.987 253.071 149.857C252.682 149.792 252.487 150.442 252.876 150.507C253.526 150.637 254.176 150.702 254.826 150.832C255.216 150.897 255.411 150.312 255.021 150.182Z" fill="#80A1F3"/>
<path d="M254.176 154.015L253.526 153.821C253.136 153.691 252.942 154.34 253.331 154.47C253.526 154.535 253.786 154.6 253.981 154.665C254.371 154.73 254.566 154.08 254.176 154.015Z" fill="#80A1F3"/>
<path d="M187 164.478H132C132.196 152.837 132.262 143.812 132.523 136.684C133.177 120.726 135.074 114.775 142.66 112.355C144.295 111.832 146.257 111.505 148.48 111.244C150.05 111.047 151.75 110.917 153.647 110.851C155.936 110.72 158.486 110.655 161.298 110.59C163.326 110.524 165.222 110.524 166.923 110.59C184.646 111.178 186.804 117.718 186.935 136.814C187 144.139 186.804 153.229 187 164.478Z" fill="#80A1F3"/>
<path d="M144.949 164.478H132C132.196 152.837 132.262 143.812 132.523 136.684C138.54 136.945 144.491 137.272 144.491 137.272L144.949 164.478Z" fill="#D9E3FB"/>
<path d="M187 164.478H175.751L176.405 137.272C176.405 137.272 181.114 137.076 186.935 136.88C187 144.139 186.804 153.229 187 164.478Z" fill="#D9E3FB"/>
<path d="M176.209 128.966V136.487C176.209 136.88 176.863 136.88 176.863 136.487V128.966C176.863 128.509 176.209 128.509 176.209 128.966Z" fill="#D9E3FB"/>
<path d="M143.837 128.705V135.703C143.837 136.095 144.491 136.095 144.491 135.703V128.705C144.491 128.313 143.837 128.313 143.837 128.705Z" fill="#D9E3FB"/>
<path d="M173.266 148.455C172.089 151.921 170.847 155.453 169.669 158.919C169.539 159.311 170.193 159.507 170.323 159.115C171.501 155.649 172.743 152.117 173.92 148.651C174.051 148.259 173.397 148.063 173.266 148.455Z" fill="#D9E3FB"/>
<path d="M157.571 94.3707L155.74 110.916C155.151 116.345 163.522 117.98 164.111 112.486C164.699 106.993 165.353 101.434 165.942 95.9403C166.53 90.5122 158.159 88.9426 157.571 94.3707Z" fill="#A9CDFF"/>
<path d="M160.187 109.02C161.756 110.524 163.13 110.72 164.372 110.197C164.895 105.423 165.419 100.714 165.942 95.9401C166.53 90.5121 158.159 88.8771 157.571 94.3706L156.721 102.349C157.244 104.834 158.356 107.254 160.187 109.02Z" fill="#80A1F3"/>
<path d="M161.822 105.096C156.197 105.096 153.32 106.404 152.666 92.9972C152.6 91.2314 152.535 89.6619 152.6 88.2885C152.797 79.3289 155.609 78.9365 163.784 79.2635C166.596 79.3943 167.446 81.8141 167.642 88.5501C167.642 89.5311 167.707 90.5774 167.707 91.6892C168.034 100.845 168.361 105.096 161.822 105.096Z" fill="#D9E3FB"/>
<path d="M153.058 88.4195C148.023 86.9154 144.557 93.6514 153.058 96.0711V88.4195Z" fill="#D9E3FB"/>
<path d="M167.119 88.6158C172.155 87.1116 175.621 93.8477 167.119 96.2674V88.6158Z" fill="#D9E3FB"/>
<path d="M150.115 90.3815C149.723 90.2507 149.527 90.9046 149.919 91.0354C151.293 91.4278 152.143 92.8012 151.947 94.1746C151.881 94.567 152.535 94.7631 152.601 94.3708C152.862 92.605 151.816 90.9046 150.115 90.3815Z" fill="#333333"/>
<path d="M169.473 90.5124C168.296 91.1664 167.642 92.4743 167.838 93.8477C167.904 94.2401 168.558 94.2401 168.492 93.8477C168.361 92.7359 168.819 91.6242 169.8 91.101C170.193 90.9048 169.866 90.3162 169.473 90.5124Z" fill="#333333"/>
<path d="M163.849 85.4764C160.318 84.4955 161.56 92.5394 161.691 94.2398C161.756 94.6322 162.345 94.6322 162.279 94.2398C162.149 93.128 161.298 85.4764 163.653 86.1304C164.111 86.1958 164.241 85.6072 163.849 85.4764Z" fill="#333333"/>
<path d="M166.269 90.9048C166.007 91.1664 165.68 91.428 165.288 91.6242C163.653 92.4089 162.018 91.1664 160.383 91.6242C158.617 92.1473 157.375 92.9321 155.544 91.8858C155.282 91.755 155.086 91.5588 154.824 91.3626C153.255 93.2591 153.124 96.3328 153.189 98.818C154.366 105.946 157.178 105.031 161.756 105.031C166.792 105.031 167.773 102.546 167.773 97.2484C167.708 95.0903 167.315 92.8013 166.269 90.9048Z" fill="white"/>
<path d="M157.048 93.5206C155.543 91.8202 154.17 89.9891 152.797 88.1579C152.535 87.8309 152.012 88.1579 152.208 88.4849C153.581 90.3814 155.02 92.2126 156.524 93.9784C156.851 94.3053 157.309 93.7822 157.048 93.5206Z" fill="white"/>
<path d="M167.773 88.2233C166.857 89.5967 165.876 90.9047 164.961 92.278C164.699 92.605 165.288 92.932 165.549 92.605C166.465 91.2317 167.446 89.9237 168.362 88.5503C168.558 88.2233 167.969 87.8963 167.773 88.2233Z" fill="white"/>
<path d="M157.309 87.5038C157.375 87.1114 156.721 86.9152 156.655 87.3076C156.524 88.1578 156.524 88.9426 156.655 89.7928C156.721 90.1852 157.375 90.0544 157.309 89.5966C157.244 88.9426 157.244 88.2232 157.309 87.5038Z" fill="#333333"/>
<path d="M164.83 87.3732C164.895 86.9808 164.241 86.7846 164.176 87.177C164.045 88.0272 164.045 88.812 164.176 89.6622C164.241 90.0545 164.895 89.9238 164.83 89.466C164.765 88.812 164.765 88.0926 164.83 87.3732Z" fill="#333333"/>
<path d="M157.636 85.542H156.328C155.936 85.542 155.936 86.196 156.328 86.196H157.636C158.094 86.196 158.094 85.542 157.636 85.542Z" fill="#333333"/>
<path d="M168.1 79.9177C168.296 78.3481 166.53 77.8903 165.288 78.0211C164.634 78.0865 163.98 78.2827 163.391 78.5443C155.216 78.7405 152.143 77.7595 152.6 88.1579C154.759 89.7928 154.105 84.0378 154.759 82.7952C155.151 82.0104 156.001 81.5526 156.982 81.291C157.048 81.4872 157.178 81.5526 157.375 81.618C157.571 81.6834 157.702 81.8142 157.898 81.8796C158.486 82.1412 159.14 82.272 159.794 82.4028C161.037 82.6644 162.345 82.8606 163.653 82.7952C164.176 82.7298 164.83 82.6644 165.484 82.4682C165.549 82.7298 165.615 82.9914 165.615 83.3838C165.615 84.561 165.68 85.5419 165.942 86.6537C166.269 87.9617 166.923 88.5503 167.707 88.6157C167.642 85.5419 167.773 83.1222 167.446 81.4872C167.707 80.8986 167.969 80.4409 168.1 79.9177Z" fill="#333333"/>
</g>
</svg>
