<svg width="327" height="165" viewBox="0 0 327 165" fill="none" xmlns="http://www.w3.org/2000/svg">
<rect width="327" height="164" fill="#FCF2DC"/>
<path d="M205.1 164.232H121C121.3 146.432 121.4 132.632 121.8 121.732C122.8 97.3323 125.7 88.2323 137.3 84.5323C139.8 83.7323 142.8 83.2323 146.2 82.8323C148.6 82.5323 151.2 82.3323 154.1 82.2323C157.6 82.0323 161.5 81.9323 165.8 81.8323C168.9 81.7323 171.8 81.7323 174.4 81.8323C201.5 82.7323 204.8 92.7323 205 121.932C205.1 133.132 204.8 147.032 205.1 164.232Z" fill="#80A1F3"/>
<path d="M140.8 164.232H121C121.3 146.432 121.4 132.632 121.8 121.732C131 122.132 140.1 122.632 140.1 122.632L140.8 164.232Z" fill="#D9E3FB"/>
<path d="M205.1 164.232H187.9L188.9 122.632C188.9 122.632 196.1 122.332 205 122.032C205.1 133.132 204.8 147.032 205.1 164.232Z" fill="#D9E3FB"/>
<path d="M188.6 109.932V121.432C188.6 122.032 189.6 122.032 189.6 121.432V109.932C189.6 109.232 188.6 109.232 188.6 109.932Z" fill="#D9E3FB"/>
<path d="M139.1 109.532V120.232C139.1 120.832 140.1 120.832 140.1 120.232V109.532C140.1 108.932 139.1 108.932 139.1 109.532Z" fill="#D9E3FB"/>
<path d="M184.1 139.732C182.3 145.032 180.4 150.432 178.6 155.732C178.4 156.332 179.4 156.632 179.6 156.032C181.4 150.732 183.3 145.332 185.1 140.032C185.3 139.432 184.3 139.132 184.1 139.732Z" fill="#D9E3FB"/>
<path d="M160.1 57.0323L157.3 82.3323C156.4 90.6323 169.2 93.1323 170.1 84.7323C171 76.3323 172 67.8323 172.9 59.4323C173.8 51.1323 161 48.7323 160.1 57.0323Z" fill="#A9CDFF"/>
<path d="M164.1 79.4322C166.5 81.7322 168.6 82.0323 170.5 81.2323C171.3 73.9323 172.1 66.7322 172.9 59.4322C173.8 51.1322 161 48.6323 160.1 57.0323L158.8 69.2323C159.6 73.0323 161.3 76.7322 164.1 79.4322Z" fill="#80A1F3"/>
<path d="M166.6 73.4322C158 73.4322 153.6 75.4322 152.6 54.9322C152.5 52.2322 152.4 49.8322 152.5 47.7322C152.8 34.0322 157.1 33.4322 169.6 33.9322C173.9 34.1322 175.2 37.8322 175.5 48.1322C175.5 49.6322 175.6 51.2322 175.6 52.9322C176.1 66.9322 176.6 73.4322 166.6 73.4322Z" fill="#D9E3FB"/>
<path d="M153.2 47.9323C145.5 45.6323 140.2 55.9323 153.2 59.6323V47.9323Z" fill="#D9E3FB"/>
<path d="M174.7 48.2324C182.4 45.9324 187.7 56.2324 174.7 59.9324V48.2324Z" fill="#D9E3FB"/>
<path d="M148.7 50.9323C148.1 50.7323 147.8 51.7323 148.4 51.9323C150.5 52.5323 151.8 54.6323 151.5 56.7323C151.4 57.3323 152.4 57.6323 152.5 57.0323C152.9 54.3323 151.3 51.7323 148.7 50.9323Z" fill="#333333"/>
<path d="M178.3 51.1324C176.5 52.1324 175.5 54.1324 175.8 56.2324C175.9 56.8324 176.9 56.8324 176.8 56.2324C176.6 54.5324 177.3 52.8324 178.8 52.0324C179.4 51.7324 178.9 50.8324 178.3 51.1324Z" fill="#333333"/>
<path d="M169.7 43.4323C164.3 41.9323 166.2 54.2322 166.4 56.8322C166.5 57.4322 167.4 57.4322 167.3 56.8322C167.1 55.1322 165.8 43.4323 169.4 44.4323C170.1 44.5323 170.3 43.6323 169.7 43.4323Z" fill="#333333"/>
<path d="M173.4 51.7324C173 52.1324 172.5 52.5324 171.9 52.8324C169.4 54.0324 166.9 52.1324 164.4 52.8324C161.7 53.6324 159.8 54.8324 157 53.2324C156.6 53.0324 156.3 52.7324 155.9 52.4324C153.5 55.3324 153.3 60.0324 153.4 63.8324C155.2 74.7324 159.5 73.3324 166.5 73.3324C174.2 73.3324 175.7 69.5324 175.7 61.4324C175.6 58.1324 175 54.6324 173.4 51.7324Z" fill="white"/>
<path d="M159.3 55.7323C157 53.1323 154.9 50.3323 152.8 47.5323C152.4 47.0323 151.6 47.5323 151.9 48.0323C154 50.9323 156.2 53.7323 158.5 56.4323C159 56.9323 159.7 56.1323 159.3 55.7323Z" fill="white"/>
<path d="M175.7 47.6324C174.3 49.7324 172.8 51.7324 171.4 53.8324C171 54.3324 171.9 54.8324 172.3 54.3324C173.7 52.2324 175.2 50.2324 176.6 48.1324C176.9 47.6324 176 47.1324 175.7 47.6324Z" fill="white"/>
<path d="M159.7 46.5323C159.8 45.9323 158.8 45.6323 158.7 46.2323C158.5 47.5323 158.5 48.7323 158.7 50.0323C158.8 50.6323 159.8 50.4323 159.7 49.7323C159.6 48.7323 159.6 47.6323 159.7 46.5323Z" fill="#333333"/>
<path d="M171.2 46.3324C171.3 45.7324 170.3 45.4324 170.2 46.0324C170 47.3324 170 48.5324 170.2 49.8324C170.3 50.4324 171.3 50.2324 171.2 49.5324C171.1 48.5324 171.1 47.4324 171.2 46.3324Z" fill="#333333"/>
<path d="M160.2 43.5322H158.2C157.6 43.5322 157.6 44.5322 158.2 44.5322H160.2C160.9 44.5322 160.9 43.5322 160.2 43.5322Z" fill="#333333"/>
<path d="M176.2 34.9323C176.5 32.5323 173.8 31.8323 171.9 32.0323C170.9 32.1323 169.9 32.4323 169 32.8323C156.5 33.1323 151.8 31.6323 152.5 47.5323C155.8 50.0323 154.8 41.2323 155.8 39.3323C156.4 38.1323 157.7 37.4323 159.2 37.0323C159.3 37.3323 159.5 37.4323 159.8 37.5323C160.1 37.6323 160.3 37.8323 160.6 37.9323C161.5 38.3323 162.5 38.5323 163.5 38.7323C165.4 39.1323 167.4 39.4323 169.4 39.3323C170.2 39.2323 171.2 39.1323 172.2 38.8323C172.3 39.2323 172.4 39.6323 172.4 40.2323C172.4 42.0323 172.5 43.5323 172.9 45.2323C173.4 47.2323 174.4 48.1323 175.6 48.2323C175.5 43.5323 175.7 39.8323 175.2 37.3323C175.6 36.4323 176 35.7323 176.2 34.9323Z" fill="#333333"/>
</svg>
