<svg width="327" height="164" viewBox="0 0 327 164" fill="none" xmlns="http://www.w3.org/2000/svg">
<mask id="mask0" mask-type="alpha" maskUnits="userSpaceOnUse" x="0" y="0" width="327" height="164">
<rect width="327" height="164" fill="#FCF2DC"/>
</mask>
<g mask="url(#mask0)">
<rect width="327" height="164" fill="#FCF2DC"/>
<path d="M115.652 64.5599L95.9875 36.2071C92.7864 31.634 86.3841 29.3475 81.3538 32.5486C76.7807 35.2924 74.0369 42.6093 77.6953 47.1824C84.0976 56.7858 90.9572 66.3892 97.3594 75.5353C100.561 80.1083 106.963 82.3948 111.993 79.1937C116.566 76.4499 118.853 69.5903 115.652 64.5599Z" fill="#D9E3FB"/>
<path d="M396.894 340.314L249.185 127.21C230.893 101.144 199.796 86.967 169.614 102.973C144.005 116.692 127.084 156.477 145.377 182.544C194.766 253.426 243.697 324.766 293.086 395.648C311.378 421.714 342.475 435.891 372.657 419.885C398.266 406.623 414.729 366.837 396.894 340.314Z" fill="#D9E3FB"/>
<path d="M224.49 146.875H142.633C140.803 146.875 138.974 145.96 138.06 144.131L84.5549 23.8596C83.183 20.6584 85.4695 17 89.1279 17H170.985C172.815 17 174.644 17.9146 175.559 19.7439L229.063 140.015C230.435 143.216 228.149 146.875 224.49 146.875Z" fill="#333333"/>
<path d="M214.43 132.241H146.748C145.377 132.241 143.547 131.326 143.09 129.954L135.773 113.034L99.1888 30.7193C97.8168 27.9755 100.103 25.2317 102.847 25.2317H170.528C172.357 25.2317 173.729 26.1463 174.187 27.5182L213.972 116.693L218.545 126.753C219.003 129.04 217.173 132.241 214.43 132.241Z" fill="#FFF9EF"/>
<mask id="mask1" mask-type="alpha" maskUnits="userSpaceOnUse" x="139" y="58" width="42" height="47">
<path d="M175.045 68.3001C182.632 78.9865 182.026 93.5332 173.692 100.791C165.358 108.049 152.451 105.27 144.863 94.5832C137.276 83.8968 137.882 69.3501 146.216 62.0922C154.55 54.8344 167.457 57.6137 175.045 68.3001Z" fill="#80A1F3"/>
</mask>
<g mask="url(#mask1)">
<path d="M175.045 68.3001C182.632 78.9865 182.026 93.5332 173.692 100.791C165.358 108.049 152.451 105.27 144.863 94.5832C137.276 83.8968 137.882 69.3501 146.216 62.0922C154.55 54.8344 167.457 57.6137 175.045 68.3001Z" fill="#80A1F3"/>
<path d="M154.264 65.6738C157.778 62.6718 157.806 60.1219 159.888 62.2098C161.969 64.2977 160.563 65.1637 162.129 66.6605C163.694 68.1572 162.93 70.6415 161.25 70.6516C159.569 70.6617 154.264 65.6738 154.264 65.6738Z" fill="#333333"/>
<path d="M154.246 75.6721C153.473 77.4039 155.858 79.5794 154.102 79.5138C152.988 79.5 152.588 80.8576 153.139 82.7844C154.046 86.1802 150.836 81.222 149.393 85.452C147.95 89.6821 146.638 85.5398 145.742 89.7002C145.742 89.7002 149.036 90.4642 153.846 93.4477C158.657 96.4311 165.698 84.8057 170.297 84.1524C170.297 84.1524 171.915 82.0085 169.926 79.827C167.956 77.5838 167.59 80.2771 166.549 76.7758C165.509 73.2745 164.921 76.3858 163.769 74.7138C162.617 73.0419 162.168 66.7518 158.17 68.8243C154.116 70.8669 154.246 75.6721 154.246 75.6721Z" fill="#333333"/>
<path d="M157.587 77.4742C158.811 82.3795 159.498 85.1297 160.722 90.035C161.74 94.1591 167.311 93.7419 166.255 89.6342C165.217 85.463 164.158 81.2446 163.12 77.0734C162.082 72.9022 156.549 73.303 157.587 77.4742Z" fill="#FCF2DC"/>
<path d="M158.208 75.3972C159.316 78.2217 161.112 78.897 163.174 80.8316C163.525 81.66 164.961 84.4173 164.961 84.4173C164.787 82.4388 163.825 79.551 163.233 77.3176C162.557 74.3637 159.36 73.8286 158.208 75.3972Z" fill="#333333"/>
<path d="M163.454 71.8775C164.288 73.8461 165.087 76.0455 165.981 78.259C166.623 79.8772 164.127 81.2051 161.101 80.7595C159.872 80.5785 158.583 80.1526 157.404 79.3565C156.205 78.5146 155.871 77.4138 155.04 75.7677C151.525 68.833 150.798 66.3867 156.331 64.9052C159.55 64.0271 161.513 67.2994 163.454 71.8775Z" fill="#FCF2DC"/>
<path d="M162.708 73.2168C162.328 72.6032 161.947 71.9897 161.567 71.3762C161.383 71.037 159.969 68.8355 160.522 68.7205C160.747 68.6847 160.622 68.2012 160.397 68.2371C159.879 68.3376 159.833 68.893 160.133 69.6003C160.669 70.8632 161.552 72.0976 162.27 73.2236C161.952 73.4181 161.668 73.5981 161.349 73.7926C161.167 73.9295 161.36 74.3842 161.542 74.2473C161.928 74.024 162.28 73.8151 162.667 73.5918C162.768 73.5487 162.772 73.3683 162.708 73.2168Z" fill="#333333"/>
<path d="M157.126 79.8115C160.337 83.2031 155.478 72.8276 153.762 69.7205C153.589 69.416 153.697 68.9382 153.903 68.7969C155.719 67.4332 157.786 66.6647 159.873 65.8344C159.533 64.1963 157.253 64.5687 155.86 64.943C150.326 66.4245 150.674 68.7076 154.189 75.6423C155.077 77.3183 155.947 79.0154 157.126 79.8115Z" fill="#333333"/>
<path d="M157.866 70.3034C158.08 70.807 158.293 71.3106 158.506 71.8142C158.623 72.0889 159.018 71.9754 158.902 71.7007C158.688 71.1971 158.475 70.6935 158.261 70.1899C158.145 69.9153 157.75 70.0288 157.866 70.3034Z" fill="#333333"/>
<path d="M161.307 69.1147C161.521 69.6183 161.734 70.1219 161.948 70.6255C162.064 70.9002 162.479 70.8325 162.343 70.512C162.129 70.0084 161.916 69.5048 161.703 69.0012C161.586 68.7265 161.191 68.84 161.307 69.1147Z" fill="#333333"/>
<path d="M155.313 71.6014C151.974 71.7749 151.981 77.3345 157.584 76.9578L155.313 71.6014Z" fill="#FCF2DC"/>
<path d="M156.327 74.412C155.681 74.0379 154.999 73.7871 154.336 73.5822C154.052 73.5404 154.019 73.9863 154.322 74.0738C154.966 74.233 155.611 74.4997 156.2 74.844C156.485 74.9933 156.612 74.5613 156.327 74.412Z" fill="#333333"/>
<path d="M156.528 75.4074C156.095 75.5368 155.674 75.0671 155.819 74.5734C155.873 74.2808 155.474 74.0718 155.421 74.3644C155.223 75.2582 155.988 76.122 156.759 75.8493C156.947 75.7696 156.753 75.3118 156.528 75.4074Z" fill="#333333"/>
<path d="M157.565 68.7569C157.397 68.8823 157.248 69.0535 157.079 69.1789C156.892 69.3661 157.142 69.7462 157.348 69.6049C157.517 69.4795 157.666 69.3083 157.834 69.1828C158.04 69.0415 157.771 68.6155 157.565 68.7569Z" fill="#333333"/>
<path d="M156.333 66.6867C156.237 66.5653 156.049 66.6449 155.975 66.7843C155.88 66.6628 155.615 66.6668 155.618 66.8818C155.507 68.7111 152.67 66.6193 153.381 71.0164C153.44 71.2612 153.348 71.4622 153.575 71.4742C154.689 71.488 155.397 70.6479 155.934 69.7183C156.359 68.944 156.783 68.0621 156.488 67.0529C156.469 67.0072 156.506 66.9912 156.487 66.9454C156.504 66.7762 156.428 66.7006 156.333 66.6867Z" fill="#333333"/>
<path d="M190.481 117.236L162.487 129.102C150.863 102.88 148.249 95.9285 153.026 91.0951C153.735 90.3625 154.653 89.7036 155.778 89.0108C156.546 88.523 157.429 88.095 158.404 87.5734C158.743 87.43 159.099 87.225 159.475 87.0657C160.357 86.6377 161.315 86.1778 162.367 85.7318C163.437 85.2241 164.414 84.81 165.335 84.4735C165.918 84.2804 166.407 84.0733 166.972 83.9419C178.561 80.4336 178.754 90.6132 190.481 117.236Z" fill="#FCF2DC"/>
<path fill-rule="evenodd" clip-rule="evenodd" d="M167.569 84.61C167.705 84.6232 167.838 84.7791 167.865 84.9581C167.979 85.7088 168.249 87.7374 168.428 89.885C168.544 91.2834 168.308 92.3434 167.784 92.9699C167.257 93.5992 166.463 93.7621 165.53 93.4397C164.704 93.154 163.658 92.3555 162.621 91.4338C161.576 90.5045 160.503 89.4157 159.614 88.5101C159.492 88.3855 159.446 88.1798 159.513 88.0505C159.579 87.9212 159.732 87.9174 159.854 88.042C160.745 88.9496 161.8 90.0199 162.823 90.9294C163.855 91.8466 164.817 92.5667 165.531 92.8134C166.332 93.0904 166.973 92.9414 167.392 92.4412C167.813 91.9383 168.033 91.0512 167.927 89.7789C167.75 87.6532 167.482 85.6442 167.371 84.9102C167.344 84.7312 167.433 84.5968 167.569 84.61Z" fill="#333333"/>
<path d="M163.317 77.356C162.652 77.8065 161.699 77.5784 161.042 76.8039C160.852 76.5894 160.59 76.8267 160.78 77.0412C161.612 77.9945 162.735 78.2348 163.568 77.7134C163.776 77.583 163.525 77.2256 163.317 77.356Z" fill="#333333"/>
</g>
<path d="M247.813 153.277C251.014 102.973 242.325 76.4498 213.058 63.188C183.79 49.4689 204.369 85.5959 220.375 108.918C237.752 134.528 231.35 160.137 231.35 160.137L247.813 153.277Z" fill="#D9E3FB"/>
<path d="M152.693 156.02C142.633 142.301 142.633 129.497 145.376 112.576C148.12 96.5707 134.401 93.3695 127.999 102.058C128.456 96.5707 129.371 91.5403 131.657 86.5099C136.23 76.9065 125.712 68.2178 118.395 70.5043C118.853 69.1324 119.31 67.3032 119.767 65.4739C124.34 52.6694 103.762 46.7244 99.1886 59.9863C94.1583 74.1627 93.701 88.7965 97.8167 102.973C99.1886 108.003 103.304 110.29 106.963 110.747C107.877 117.607 109.707 124.466 112.451 130.869C114.737 135.442 118.395 136.813 122.054 136.356C123.426 147.331 127.084 157.849 133.944 166.538C142.175 177.971 160.925 167.453 152.693 156.02Z" fill="#D9E3FB"/>
<path d="M130.285 148.704C125.712 133.156 125.712 118.065 130.285 102.517C131.2 99.3155 126.17 97.9436 125.255 101.145C120.225 117.608 120.682 134.071 125.255 150.076C126.17 153.277 131.657 151.906 130.285 148.704Z" fill="#B3C7F8"/>
<path d="M114.28 69.59C106.506 83.7665 102.847 99.3148 103.304 115.778C103.304 119.436 108.792 119.436 108.792 115.778C107.878 100.229 111.536 85.5957 118.853 72.3339C120.682 69.1327 116.109 66.3889 114.28 69.59Z" fill="#B3C7F8"/>
</g>
</svg>
