<svg width="327" height="164" viewBox="0 0 327 164" fill="none" xmlns="http://www.w3.org/2000/svg">
<mask id="mask0" mask-type="alpha" maskUnits="userSpaceOnUse" x="0" y="0" width="327" height="164">
<rect width="327" height="164" fill="#F1F1F1"/>
</mask>
<g mask="url(#mask0)">
<rect width="327" height="164" fill="#FCF2DC"/>
<path d="M183.831 44.8753L194.6 72.256C198.119 81.1952 184.675 87.8116 181.085 78.802C177.496 69.6516 173.906 60.5717 170.316 51.4213C166.867 42.5525 180.311 35.9361 183.831 44.8753Z" fill="#D9E3FB"/>
<path d="M174.539 62.0499C175.877 60.9237 177.214 59.7975 178.2 58.3897C181.789 53.3922 180.733 46.635 178.27 41.4264C178.129 41.1448 178.059 40.8633 178.059 40.6521C173.272 40.5817 167.993 45.5088 170.316 51.4918C171.724 55.0111 173.132 58.5305 174.539 62.0499Z" fill="#80A1F3"/>
<path d="M160.673 38.7514C161.588 43.6081 160.462 50.6469 163.348 55.3628C166.023 59.6564 172.78 57.3337 179.396 52.4769C182.071 50.5061 184.464 47.9017 186.154 44.7343C187.843 41.4965 188.124 37.6252 187.702 33.3316C185.802 15.3828 182.845 11.0188 167.431 15.8051C158.351 18.5502 158.491 27.4894 160.673 38.7514Z" fill="#D9E3FB"/>
<path d="M186.154 44.7342C181.86 48.9574 175.807 30.6567 175.244 22.4214C175.173 21.6471 172.991 20.8025 172.287 20.8025C165.953 20.7321 166.445 21.3655 160.251 22.6325C158.421 16.5088 163.489 17.0719 167.431 15.8049C182.916 11.089 186.435 15.453 188.336 33.4018C188.758 37.6954 187.843 41.4963 186.154 44.7342Z" fill="#333333"/>
<path d="M175.173 26.715C183.408 22.4213 191.573 33.0498 177.637 39.9478L175.173 26.715Z" fill="#D9E3FB"/>
<path d="M175.947 19.5356C173.836 19.606 171.794 19.5356 169.753 19.3244C169.612 19.1133 169.26 19.1837 169.19 19.4652C169.12 19.606 169.12 19.7468 169.19 19.8875C169.753 23.8292 170.527 27.7005 171.724 31.5015C172.217 33.1204 173.132 36.5693 175.525 36.0766C177.566 35.6543 177.425 32.8388 177.214 31.2903C176.721 27.4894 175.736 23.7588 174.399 20.2395C174.891 20.2395 175.384 20.2395 175.947 20.1691C176.37 20.1691 176.37 19.4652 175.947 19.5356Z" fill="#333333"/>
<path d="M181.719 28.4049C179.396 28.8272 177.988 31.15 178.692 33.4024C178.833 33.8247 179.466 33.6839 179.326 33.2616C179.185 32.6985 179.115 32.1354 179.185 31.6427C180.241 31.9242 180.733 33.1912 179.889 34.0359C179.607 34.3174 180.03 34.8805 180.311 34.5286C181.437 33.2616 180.874 31.3611 179.326 31.0092C179.748 30.0238 180.593 29.2495 181.719 29.0383C182.282 28.968 182.141 28.3345 181.719 28.4049Z" fill="#2D264F"/>
<path d="M166.445 34.9513C166.023 33.9656 165.671 33.0503 165.248 32.0646C165.108 31.6422 164.474 31.9942 164.685 32.3463C165.108 33.332 165.46 34.2473 165.882 35.233C166.023 35.6554 166.586 35.3738 166.445 34.9513Z" fill="#2D264F"/>
<path d="M164.192 40.9336C162.503 41.1448 160.743 41.3559 159.054 41.6375C159.828 38.6108 160.603 35.5842 161.307 32.6279C161.377 32.2056 160.814 31.9944 160.673 32.4167C159.899 35.5842 159.054 38.7516 158.28 41.919C158.21 42.1302 158.421 42.4117 158.632 42.3413C160.532 42.1302 162.362 41.8486 164.263 41.6375C164.756 41.5671 164.615 40.8632 164.192 40.9336Z" fill="#2D264F"/>
<path d="M165.038 27.8414C164.334 27.9118 163.559 27.9822 162.855 28.1231C162.01 28.1935 162.292 29.5312 163.066 29.3904C163.77 29.32 164.545 29.2496 165.249 29.1088C166.094 29.0384 165.883 27.7006 165.038 27.8414Z" fill="#2D264F"/>
<path d="M72.6888 86.4033C84.162 90.4154 85.7809 97.3838 80.5018 95.7649C75.2932 94.0756 67.5506 84.5733 72.6888 86.4033Z" fill="#D9E3FB"/>
<path d="M91.2007 107.731C94.1569 109.702 101.618 113.643 101.618 113.643C101.618 113.643 118.37 110.476 115.907 96.1874C110.276 90.4156 99.1544 92.8088 93.805 98.0174C90.356 101.396 91.2007 107.731 91.2007 107.731Z" fill="#D9E3FB"/>
<path d="M170.879 65.4281C165.882 62.8237 158.139 66.4135 155.464 72.0445C151.1 81.3356 146.666 90.5564 142.302 99.8475L135.826 113.432C135.474 114.136 135.193 114.84 134.841 115.474C133.292 113.925 131.744 112.306 130.266 110.758C125.479 105.901 120.693 100.974 115.977 96.117C110.768 101.537 115.766 104.634 101.688 113.573C107.883 119.908 114.077 126.313 120.341 132.648C123.649 136.027 127.239 141.024 131.533 143.206C138.712 146.866 146.244 143.488 149.622 136.519C158.139 118.852 166.445 101.044 174.891 83.3065C177.285 78.0978 176.51 68.4547 170.879 65.4281Z" fill="#80A1F3"/>
<path d="M114.78 104.986L96.4797 105.69C96.1277 105.69 95.7054 105.549 95.4239 105.338L72.6184 86.8963C71.4922 85.9813 72.1256 84.1512 73.5334 84.0808L91.8341 83.377C92.1861 83.377 92.6084 83.5177 92.8899 83.7289L115.695 102.17C116.822 103.085 116.259 104.915 114.78 104.986Z" fill="#333333"/>
<path d="M109.079 101.114L96.0574 101.607C95.7758 101.607 95.4943 101.537 95.2831 101.326L79.094 88.2336C78.3198 87.6001 78.7421 86.2627 79.7275 86.2627L92.7492 85.77C93.0307 85.77 93.3123 85.8404 93.5234 86.0516L109.713 99.1436C110.487 99.7771 110.064 101.044 109.079 101.114Z" fill="#FFF9EF"/>
<path d="M82.1912 90.979C88.5965 100.341 87.7518 104.423 82.1912 99.9886C77.8272 96.5396 79.0942 86.4742 82.1912 90.979Z" fill="#D9E3FB"/>
<path d="M87.259 94.6386C93.6643 104 87.7517 107.942 85.2882 102.944C82.8246 98.0172 84.2324 90.1338 87.259 94.6386Z" fill="#D9E3FB"/>
<path d="M90.9192 96.9616C95.1425 107.449 91.4119 110.265 88.9484 105.267C86.4848 100.34 89.0891 92.3864 90.9192 96.9616Z" fill="#D9E3FB"/>
<path d="M141.246 121.667C139.486 119.697 137.727 117.726 135.967 115.755C135.685 115.403 135.193 115.896 135.474 116.248C137.234 118.218 138.994 120.189 140.753 122.16C141.035 122.442 141.528 121.949 141.246 121.667Z" fill="#D9E3FB"/>
<path d="M89.7225 104.001C89.0891 101.748 88.7371 99.496 88.7371 97.1732C88.7371 96.7509 88.1036 96.7509 88.1036 97.1732C88.1036 99.5664 88.3852 101.889 89.0891 104.212C89.2298 104.634 89.8633 104.423 89.7225 104.001Z" fill="#B3C7F8"/>
<path d="M92.2001 88H84.3167C83.8944 88 83.8944 88.6335 84.3167 88.6335H92.2001C92.6225 88.6335 92.6225 88 92.2001 88Z" fill="#B3C7F8"/>
<path d="M94.2001 90H86.3167C85.8944 90 85.8944 90.6335 86.3167 90.6335H94.2001C94.6225 90.6335 94.6225 90 94.2001 90Z" fill="#B3C7F8"/>
<path d="M96.2001 92H88.3167C87.8944 92 87.8944 92.6335 88.3167 92.6335H96.2001C96.6225 92.6335 96.6225 92 96.2001 92Z" fill="#B3C7F8"/>
<path d="M98.2001 94H90.3167C89.8944 94 89.8944 94.6335 90.3167 94.6335H98.2001C98.6225 94.6335 98.6225 94 98.2001 94Z" fill="#B3C7F8"/>
<path d="M101.2 96H93.3167C92.8944 96 92.8944 96.6335 93.3167 96.6335H101.2C101.622 96.6335 101.622 96 101.2 96Z" fill="#B3C7F8"/>
<path d="M85.429 101.959C84.7955 99.425 84.5843 96.9614 84.7251 94.3571C84.7251 93.9347 84.0916 93.8643 84.0916 94.2867C83.9508 96.891 84.162 99.4953 84.7955 102.029C84.8659 102.522 85.4994 102.381 85.429 101.959Z" fill="#B3C7F8"/>
<path d="M115.907 96.1876C107.671 84.9961 101.407 83.3771 95.1424 87.6004C91.5527 90.0639 93.5939 91.4717 96.339 90.4863C98.9433 89.5712 101.337 90.9086 102.744 92.1756C106.052 95.1318 114.429 101.044 114.429 101.044L115.907 96.1876Z" fill="#D9E3FB"/>
<path d="M111.191 95.9058C107.531 96.1169 104.222 94.2165 102.463 91.0491C102.252 90.6971 101.688 90.9787 101.9 91.401C103.73 94.7796 107.319 96.8208 111.191 96.6097C111.613 96.5393 111.613 95.9058 111.191 95.9058Z" fill="#B3C7F8"/>
<path d="M230.779 164.111H161.096C160.462 147.5 157.717 122.02 155.465 101.185C152.438 72.8891 154.127 65.8504 172.006 63.3165C174.751 62.9645 177.848 62.683 181.437 62.4014C185.661 62.1199 189.462 61.8383 192.911 61.6272C199.527 61.2752 204.665 61.2752 208.748 62.683C218.743 66.132 222.262 77.8866 225.922 112.376C226.274 115.544 226.626 118.852 226.908 122.371C228.245 135.956 229.16 146.303 229.934 154.257C230.286 158.058 230.568 161.296 230.779 164.111Z" fill="#80A1F3"/>
<path d="M155.887 85.2069C155.887 84.7846 155.183 84.7846 155.253 85.2069C155.887 94.4276 156.52 103.648 157.224 112.869C157.224 113.291 157.928 113.291 157.858 112.869C157.224 103.648 156.591 94.4276 155.887 85.2069Z" fill="#D9E3FB"/>
<path d="M190.377 121.879C185.872 131.593 181.438 141.236 176.933 150.949C176.722 151.301 177.355 151.653 177.496 151.301C182.001 141.588 186.435 131.945 190.94 122.231C191.151 121.809 190.517 121.457 190.377 121.879Z" fill="#D9E3FB"/>
<path d="M190.165 133.634C189.18 136.449 188.124 139.194 187.139 142.01C186.998 142.432 187.632 142.573 187.772 142.151C188.758 139.335 189.814 136.59 190.799 133.774C190.94 133.423 190.306 133.211 190.165 133.634Z" fill="#D9E3FB"/>
<path d="M192.84 61.5571C190.588 74.0157 175.384 74.3676 172.006 63.2464C174.751 62.8945 177.848 62.6129 181.438 62.3314C185.661 62.1202 189.462 61.7683 192.84 61.5571Z" fill="#D9E3FB"/>
<path d="M231.975 119.626C232.327 120.049 232.609 120.541 232.891 121.034C232.539 120.26 232.539 120.19 232.82 120.893C233.031 121.386 233.242 121.879 233.454 122.442C233.313 121.597 233.313 121.527 233.454 122.372C233.946 125.187 233.665 124.976 233.383 127.369C233.102 129.903 232.75 132.507 232.398 135.041C231.694 140.18 231.06 145.388 230.357 150.527C229.23 159.395 229.16 158.34 227.963 167.208C235.284 168.757 242.674 169.953 250.065 171.009C251.262 161.789 251.402 162.492 252.599 153.272C253.303 147.711 254.077 142.08 254.781 136.519C255.555 130.818 256.611 124.906 255.555 119.204C253.444 107.942 244.645 100.059 237.466 91.7531L215.927 67.1175C212.056 62.6831 205.369 60.501 200.301 64.5131C195.937 67.9621 193.544 75.4232 197.697 80.1391C204.454 87.8817 211.211 95.554 217.968 103.297C221.206 107.027 224.444 110.687 227.682 114.418C229.16 116.037 230.638 117.796 231.975 119.626Z" fill="#80A1F3"/>
<path d="M225.007 110.546C218.602 103.296 212.197 96.1166 205.791 88.8667C205.51 88.5147 205.017 89.0075 205.299 89.3594C211.704 96.6093 218.109 103.789 224.514 111.039C224.866 111.32 225.289 110.898 225.007 110.546Z" fill="#D9E3FB"/>
<path d="M234.861 115.332L233.735 124.131C233.665 124.553 234.369 124.553 234.369 124.131L235.495 115.332C235.565 114.91 234.932 114.91 234.861 115.332Z" fill="#D9E3FB"/>
</g>
</svg>
