<svg width="327" height="164" viewBox="0 0 327 164" fill="none" xmlns="http://www.w3.org/2000/svg">
<mask id="mask0" mask-type="alpha" maskUnits="userSpaceOnUse" x="0" y="0" width="327" height="164">
<rect width="327" height="164" fill="#FCF2DC"/>
</mask>
<g mask="url(#mask0)">
<rect width="327" height="164" fill="#FCF2DC"/>
<path d="M208.433 14.125H117.625C112.157 14.1315 106.915 16.3066 103.048 20.1732C99.1816 24.0397 97.0065 29.2819 97 34.75V183.25C97 188.72 99.173 193.966 103.041 197.834C106.909 201.702 112.155 203.875 117.625 203.875H208.433C213.903 203.875 219.149 201.702 223.017 197.834C226.885 193.966 229.058 188.72 229.058 183.25V34.75C229.058 32.0415 228.524 29.3595 227.488 26.8572C226.451 24.3548 224.932 22.0811 223.017 20.1659C221.102 18.2507 218.828 16.7315 216.326 15.695C213.823 14.6585 211.141 14.125 208.433 14.125Z" fill="#333333"/>
<path d="M220.866 166.75C220.866 167.844 220.431 168.893 219.657 169.667C218.884 170.44 217.835 170.875 216.741 170.875H109.433C108.339 170.875 107.29 170.44 106.516 169.667C105.742 168.893 105.308 167.844 105.308 166.75L105.337 43C105.337 41.906 105.771 40.8568 106.545 40.0832C107.319 39.3096 108.368 38.875 109.462 38.875H216.741C217.835 38.875 218.884 39.3096 219.657 40.0832C220.431 40.8568 220.866 41.906 220.866 43V166.75Z" fill="#FFF9EF"/>
<rect x="135" y="61" width="73" height="8" rx="4" fill="#B3C7F8"/>
<rect x="135" y="84" width="73" height="8" rx="4" fill="#B3C7F8"/>
<rect x="135" y="109" width="73" height="8" rx="4" fill="#B3C7F8"/>
<rect x="135" y="134" width="73" height="8" rx="4" fill="#B3C7F8"/>
<path d="M119.5 67.0859L124.797 61.7891L125.5 62.4922L119.5 68.4922L116.711 65.7031L117.414 65L119.5 67.0859Z" fill="#80A1F3"/>
<path d="M119.5 90.0859L124.797 84.7891L125.5 85.4922L119.5 91.4922L116.711 88.7031L117.414 88L119.5 90.0859Z" fill="#80A1F3"/>
<path d="M119.5 115.086L124.797 109.789L125.5 110.492L119.5 116.492L116.711 113.703L117.414 113L119.5 115.086Z" fill="#80A1F3"/>
<path d="M119.5 140.086L124.797 134.789L125.5 135.492L119.5 141.492L116.711 138.703L117.414 138L119.5 140.086Z" fill="#80A1F3"/>
</g>
</svg>
