<svg width="327" height="164" viewBox="0 0 327 164" fill="none" xmlns="http://www.w3.org/2000/svg">
<mask id="mask0" mask-type="alpha" maskUnits="userSpaceOnUse" x="0" y="0" width="327" height="164">
<rect width="327" height="164" fill="#FCF2DC"/>
</mask>
<g mask="url(#mask0)">
<rect width="327" height="164" fill="#FCF2DC"/>
<path d="M132.5 65.6881L128.2 59.4881C127.5 58.4881 126.1 57.9881 125 58.6881C124 59.2881 123.4 60.8881 124.2 61.8881C125.6 63.9881 127.1 66.0881 128.5 68.0881C129.2 69.0881 130.6 69.5881 131.7 68.8881C132.7 68.2881 133.2 66.7881 132.5 65.6881Z" fill="#D9E3FB"/>
<path d="M194 125.988L161.7 79.3882C157.7 73.6882 150.9 70.5882 144.3 74.0882C138.7 77.0882 135 85.7882 139 91.4882C149.8 106.988 160.5 122.588 171.3 138.088C175.3 143.788 182.1 146.888 188.7 143.388C194.3 140.488 197.9 131.788 194 125.988Z" fill="#D9E3FB"/>
<path d="M194 125.988L179.6 105.188C173.8 111.488 168.3 118.088 162.4 124.388C162.2 124.588 162.1 124.588 161.9 124.588L171.3 138.088C175.3 143.788 182.1 146.888 188.7 143.388C194.3 140.488 197.9 131.788 194 125.988Z" fill="#333333"/>
<path d="M156.3 83.6881H138.4C138 83.6881 137.6 83.4881 137.4 83.0881L125.7 56.7881C125.4 56.0881 125.9 55.2881 126.7 55.2881H144.6C145 55.2881 145.4 55.4881 145.6 55.8881L157.3 82.1881C157.6 82.8881 157.1 83.6881 156.3 83.6881Z" fill="#333333"/>
<path d="M154.1 80.4879H139.3C139 80.4879 138.6 80.2879 138.5 79.9879L136.9 76.2879L128.9 58.2879C128.6 57.6879 129.1 57.0879 129.7 57.0879H144.5C144.9 57.0879 145.2 57.2879 145.3 57.5879L154 77.0879L155 79.2879C155.1 79.7879 154.7 80.4879 154.1 80.4879Z" fill="#FFF9EF"/>
<path d="M140.697 62.2988L137.708 73.5895C137.61 73.9593 137.876 74.3571 138.194 74.3086L148.748 72.9703C149.1 72.9166 149.246 72.4142 148.992 72.098L141.41 62.1482C141.21 61.8447 140.794 61.929 140.697 62.2988Z" fill="#FF6B57"/>
<path d="M147.41 71.9429L139.192 72.9875C139.041 73.0105 138.892 72.9289 138.803 72.7963C138.711 72.6433 138.666 72.4623 138.712 72.3092L141.04 63.5409C141.082 63.3675 141.201 63.245 141.351 63.2221C141.502 63.1991 141.648 63.2603 141.754 63.3903L147.643 71.114C147.751 71.2645 147.799 71.466 147.741 71.6419C147.695 71.795 147.577 71.9174 147.41 71.9429ZM141.217 63.5766L138.888 72.3449C138.87 72.452 138.886 72.554 138.935 72.6509C139.001 72.7453 139.074 72.7759 139.174 72.7606L147.375 71.7185C147.476 71.7032 147.55 71.6292 147.585 71.5195C147.619 71.4099 147.601 71.2875 147.518 71.1957L141.629 63.4719C141.567 63.398 141.474 63.3495 141.39 63.3623C141.309 63.3955 141.235 63.4695 141.217 63.5766Z" fill="white"/>
<path d="M142.425 65.7718C142.302 65.1852 141.529 65.2823 141.655 65.8892C141.897 67.0215 142.104 68.1589 142.282 69.3218C142.375 69.9339 143.145 69.8164 143.052 69.2044C142.878 68.0619 142.667 66.9041 142.425 65.7718Z" fill="white"/>
<path d="M142.845 70.0925C142.647 70.1435 142.491 70.3552 142.531 70.6204L142.584 70.9673C142.621 71.2121 142.84 71.4084 143.041 71.3778C143.238 71.3267 143.395 71.115 143.354 70.8498L143.301 70.503C143.261 70.2378 143.059 70.0389 142.845 70.0925Z" fill="white"/>
<path d="M161.4 85.0881C162.1 74.0881 160.2 68.2882 153.8 65.3882C147.4 62.3882 151.9 70.2882 155.4 75.3882C159.2 80.9882 157.8 86.5881 157.8 86.5881L161.4 85.0881Z" fill="#D9E3FB"/>
<path d="M140.6 85.6883C138.4 82.6883 138.4 79.8883 139 76.1883C139.6 72.6883 136.6 71.9883 135.2 73.8883C135.3 72.6883 135.5 71.5883 136 70.4883C137 68.3883 134.7 66.4883 133.1 66.9883C133.2 66.6883 133.3 66.2883 133.4 65.8883C134.4 63.0883 129.9 61.7883 128.9 64.6883C127.8 67.7883 127.7 70.9883 128.6 74.0883C128.9 75.1883 129.8 75.6883 130.6 75.7883C130.8 77.2883 131.2 78.7883 131.8 80.1883C132.3 81.1883 133.1 81.4883 133.9 81.3883C134.2 83.7883 135 86.0883 136.5 87.9883C138.3 90.4883 142.4 88.1883 140.6 85.6883Z" fill="#D9E3FB"/>
<path d="M135.7 84.088C134.7 80.688 134.7 77.388 135.7 73.988C135.9 73.288 134.8 72.988 134.6 73.688C133.5 77.288 133.6 80.888 134.6 84.388C134.8 85.088 136 84.788 135.7 84.088Z" fill="#80A1F3"/>
<path d="M132.2 66.7881C130.5 69.8881 129.7 73.2881 129.8 76.8881C129.8 77.6881 131 77.6881 131 76.8881C130.8 73.4881 131.6 70.2881 133.2 67.3881C133.6 66.6881 132.6 66.0881 132.2 66.7881Z" fill="#80A1F3"/>
<path d="M153.1 89.0882C151.9 85.6882 148.3 83.8882 144.9 85.2882C144.2 85.5882 144.5 86.6882 145.2 86.3882C148 85.2882 151 86.4882 152 89.2882C152.2 90.0882 153.4 89.7882 153.1 89.0882Z" fill="#80A1F3"/>
<path d="M119.9 135.188L134 157.888L181.6 158.988L183.6 137.588L119.9 135.188Z" fill="#80A1F3"/>
<path d="M128.9 136.788C123.6 131.488 112.6 130.388 107.4 136.788C88.2 160.588 69 184.288 49.8 208.088C58.6 213.188 66.5 219.488 74.4 225.888C92.6 203.388 110.8 180.888 129 158.388C134.1 151.888 135.2 142.988 128.9 136.788Z" fill="#80A1F3"/>
<path d="M227.1 150.888C222.9 145.088 207.5 141.588 202.2 144.788C197.7 147.388 195.5 151.488 195 155.888C191.7 155.788 188.3 155.388 185 155.088L161.2 153.188L112.4 149.288C102.4 148.488 95.3 159.688 97.7 168.588C105.9 198.488 112.5 228.888 117.4 259.488H148C148 258.888 147.9 258.288 147.8 257.788C143.8 232.088 138.7 206.688 132.5 181.488C148.1 182.688 163.7 183.988 179.3 185.188C190.5 186.088 202.6 188.188 213.1 182.688C216.7 180.788 219.2 178.188 221.3 174.488C222.6 166.388 224.4 158.488 227.1 150.888Z" fill="#80A1F3"/>
<path d="M131.4 150.188C124 160.288 112.5 176.788 105.1 186.788C104.7 187.388 105.7 187.988 106.1 187.388C113.5 177.288 125 160.788 132.4 150.788C132.9 150.188 131.9 149.588 131.4 150.188Z" fill="#333333"/>
<path d="M154.5 147.088C145.3 150.488 136 153.788 126.8 157.188C126.1 157.488 126.4 158.588 127.1 158.288C136.3 154.888 145.6 151.588 154.8 148.188C155.5 147.988 155.2 146.888 154.5 147.088Z" fill="#333333"/>
<path d="M222.4 67.6878C188.7 69.3878 197.1 66.4878 182.8 116.288C168.5 166.088 162.7 176.588 162.7 176.588L221.2 174.788C221.2 174.788 232.9 144.688 238.7 108.588C244.5 72.3878 245.1 66.4878 222.4 67.6878Z" fill="#333333"/>
<path d="M188.3 124.788C188.4 124.788 188.4 124.788 188.3 124.788C188.4 124.688 188.4 124.688 188.4 124.588L188.5 124.488C187.6 124.088 186.6 123.688 185.7 123.188C185 122.888 184.4 123.888 185.1 124.188C186 124.588 187 124.988 187.9 125.488C188 125.288 188.1 125.088 188.3 124.788Z" fill="#FCF2DC"/>
<path d="M202.9 101.788C201.5 101.188 200 100.488 198.6 99.8875C197.9 99.5875 197.3 100.588 198 100.888C199.4 101.488 200.9 102.188 202.3 102.788C203 103.088 203.6 102.088 202.9 101.788Z" fill="#FCF2DC"/>
<path d="M207.9 73.9879C200.2 86.4879 193.4 99.3879 187.3 112.688C187 113.388 188 113.988 188.3 113.288C194.3 99.9879 201.2 87.0879 208.9 74.5879C209.4 73.8879 208.3 73.3879 207.9 73.9879Z" fill="#FCF2DC"/>
<path d="M184.1 113.188C183.5 115.888 182.9 118.688 182.3 121.388C182.1 122.088 183.3 122.388 183.4 121.688C184 118.988 184.6 116.188 185.2 113.488C185.4 112.788 184.3 112.488 184.1 113.188Z" fill="#80A1F3"/>
<path d="M140.9 113.288C134.7 109.788 119.6 104.888 120.2 113.388C120.7 121.788 140.9 113.288 140.9 113.288Z" fill="#D9E3FB"/>
<path d="M128.6 116.888C127.4 112.088 122.5 108.988 117.7 109.988C116.2 110.288 116.8 112.488 118.3 112.288C121.9 111.588 125.5 114.088 126.3 117.588C126.7 118.988 128.9 118.388 128.6 116.888Z" fill="white"/>
<path d="M109 131.688H103.5C97.7 131.688 93 126.988 93 121.188V107.688C93 106.688 93.8 105.888 94.8 105.888H117.8C118.8 105.888 119.6 106.688 119.6 107.688V121.188C119.5 126.988 114.8 131.688 109 131.688Z" fill="#80A1F3"/>
<path d="M95.2 113.388V122.388C95.2 123.188 96.3999 123.188 96.3999 122.388V113.388C96.2999 112.588 95.2 112.588 95.2 113.388Z" fill="#FCF2DC"/>
<path d="M114.3 90.588C111.7 88.588 108.4 90.488 105.6 90.888C97.5999 92.188 101 82.188 100.4 77.988C100.1 75.688 98.5 73.188 96 72.788C93 72.288 91.6 75.088 91.2 77.588C90.5 82.288 90.2 86.988 89.7 91.688C89.4 94.688 89.2999 97.788 92.3999 99.488C95.7999 101.288 99.4 99.788 102.7 98.488C103.3 98.188 105.5 97.088 106.3 97.488C106.8 97.688 107.3 99.888 107.3 100.188C107.2 100.688 106.8 101.088 106.6 101.588C106.5 101.788 106.4 102.088 106.4 102.288C106.2 102.388 106.1 102.588 105.9 102.688C105.4 103.088 106 103.788 106.5 103.688C106.6 103.888 106.6 103.988 106.7 104.188C106.8 104.388 107.1 104.588 107.4 104.488C109.3 103.788 110.5 102.588 111.2 100.588V100.488C112.8 99.488 114.3 98.288 115.2 96.588C116.2 94.588 116.3 91.988 114.3 90.588ZM107.9 102.588C108.4 102.188 109 101.788 109.6 101.488C109.3 102.188 108.7 102.488 107.9 102.588Z" fill="#FFF9EF"/>
<path d="M171.2 123.388C168 122.288 164.7 121.288 161.5 120.188C152.1 117.088 153.4 117.688 144 114.588C142.5 114.088 140.5 113.588 138.2 113.188C132.3 113.788 126.4 114.288 120.5 113.688C120.4 113.688 120.3 113.688 120.2 113.588C118.3 114.288 116.8 115.388 116.1 116.888C113.4 122.588 126.3 135.588 132.9 137.788C143.7 141.288 143.7 141.188 154.5 144.688C160 146.488 165.5 148.288 171.1 150.088C172.3 150.488 173.5 150.788 174.7 150.888C173 141.988 172.2 132.588 171.2 123.388Z" fill="#D9E3FB"/>
<path d="M190.1 128.288C183.9 126.588 177.6 125.388 171.2 124.188C170.5 124.088 170.2 123.588 170.1 123.088C167.7 122.288 165.3 121.488 162.9 120.688C160.6 128.888 157.7 136.888 155.4 145.088C160.6 146.788 165.9 148.488 171.1 150.288C176.9 152.188 182.2 151.588 186.5 146.988C189.3 144.088 192 141.088 194.8 138.188C193.4 134.688 191.8 131.288 190.1 128.288Z" fill="#333333"/>
<path d="M189.1 127.788L170.1 122.988C169.4 122.788 169.2 123.988 169.9 124.188L188.9 128.988C189.6 129.188 189.8 127.988 189.1 127.788Z" fill="#80A1F3"/>
<path d="M237.3 101.088C227.7 114.388 218.2 127.788 208.4 140.888C203.8 147.088 198.5 151.888 190.4 152.588C182 153.288 173.8 151.188 166.2 147.988C165.5 147.688 165 148.788 165.7 149.088C172.9 152.088 180.6 154.088 188.6 153.888C195.7 153.788 201.6 150.788 206.2 145.488C211.9 138.888 216.7 131.288 221.8 124.288C227.2 116.788 232.6 109.388 238 101.888C238.6 101.288 237.7 100.488 237.3 101.088Z" fill="#80A1F3"/>
<path d="M130.3 113.788C126.9 113.988 123.5 114.288 120.2 113.288C119.9 113.288 119.6 113.388 119.3 113.388C119.2 113.388 119.2 113.388 119.1 113.388C118.5 113.488 117.4 113.688 115.8 113.788C107.3 114.688 116.3 124.588 118.1 131.988C120 139.488 124.6 135.388 132.9 137.688C141.2 139.988 144 114.388 144 114.388C142.9 113.988 141.9 113.588 140.9 113.088C137.4 113.688 133.8 113.688 130.3 113.788Z" fill="#D9E3FB"/>
<path d="M131.6 113.588C128.7 113.488 125.9 113.388 123 113.288C122.2 113.288 122.2 114.388 123 114.488C125.9 114.588 128.7 114.688 131.6 114.788C132.4 114.788 132.4 113.688 131.6 113.588Z" fill="#80A1F3"/>
<path d="M121.7 120.588C119.2 121.288 116.5 120.788 114.5 119.188C113.9 118.688 113.1 119.588 113.7 119.988C116.1 121.888 119.1 122.588 122.1 121.688C122.8 121.588 122.5 120.388 121.7 120.588Z" fill="#80A1F3"/>
<path d="M122.8 127.288C121 126.888 119.1 126.588 117.3 126.188C116.6 126.088 116.2 127.188 117 127.288C118.8 127.688 120.7 127.988 122.5 128.388C123.2 128.588 123.6 127.388 122.8 127.288Z" fill="#80A1F3"/>
<path d="M125.3 132.288C123.2 132.488 121.3 132.188 119.4 131.288C118.7 130.988 118.3 132.088 118.9 132.388C120.9 133.388 123.1 133.788 125.4 133.488C126.2 133.388 126 132.188 125.3 132.288Z" fill="#80A1F3"/>
<path d="M223.8 81.7882C211.2 96.9882 198.6 112.188 186 127.388C185.5 127.988 186.4 128.688 186.9 128.188C199.5 112.988 212.1 97.7882 224.7 82.5882C225.1 81.9882 224.2 81.1882 223.8 81.7882Z" fill="#80A1F3"/>
<path d="M212.3 21.2882C198.8 19.0882 197 21.2882 198.2 31.4882C199.2 39.4882 212.3 21.2882 212.3 21.2882Z" fill="#80A1F3"/>
<path d="M216.4 50.288L222.9 66.788C218.7 68.788 214.4 70.488 210.2 72.288C208.1 66.988 206 61.688 204 56.388C200.6 48.088 213.1 41.988 216.4 50.288Z" fill="#D9E3FB"/>
<path d="M210.3 46.3882C206.1 46.7882 201.8 51.1882 203.9 56.3882C205 59.2882 206.2 62.1882 207.3 65.0882C210.7 59.5882 212.6 52.2882 210.3 46.3882Z" fill="#80A1F3"/>
<path d="M197 38.3879C196.4 42.9879 193.3 48.7878 194.4 53.7878C195.5 58.3878 202.1 58.3879 209.4 55.9879C212.3 55.0879 215.2 53.4879 217.6 51.1879C220 48.8879 221.4 45.5879 222.3 41.5879C226 25.1879 224.7 20.5879 209.7 20.0879C201 19.9879 198.4 27.8879 197 38.3879Z" fill="#D9E3FB"/>
<path d="M217.6 51.2881C215.6 44.3881 210.8 37.6881 212.8 30.2881C213 29.5881 212.4 28.6881 211.8 28.3881C206.2 26.3881 207.2 24.7881 201.4 24.0881C202.6 21.0881 205.9 20.1881 209.7 20.2881C224.7 20.6881 226.5 25.5881 222.8 41.9881C222 45.8881 220.1 48.8881 217.6 51.2881Z" fill="#80A1F3"/>
<path d="M202.7 31.0882C202.8 32.2882 202.8 33.3882 202.9 34.5882C202.9 35.2882 201.9 35.4882 201.8 34.7882C201.7 33.5882 201.7 32.4882 201.6 31.2882C201.6 30.4882 202.6 30.3882 202.7 31.0882Z" fill="#333333"/>
<path d="M211.4 32.588C219.9 31.288 224 43.088 209.6 44.988L211.4 32.588Z" fill="#D9E3FB"/>
<path d="M211.5 38.6881C212.9 37.5881 214.3 36.6881 215.9 35.9881C216.5 35.6881 216.9 36.6881 216.3 36.9881C214.8 37.6881 213.4 38.4881 212.1 39.5881C211.6 39.9881 210.9 39.0881 211.5 38.6881Z" fill="#333333"/>
<path d="M203.1 27.488C203.6 27.688 204.2 27.888 204.7 28.088C205.3 28.288 205 29.388 204.4 29.088C203.9 28.888 203.3 28.688 202.8 28.488C202.1 28.288 202.4 27.188 203.1 27.488Z" fill="#333333"/>
<path d="M198.8 41.0878C197.5 40.4878 196.2 39.8878 194.9 39.1878L199.2 33.4878C199.6 32.8878 198.8 32.2878 198.4 32.7878C196.8 34.8878 195.3 36.9878 193.7 38.9878C193.5 39.2878 193.6 39.6878 193.9 39.7878C195.4 40.4878 196.9 41.1878 198.4 41.9878C198.9 42.3878 199.4 41.3878 198.8 41.0878Z" fill="#333333"/>
<path d="M234 63.188C233.8 62.288 235.2 61.888 235.4 62.788C235.7 64.488 236.1 66.088 236.7 67.588C238.1 67.288 239.6 67.088 241 66.988C240.3 66.088 239.8 65.088 239.5 63.888C238.4 60.288 238.9 55.988 236.2 52.988C233.8 50.288 230 49.788 228 46.688C225.8 43.288 225.1 38.988 224.7 34.988C224.6 34.588 224.5 34.188 224.4 33.688C224.3 38.188 214.9 43.588 214.9 43.588C214.9 43.588 213.3 51.788 214.9 59.588C216.5 67.388 212.2 75.588 212.2 75.588C212.2 75.588 222 73.988 232.1 69.388C233.2 68.888 234.3 68.488 235.4 68.188C234.6 66.488 234.3 64.888 234 63.188Z" fill="#80A1F3"/>
<path d="M219.1 25.588C224.7 18.388 232.6 16.888 233.9 22.088C237 34.188 226.7 22.588 223.8 28.688C220.9 34.788 216.3 29.088 219.1 25.588Z" fill="#80A1F3"/>
<path d="M233.5 116.688C231.5 135.988 229.5 155.288 227.4 174.588C213.4 174.488 199.5 174.488 185.5 174.388C174.8 174.288 164 174.188 153.3 174.188C146.6 174.188 139.2 174.388 134 179.288C129.5 183.688 128.2 190.188 127.9 196.188C127.3 205.988 128.2 215.888 128.4 225.688C128.8 241.288 129.1 256.788 129.5 272.388C129.5 273.388 129.8 274.288 130.4 275.088V275.188C131.3 276.588 132.9 277.388 134.6 277.388L260.2 276.088C260.7 276.088 261.2 275.688 261.2 275.088V75.688V74.288C261.2 73.788 260.8 73.388 260.3 73.288C238.3 71.488 235.2 100.688 233.5 116.688Z" fill="#80A1F3"/>
</g>
</svg>
