<svg width="327" height="164" viewBox="0 0 327 164" fill="none" xmlns="http://www.w3.org/2000/svg">
<mask id="mask0" mask-type="alpha" maskUnits="userSpaceOnUse" x="0" y="0" width="327" height="164">
<rect width="327" height="164" fill="#FCF2DC"/>
</mask>
<g mask="url(#mask0)">
<rect width="327" height="164" fill="#FCF2DC"/>
<path d="M84.6749 153.914C82.5217 148.371 80.3685 142.827 78.2153 137.284C78.1237 137.055 77.7572 137.147 77.8488 137.376C80.002 142.919 82.1552 148.462 84.3084 154.006C84.4001 154.235 84.7666 154.143 84.6749 153.914Z" fill="#B3C7F8"/>
<path d="M132.824 144.385C131.954 147.547 131.129 150.753 130.259 153.915C130.213 154.144 130.58 154.281 130.625 154.006C131.496 150.845 132.32 147.638 133.191 144.477C133.282 144.248 132.916 144.111 132.824 144.385Z" fill="#B3C7F8"/>
<path d="M181.065 153.915C179.141 149.15 177.263 144.385 175.339 139.575C175.247 139.346 174.881 139.438 174.972 139.667C176.896 144.431 178.775 149.196 180.699 154.006C180.745 154.235 181.157 154.144 181.065 153.915Z" fill="#B3C7F8"/>
<path d="M178.271 153.869C177.492 152.357 176.667 150.891 175.888 149.379C175.751 149.15 175.43 149.333 175.568 149.562C176.347 151.074 177.171 152.54 177.95 154.052C178.042 154.281 178.408 154.098 178.271 153.869Z" fill="#B3C7F8"/>
<path d="M175.98 138.521C175.705 137.421 175.11 135.589 174.285 135.955C173.781 136.184 173.873 137.009 173.918 137.421C173.964 138.063 174.102 138.704 174.285 139.346C174.056 139.162 172.498 138.109 171.811 138.154C171.674 138.154 171.582 138.338 171.674 138.475C172.452 139.62 173.323 140.766 174.377 141.682C175.018 142.186 175.659 142.461 176.392 141.957C177.171 141.453 177.354 140.537 177.4 139.666C177.446 139.071 177.583 136.368 176.896 136.276C176.117 136.139 176.026 138.2 175.98 138.521Z" fill="#B3C7F8"/>
<path d="M135.298 141.453C134.519 141.865 134.199 142.873 134.015 143.057C134.015 142.782 134.565 141.224 134.199 141.132C133.832 141.041 133.145 142.278 132.916 142.644C132.87 142.232 133.145 140.949 132.778 140.949C132.366 140.949 132.275 141.362 132.229 141.682C132.091 142.369 131.633 145.851 133.008 145.76C133.603 145.714 134.244 144.889 134.565 144.477C135.023 143.881 135.71 143.011 135.756 142.232C135.848 141.82 135.71 141.224 135.298 141.453Z" fill="#B3C7F8"/>
<path d="M79.4523 135.727C78.8567 135.589 79.4523 136.826 79.4065 137.559C79.04 136.689 77.7572 135.223 77.2991 135.589C76.5203 136.231 77.3907 138.155 77.4365 138.292C77.3907 138.247 76.1538 136.735 76.0163 137.147C75.7873 137.743 78.0321 140.537 78.7193 140.766C79.9562 141.224 80.2769 139.575 80.3686 138.705C80.3686 138.109 80.3227 135.956 79.4523 135.727Z" fill="#B3C7F8"/>
<path d="M82.3844 153.09L80.5518 149.929C80.4144 149.7 80.0937 149.929 80.2312 150.112C80.8267 151.166 81.4681 152.219 82.0637 153.273C82.2011 153.502 82.5218 153.273 82.3844 153.09Z" fill="#B3C7F8"/>
<path d="M179.508 143.835C178.683 143.102 177.858 144.156 177.584 144.981C177.446 144.981 177.355 145.072 177.4 145.21C177.721 146.218 178.042 147.18 178.408 148.188C178.454 148.325 178.637 148.371 178.729 148.279C178.821 148.279 178.912 148.233 178.958 148.142C179.233 147.225 179.554 146.309 179.828 145.393C179.92 144.843 179.966 144.248 179.508 143.835Z" fill="#B3C7F8"/>
<path d="M132.32 147.409C132.229 147.455 132.137 147.501 132.046 147.547C131.771 146.722 130.992 145.256 130.167 146.126C129.755 146.585 130.03 147.272 130.213 147.776C130.442 148.463 131.038 149.929 131.358 150.387C131.587 149.379 131.908 148.417 132.32 147.409Z" fill="#B3C7F8"/>
<path d="M251.663 149.608C251.067 151.028 250.426 152.449 249.83 153.823C249.739 154.052 250.06 154.235 250.151 154.006C250.747 152.586 251.388 151.166 251.984 149.792C252.075 149.608 251.755 149.379 251.663 149.608Z" fill="#B3C7F8"/>
<path d="M196.917 79.6062C193.022 74.9333 188.579 69.7107 184.639 65.0836C186.425 63.7092 188.258 62.3806 190.182 61.1895C193.618 65.221 197.833 70.3062 201.269 74.3836C199.94 76.3077 198.291 77.7279 196.917 79.6062Z" fill="#80A1F3"/>
<path d="M198.016 75.987C201.315 73.4673 207.362 68.5653 210.523 65.9082C213.822 63.1136 220.968 66.5495 217.624 69.3441C213.547 72.7801 207.499 77.7737 203.239 80.9806C201.819 82.0801 199.116 82.1259 197.787 80.6599C197.466 80.2934 197.146 79.9727 196.871 79.6062C198.199 77.6363 196.733 77.957 198.016 75.987Z" fill="#80A1F3"/>
<path d="M190.182 61.1893C188.67 59.0361 186.471 55.5085 185.463 55.6001C184.41 55.6917 186.792 57.2036 186.746 58.4863C186.7 59.7691 182.806 54.4548 181.615 54.8671C180.378 55.2794 184.181 57.4326 183.814 57.9824C183.402 58.578 181.203 55.0504 180.287 55.6001C179.37 56.1499 182.944 58.7154 182.531 59.2652C182.119 59.8607 180.012 56.1041 179.187 57.1119C178.637 57.7991 181.111 59.6317 181.524 60.5937C181.936 61.51 179.233 57.7991 178.775 58.6696C178.317 59.54 183.173 63.3425 184.639 65.0834C186.151 66.8243 190.182 61.1893 190.182 61.1893Z" fill="#B3C7F8"/>
<path d="M186.288 67.6036C186.334 67.5578 186.334 67.5578 186.288 67.6036C186.334 67.5578 186.334 67.5578 186.288 67.6036C186.334 67.5578 186.334 67.5578 186.288 67.6036C188.029 65.8169 189.77 64.0761 191.557 62.4268C191.74 62.2435 191.969 62.5642 191.786 62.7475C190.136 64.2593 188.579 65.8628 187.021 67.4662C187.021 67.512 186.975 67.512 186.975 67.5578L186.563 67.9243C186.426 68.016 186.151 67.7411 186.288 67.6036Z" fill="#B3C7F8"/>
<path d="M191.602 62.8386C191.098 62.2431 190.64 61.6933 190.182 61.1436C188.304 62.3805 186.425 63.6633 184.639 65.0377C185.326 65.8165 186.013 66.6411 186.746 67.5115C188.166 65.7707 189.861 64.3046 191.602 62.8386Z" fill="#B3C7F8"/>
<path d="M201.864 75.3C201.727 74.8877 201.544 74.5212 201.269 74.1547C201.131 73.9256 200.765 74.1547 200.948 74.3379C201.177 74.6586 201.36 75.0251 201.498 75.3916C201.544 75.6665 201.91 75.5749 201.864 75.3Z" fill="#D9E3FB"/>
<path d="M186.838 62.7929C185.967 61.9683 185.693 60.7771 186.059 59.6318C186.151 59.4028 185.738 59.2653 185.693 59.5402C185.28 60.823 185.601 62.1973 186.563 63.1136C186.746 63.251 187.021 62.9762 186.838 62.7929Z" fill="#D9E3FB"/>
<path d="M124.349 51.7061C121.096 55.2336 116.927 59.8149 113.583 63.5258C109.964 65.0834 103.733 67.6031 100.251 68.9317C96.2197 70.5352 98.4188 76.9032 102.45 75.2997C107.398 73.3756 111.75 71.6805 116.606 69.4815C116.698 69.4357 116.744 69.3898 116.836 69.344C117.431 68.9317 117.981 68.3361 118.302 67.9238C122.7 63.0218 125.128 60.0898 129.617 55.2336C128.014 53.9051 126.09 52.943 124.349 51.7061Z" fill="#333333"/>
<path d="M126.685 58.4864C127.602 57.4785 128.564 56.4248 129.617 55.2336C127.968 53.8593 126.044 52.943 124.303 51.7061C123.57 52.5307 122.791 53.3553 121.967 54.2716C123.662 55.5543 125.128 57.0662 126.685 58.4864Z" fill="#B3C7F8"/>
<path d="M124.349 51.7059C125.311 50.5148 127.556 48.4074 129.159 48.2699C130.763 48.1325 128.381 49.1862 127.968 50.3315C127.556 51.4768 132.275 48.0867 133.42 48.499C134.565 48.9113 130.717 50.2399 130.854 50.8813C130.992 51.5226 134.245 49.4152 134.84 50.1941C135.436 50.9729 131.313 52.164 131.45 52.8054C131.587 53.4468 134.84 50.6522 135.207 51.8433C135.436 52.6222 132.55 53.63 131.862 54.2714C131.175 54.9586 134.978 53.1719 135.115 54.0882C135.252 55.0044 129.709 56.0581 127.785 57.1118C125.907 58.2113 124.349 51.7059 124.349 51.7059Z" fill="#B3C7F8"/>
<path d="M127.968 51.1103C127.922 50.8812 127.556 50.8354 127.556 51.1103C127.647 51.9349 127.647 53.3093 126.777 53.7216C126.548 53.8132 126.731 54.1797 126.96 54.0423C128.014 53.63 128.06 52.0723 127.968 51.1103Z" fill="#D9E3FB"/>
<path d="M113.537 63.7093C113.445 64.0758 113.308 64.4424 113.216 64.8089C113.125 65.0379 113.537 65.1754 113.583 64.9005C113.674 64.534 113.812 64.1675 113.904 63.801C113.995 63.5719 113.583 63.4803 113.537 63.7093Z" fill="#B3C7F8"/>
<path d="M127.006 58.532C125.403 56.9286 123.845 55.3709 122.242 53.7675C122.058 53.5842 121.783 53.8591 121.967 54.0423C123.57 55.6458 125.128 57.2034 126.731 58.8069C126.914 58.9901 127.189 58.7153 127.006 58.532Z" fill="#B3C7F8"/>
<path d="M188.533 130.917C185.051 132.474 181.34 131.238 179.783 127.71C178.225 124.228 179.508 119.601 183.035 118.181C187.433 116.394 190.64 118.456 192.198 121.938C193.756 125.419 192.015 129.359 188.533 130.917Z" fill="#4EDDBB"/>
<path d="M190.182 121.021C190.823 120.38 191.465 119.738 192.06 119.143C192.427 118.776 191.923 118.181 191.556 118.547C190.915 119.188 190.274 119.83 189.678 120.425C189.312 120.746 189.816 121.387 190.182 121.021Z" fill="#4EDDBB"/>
<path d="M191.007 130.367C190.549 129.863 190.09 129.359 189.587 128.809C189.266 128.443 188.624 128.947 188.991 129.313C189.449 129.817 189.907 130.321 190.411 130.871C190.732 131.283 191.373 130.779 191.007 130.367Z" fill="#4EDDBB"/>
<path d="M180.974 121.891C180.516 121.617 180.057 121.296 179.599 121.021C179.462 120.929 179.279 120.838 179.141 120.792C179.095 120.7 179.05 120.609 178.912 120.563C178.775 120.517 178.637 120.471 178.546 120.517C178.362 120.563 178.225 120.7 178.225 120.884C178.179 121.296 178.775 121.479 179.05 121.617C179.599 121.891 180.057 122.212 180.561 122.533C180.928 122.762 181.432 122.12 180.974 121.891Z" fill="#4EDDBB"/>
<path d="M179.828 124.502C179.095 124.502 178.408 124.686 177.767 124.915C177.309 125.098 177.629 125.831 178.088 125.648C178.683 125.419 179.324 125.281 179.966 125.281C180.47 125.281 180.332 124.502 179.828 124.502Z" fill="#4EDDBB"/>
<path d="M178.683 121.067C179.004 120.426 178.683 119.738 178.362 119.189C178.133 118.731 177.4 119.051 177.629 119.509C177.813 119.83 178.088 120.197 177.996 120.609C177.95 120.792 177.813 121.067 177.584 120.975C177.125 120.792 176.805 121.525 177.309 121.708C177.904 121.892 178.454 121.571 178.683 121.067Z" fill="#4EDDBB"/>
<path d="M192.977 118.73C192.748 118.822 192.381 118.959 192.152 118.776C192.06 118.684 192.015 118.547 192.106 118.501C192.29 118.41 192.29 118.089 192.152 117.951C192.015 117.768 191.786 117.768 191.602 117.906C191.098 118.226 191.19 118.913 191.511 119.28C191.969 119.784 192.702 119.646 193.297 119.463C193.801 119.28 193.481 118.547 192.977 118.73Z" fill="#4EDDBB"/>
<path d="M191.007 131.649C190.869 131.329 191.144 130.962 191.465 131.145C191.877 131.42 192.381 130.779 191.923 130.504C191.511 130.229 190.961 130.229 190.549 130.55C190.136 130.87 190.045 131.466 190.274 131.924C190.503 132.428 191.236 132.107 191.007 131.649Z" fill="#4EDDBB"/>
<path d="M177.309 126.61C177.721 126.335 178.087 125.877 177.95 125.373C177.813 124.869 177.217 124.594 176.759 124.915C176.576 125.052 176.576 125.327 176.713 125.464C176.851 125.602 176.988 125.648 177.171 125.556V125.602V125.648C177.08 125.785 176.942 125.922 176.805 126.014C176.621 126.152 176.621 126.426 176.759 126.564C176.896 126.747 177.125 126.747 177.309 126.61Z" fill="#4EDDBB"/>
<path d="M182.577 131.787C183.035 131.145 182.715 130.183 181.89 130.046C181.523 130 181.157 130.092 180.882 130.367C180.561 130.687 180.79 131.191 181.249 131.191C181.432 131.191 181.523 131.054 181.569 130.916C181.844 130.825 182.119 131.1 181.936 131.374C181.661 131.741 182.302 132.199 182.577 131.787Z" fill="#4EDDBB"/>
<path d="M187.983 120.655C188.029 120.425 187.983 120.242 187.754 120.151C187.571 120.059 187.296 120.151 187.25 120.38C187.204 120.563 186.975 120.7 186.792 120.609C186.517 120.471 186.563 120.059 186.7 119.876C186.975 119.463 186.334 119.005 186.059 119.418C185.647 120.013 185.692 120.929 186.38 121.296C186.929 121.617 187.8 121.342 187.983 120.655Z" fill="#788BF1"/>
<path d="M188.166 127.481C188.075 127.343 188.029 127.023 188.166 126.885C188.304 126.748 188.487 126.794 188.579 126.931C188.854 127.343 189.495 126.839 189.174 126.427C188.808 125.923 188.075 125.877 187.617 126.244C187.113 126.656 187.158 127.435 187.479 127.939C187.8 128.397 188.441 127.893 188.166 127.481Z" fill="#788BF1"/>
<path d="M182.944 126.015L184.089 125.786C184.593 125.694 184.455 124.915 183.952 125.007C183.539 125.099 183.173 125.145 182.76 125.236C182.44 124.732 181.661 124.503 181.111 124.366C180.607 124.228 180.332 124.961 180.836 125.099C181.157 125.19 182.027 125.374 182.165 125.74C182.302 126.198 181.661 126.519 181.34 126.702C180.928 126.977 181.432 127.573 181.844 127.298C182.348 126.977 182.852 126.565 182.944 126.015Z" fill="#788BF1"/>
<path d="M186.196 122.487C186.563 122.167 186.838 121.754 187.021 121.296C187.204 120.792 186.425 120.517 186.288 121.021C186.151 121.342 185.967 121.663 185.692 121.892C185.326 122.212 185.83 122.854 186.196 122.487Z" fill="#788BF1"/>
<path d="M187.937 126.152C187.846 126.06 187.754 126.014 187.708 125.877C187.617 125.373 186.838 125.51 186.929 126.014C186.975 126.335 187.159 126.656 187.479 126.839C187.892 127.068 188.35 126.426 187.937 126.152Z" fill="#788BF1"/>
<path d="M193.343 125.557C193.114 125.419 192.839 125.19 192.885 124.869C192.885 124.686 193.068 124.457 193.252 124.457C193.756 124.503 193.847 123.678 193.343 123.678C192.839 123.632 192.381 123.953 192.198 124.411C191.74 124.32 191.236 124.365 190.778 124.503C190.594 124.549 190.503 124.869 190.594 125.007C190.686 125.236 190.915 125.282 191.098 125.19C191.419 125.098 191.786 125.098 192.152 125.144C192.289 125.602 192.656 125.969 193.114 126.198C193.526 126.519 193.801 125.786 193.343 125.557Z" fill="#788BF1"/>
<path d="M189.495 117.722C189.816 117.31 189.174 116.852 188.854 117.264C188.579 117.631 187.983 117.448 187.983 116.989C188.029 116.485 187.204 116.394 187.204 116.898C187.158 117.448 187.479 117.997 188.029 118.226C188.579 118.41 189.174 118.181 189.495 117.722Z" fill="#788BF1"/>
<path d="M183.493 120.838C183.264 120.242 182.898 119.692 182.44 119.234C182.577 118.822 182.485 118.318 182.394 117.906C182.256 117.402 181.478 117.539 181.615 118.043C181.707 118.318 181.844 118.776 181.661 119.097C181.569 119.234 181.34 119.372 181.248 119.234C180.974 118.822 180.332 119.326 180.653 119.738C180.974 120.196 181.569 120.196 181.981 119.921C182.302 120.288 182.577 120.7 182.76 121.204C182.944 121.616 183.677 121.296 183.493 120.838Z" fill="#788BF1"/>
<path d="M185.83 131.466C185.738 130.917 185.28 130.458 184.73 130.413C184.181 130.367 183.631 130.733 183.493 131.237C183.31 131.741 184.089 132.016 184.226 131.512C184.364 131.1 184.959 131.1 185.051 131.558C185.143 132.108 185.922 131.97 185.83 131.466Z" fill="#788BF1"/>
<path d="M186.242 94.5414C180.974 102.971 171.17 105.674 162.695 100.406C154.219 95.137 150.279 83.3631 155.823 75.071C162.695 64.8547 172.636 64.534 181.111 69.8025C189.587 75.071 191.557 86.0661 186.242 94.5414Z" fill="#4EDDBB"/>
<path d="M155.135 90.5556C154.173 90.8763 153.257 91.2886 152.341 91.7009C151.883 91.93 152.249 92.6172 152.707 92.3881C153.578 91.9758 154.448 91.6093 155.319 91.2886C155.777 91.1512 155.594 90.3723 155.135 90.5556Z" fill="#4EDDBB"/>
<path d="M186.013 70.6725C184.822 71.7262 183.631 72.8257 182.394 73.8794C182.027 74.2001 182.531 74.7957 182.944 74.475C184.135 73.4213 185.326 72.3218 186.563 71.2681C186.929 70.9016 186.426 70.306 186.013 70.6725Z" fill="#4EDDBB"/>
<path d="M178.683 103.429C178.363 102.65 177.996 101.917 177.538 101.23C177.263 100.818 176.576 101.184 176.851 101.597C177.309 102.284 177.675 103.063 177.996 103.796C178.179 104.3 178.912 103.887 178.683 103.429Z" fill="#4EDDBB"/>
<path d="M168.055 69.6643C167.78 68.1524 167.688 66.6864 167.734 65.1746C167.734 64.6706 166.955 64.6248 166.955 65.1288C166.909 66.7322 167.047 68.2899 167.322 69.8475C167.367 70.3515 168.146 70.1682 168.055 69.6643Z" fill="#4EDDBB"/>
<path d="M168.788 64.213C168.971 63.7548 168.192 63.5258 168.009 63.9839C167.826 64.442 167.276 64.3046 167.093 63.9381C166.909 63.4799 166.176 63.8464 166.405 64.3046C166.589 64.8085 167.093 65.1292 167.642 65.0834C168.192 65.0834 168.604 64.7169 168.788 64.213Z" fill="#4EDDBB"/>
<path d="M187.662 70.6266C187.387 70.6724 186.563 70.5808 186.838 70.0768C187.067 69.6187 186.425 69.2064 186.151 69.6645C185.876 70.1227 185.967 70.6724 186.334 71.0389C186.7 71.4512 187.296 71.497 187.846 71.3596C188.35 71.268 188.166 70.535 187.662 70.6266Z" fill="#4EDDBB"/>
<path d="M152.89 92.0214C152.524 91.38 151.379 91.151 150.737 91.0593C150.233 90.9677 150.233 91.7924 150.691 91.8382C150.966 91.884 151.195 91.9298 151.424 92.0214C151.608 92.0672 152.066 92.2047 152.112 92.3879C152.157 92.5254 152.02 92.8919 151.928 93.0293C151.837 93.3042 151.699 93.5332 151.516 93.8081C151.241 94.2204 151.928 94.6786 152.203 94.2204C152.616 93.7165 153.257 92.6628 152.89 92.0214Z" fill="#4EDDBB"/>
<path d="M178.958 104.482C179.05 104.528 179.141 104.574 179.233 104.62C179.691 104.803 179.92 104.07 179.462 103.841C179.141 103.704 179.004 103.429 178.637 103.429C178.317 103.429 178.042 103.658 177.95 103.933C177.675 104.574 177.629 105.307 177.767 106.04C177.858 106.544 178.637 106.361 178.546 105.857C178.454 105.444 178.5 105.032 178.591 104.62C178.591 104.528 178.637 104.437 178.683 104.345C178.729 104.208 178.591 104.253 178.775 104.253C178.775 104.299 178.866 104.437 178.958 104.482Z" fill="#4EDDBB"/>
<path d="M190.136 88.6772C189.907 88.5856 189.724 88.4482 189.541 88.2649C189.449 88.1733 189.22 87.99 189.22 87.8526C189.22 87.7151 189.495 87.5777 189.632 87.5319C189.816 87.3945 189.999 87.3486 190.228 87.3028C190.732 87.1654 190.549 86.4324 190.045 86.524C189.449 86.6615 188.579 87.0738 188.441 87.761C188.304 88.494 189.128 89.0895 189.678 89.3644C190.182 89.5935 190.594 88.9063 190.136 88.6772Z" fill="#4EDDBB"/>
<path d="M163.565 76.3076C163.565 75.8037 163.565 75.2997 163.565 74.8416C163.565 74.3376 162.786 74.2918 162.786 74.7958C162.786 75.0706 162.786 75.3913 162.786 75.6662C162.786 75.8037 162.786 75.9411 162.786 76.0785C162.786 76.1702 162.786 76.216 162.786 76.3076C162.786 76.3992 162.786 76.3992 162.74 76.3534C162.603 76.3992 162.145 76.1702 162.007 76.1243C161.732 75.9869 161.457 75.8495 161.183 75.6662C160.77 75.3913 160.312 76.0785 160.77 76.3534C161.137 76.5825 161.549 76.8115 161.961 76.949C162.328 77.0864 162.74 77.2239 163.107 77.1322C163.473 76.949 163.565 76.6283 163.565 76.3076Z" fill="#788BF1"/>
<path d="M181.707 81.3926C181.249 81.4384 180.791 81.4384 180.378 81.3468C180.012 81.301 179.05 81.1177 178.958 80.6596C178.866 80.2473 179.325 79.6975 179.554 79.4226C179.874 79.0103 180.241 78.598 180.562 78.1399C180.836 77.7276 180.149 77.2694 179.874 77.7276C179.416 78.4606 178.179 79.5143 178.133 80.5221C178.088 80.568 178.042 80.6138 178.042 80.6596C177.95 80.6596 177.63 80.8428 177.584 80.8886C177.446 80.9803 177.263 81.0719 177.126 81.1177C176.759 81.301 176.393 81.4842 176.026 81.7133C175.568 81.9423 175.934 82.6753 176.393 82.4005C176.897 82.1256 177.4 81.8965 177.904 81.6217C178.088 81.53 178.271 81.4384 178.454 81.3468C178.775 81.6675 179.279 81.8507 179.691 81.9423C180.378 82.1256 181.066 82.1714 181.753 82.1256C182.165 82.1256 182.211 81.3468 181.707 81.3926Z" fill="#788BF1"/>
<path d="M164.298 77.5904C163.977 77.2697 163.702 76.949 163.473 76.5825C163.336 76.3992 163.153 76.3076 162.924 76.3992C162.74 76.4909 162.649 76.7657 162.74 76.949C163.015 77.3613 163.336 77.7736 163.702 78.0943C164.069 78.5066 164.664 77.9569 164.298 77.5904Z" fill="#788BF1"/>
<path d="M174.606 72.5051C174.881 72.047 174.194 71.6347 173.919 72.0928C173.735 72.4135 173.369 72.8258 172.957 72.8716C172.361 72.9174 172.269 72.1386 172.178 71.7263C172.086 71.2224 171.307 71.4056 171.399 71.9096C171.491 72.4593 171.72 73.1465 172.224 73.4672C172.132 74.0628 171.995 74.6125 171.72 75.1623C171.491 75.6204 172.178 76.0327 172.407 75.5746C172.682 74.979 172.865 74.3376 173.002 73.6504C173.644 73.6046 174.285 73.0549 174.606 72.5051Z" fill="#788BF1"/>
<path d="M169.887 87.1192C170.253 86.7527 170.666 86.432 171.032 86.0655C171.399 85.7448 170.895 85.1492 170.483 85.4699C170.07 85.8364 169.658 86.2029 169.246 86.5694C168.558 86.2487 167.688 86.6611 166.955 86.8901C166.451 87.0276 166.634 87.8064 167.138 87.6689C167.688 87.4857 168.558 87.0276 169.062 87.4399C169.658 87.898 169.566 88.7685 169.246 89.3182C168.971 89.7763 169.658 90.1887 169.933 89.7305C170.391 88.9517 170.437 87.898 169.887 87.1192Z" fill="#788BF1"/>
<path d="M178.088 94.6327C177.767 94.312 177.4 93.9914 176.942 93.9914C176.942 93.9455 176.896 93.8997 176.851 93.8539C176.759 93.7165 176.667 93.5332 176.667 93.3958C176.667 92.8918 175.843 92.846 175.889 93.35C175.889 93.7165 176.026 94.0372 176.209 94.312C175.934 94.6785 175.934 95.2283 175.98 95.6864C176.072 96.1904 176.805 96.0071 176.759 95.5032C176.713 95.3199 176.622 94.7702 176.942 94.7702C177.126 94.7702 177.355 95.045 177.492 95.1825C177.859 95.549 178.454 94.9992 178.088 94.6327Z" fill="#788BF1"/>
<path d="M163.748 90.8302C164.023 90.5096 164.252 90.143 164.527 89.8224C164.848 89.41 164.16 88.9977 163.84 89.41C163.611 89.7307 163.382 90.0514 163.107 90.3721C162.832 90.2347 162.465 90.2347 162.145 90.3263C161.641 90.4637 161.824 91.2426 162.328 91.1051C162.969 90.9219 163.473 91.4716 163.244 92.0672C163.061 92.5253 163.794 92.7544 164.023 92.2963C164.16 91.7923 164.069 91.2426 163.748 90.8302Z" fill="#788BF1"/>
<path d="M185.509 91.0133C185.326 90.83 185.097 90.601 185.051 90.3261C184.96 90.0054 185.326 89.868 185.601 89.9138C186.105 90.0512 186.334 89.2724 185.83 89.135C185.326 88.9975 184.776 89.1808 184.456 89.5931C184.41 89.5931 184.41 89.5473 184.364 89.5473C184.089 89.5015 183.768 89.4557 183.494 89.3182C183.31 89.2266 183.081 89.2724 182.944 89.4557C182.852 89.6389 182.898 89.9138 183.081 90.0054C183.448 90.1887 183.86 90.3261 184.272 90.3261C184.318 90.7842 184.639 91.1965 184.96 91.5172C185.28 91.9296 185.876 91.3798 185.509 91.0133Z" fill="#788BF1"/>
<path d="M189.449 81.851C189.083 81.9884 188.625 81.8051 188.441 81.4386C188.258 81.0721 188.533 80.5682 188.945 80.4308C189.449 80.2933 189.266 79.5145 188.762 79.6519C187.937 79.9268 187.433 80.7973 187.662 81.6219C187.891 82.4007 188.808 82.8588 189.587 82.6298C190.136 82.4923 189.953 81.7135 189.449 81.851Z" fill="#788BF1"/>
<path d="M188.212 81.622C188.166 81.4388 187.937 81.2555 187.754 81.3471C187.388 81.4846 186.975 81.5762 186.609 81.7136C186.426 81.7594 186.242 81.9885 186.334 82.1718C186.38 82.355 186.609 82.5383 186.792 82.4466C187.159 82.3092 187.571 82.2176 187.937 82.0801C188.121 82.0343 188.258 81.8511 188.212 81.622Z" fill="#788BF1"/>
<path d="M161.824 84.3707C160.816 84.4165 159.808 84.3249 158.846 84.0958C158.342 84.0042 158.113 84.7372 158.617 84.8746C159.671 85.1037 160.724 85.2411 161.824 85.1953C162.282 85.1495 162.328 84.3707 161.824 84.3707Z" fill="#788BF1"/>
<path d="M158.663 84.3255C158.525 83.5925 157.884 82.9511 157.105 82.9969C156.601 83.0428 156.555 83.8216 157.059 83.7758C157.472 83.7758 157.838 84.0965 157.884 84.5088C157.93 85.0127 157.563 85.425 157.151 85.6541C156.693 85.929 157.059 86.6162 157.518 86.3413C158.251 85.929 158.846 85.1501 158.663 84.3255Z" fill="#788BF1"/>
<path d="M168.65 97.6564C168.696 97.6106 168.742 97.6106 168.742 97.5648L170.024 95.549C170.299 95.1367 169.612 94.6786 169.337 95.1367L168.055 97.1525C167.963 97.2899 167.963 97.3816 168.009 97.4732C167.322 97.3816 166.589 97.7939 166.222 98.3894C165.947 98.8018 166.634 99.2599 166.909 98.8018C167.138 98.4353 167.596 98.1604 168.009 98.252C168.467 98.3436 168.742 98.985 168.375 99.3057C168.009 99.6722 168.558 100.268 168.925 99.9013C169.612 99.2599 169.475 98.1146 168.65 97.6564Z" fill="#788BF1"/>
<path d="M162.099 99.2139C162.557 98.7099 163.015 98.1602 163.519 97.6563C163.84 97.2898 163.336 96.6942 162.969 97.0607C162.465 97.6104 161.961 98.1602 161.503 98.71C161.457 98.7558 161.457 98.8016 161.457 98.8016C160.954 98.6183 160.358 98.6183 159.808 98.8932C159.35 99.1223 159.717 99.8095 160.175 99.5804C161.32 98.9848 162.374 100.13 161.916 101.275C161.732 101.734 162.465 101.963 162.694 101.505C163.015 100.634 162.694 99.7636 162.099 99.2139Z" fill="#788BF1"/>
<path d="M184.272 97.4732C183.906 97.5191 183.585 97.2442 183.219 97.1067C182.898 97.0151 182.486 97.0609 182.211 97.29C181.615 97.7481 181.707 98.7102 181.844 99.3516C181.982 99.8555 182.76 99.6723 182.623 99.1683C182.531 98.8476 182.302 97.7939 182.898 97.8397C183.356 97.8856 183.677 98.2521 184.181 98.2063C184.73 98.2521 184.776 97.4274 184.272 97.4732Z" fill="#788BF1"/>
<path d="M161.778 68.4275C161.595 67.9694 160.862 68.1068 160.999 68.6107C161.274 69.4354 160.358 70.0767 159.717 69.4812C159.35 69.1605 158.755 69.6644 159.121 70.0309C159.671 70.5349 160.495 70.6723 161.137 70.26C161.732 69.8477 162.007 69.1147 161.778 68.4275Z" fill="#788BF1"/>
<path d="M161.961 70.6725C161.778 70.3518 161.549 70.0311 161.366 69.6646C161.091 69.2065 160.404 69.573 160.679 70.0311C160.862 70.3518 161.091 70.6725 161.274 71.039C161.503 71.4972 162.191 71.1306 161.961 70.6725Z" fill="#788BF1"/>
<path d="M180.195 68.29C179.691 69.1604 178.408 68.3816 178.958 67.5112C179.233 67.053 178.546 66.6865 178.271 67.0989C177.859 67.786 178.042 68.7939 178.775 69.2521C179.508 69.6644 180.47 69.3895 180.882 68.6565C181.157 68.29 180.47 67.8777 180.195 68.29Z" fill="#788BF1"/>
<path d="M167.367 126.977C163.702 132.841 156.876 134.719 151.012 131.054C145.148 127.389 142.399 119.235 146.248 113.462C151.012 106.361 157.93 106.132 163.794 109.797C169.658 113.508 171.032 121.113 167.367 126.977Z" fill="#4EDDBB"/>
<path d="M147.622 110.484C147.347 110.026 146.706 110.438 146.935 110.896C147.164 111.308 147.576 111.996 147.164 112.408C146.843 112.683 146.339 112.637 145.927 112.637C145.423 112.591 145.423 113.37 145.927 113.416C146.614 113.462 147.439 113.416 147.851 112.82C148.401 112.041 148.034 111.171 147.622 110.484Z" fill="#4EDDBB"/>
<path d="M161.274 105.674C160.816 105.903 160.175 105.536 160.129 105.032C160.083 104.528 159.258 104.528 159.35 105.032C159.396 105.445 159.579 105.765 159.854 106.04C159.717 106.636 159.579 107.231 159.442 107.827C159.35 108.331 160.083 108.514 160.221 108.056C160.358 107.506 160.45 107.002 160.587 106.452C160.954 106.544 161.366 106.544 161.732 106.361C162.145 106.178 161.732 105.49 161.274 105.674Z" fill="#4EDDBB"/>
<path d="M170.62 116.211C170.116 116.165 169.887 115.569 170.299 115.248C170.712 114.974 170.299 114.286 169.887 114.561C169.475 114.882 169.291 115.34 169.291 115.752C168.879 116.027 168.421 116.302 167.963 116.485C167.505 116.669 167.688 117.447 168.192 117.264C168.696 117.081 169.154 116.852 169.612 116.531C169.841 116.806 170.162 116.989 170.62 117.035C171.17 117.035 171.17 116.211 170.62 116.211Z" fill="#4EDDBB"/>
<path d="M163.656 132.52C163.381 131.787 162.511 131.283 161.778 131.696C161.091 132.062 160.953 133.024 161.457 133.574C161.778 133.94 162.374 133.391 162.007 133.024C161.824 132.841 161.961 132.474 162.145 132.383C162.419 132.245 162.786 132.474 162.878 132.749C163.061 133.207 163.84 133.024 163.656 132.52Z" fill="#4EDDBB"/>
<path d="M150.92 130.046C150.279 130.642 149.683 131.283 149.18 132.016C148.767 131.696 148.217 131.696 147.805 131.925C147.347 132.154 147.759 132.841 148.217 132.612C148.63 132.383 149.042 132.841 148.813 133.253C148.584 133.711 149.271 134.078 149.5 133.666C149.683 133.345 149.729 132.978 149.638 132.658C149.729 132.612 149.775 132.566 149.821 132.52C150.279 131.833 150.829 131.192 151.47 130.596C151.883 130.275 151.287 129.726 150.92 130.046Z" fill="#4EDDBB"/>
<path d="M146.568 124.594C146.11 123.953 145.24 123.907 144.507 123.999C144.278 124.045 144.186 124.319 144.232 124.503C144.278 124.732 144.507 124.823 144.736 124.778C145.102 124.732 145.652 124.732 145.927 125.007C146.156 125.236 146.156 125.556 145.927 125.74C145.515 126.06 146.11 126.61 146.477 126.289C146.981 125.923 146.935 125.098 146.568 124.594Z" fill="#788BF1"/>
<path d="M150.92 117.219C150.508 116.99 150.187 116.715 149.821 116.394C149.913 115.936 149.683 115.432 149.271 115.203C148.859 114.928 148.447 115.615 148.859 115.89C148.95 115.936 149.042 116.073 149.042 116.211C148.95 116.302 148.905 116.394 148.905 116.486C148.767 116.623 148.538 116.577 148.401 116.44C148.217 116.302 147.943 116.394 147.851 116.577C147.714 116.76 147.805 116.99 147.988 117.127C148.401 117.448 148.996 117.402 149.409 117.081C149.729 117.402 150.142 117.677 150.508 117.906C150.966 118.181 151.333 117.493 150.92 117.219Z" fill="#788BF1"/>
<path d="M159.258 111.95C159.121 112.179 158.892 112.271 158.709 112.271C158.617 112.133 158.48 112.087 158.296 112.087C158.113 111.95 158.021 111.675 158.113 111.4C158.251 110.896 157.472 110.713 157.334 111.171C157.151 111.721 157.334 112.362 157.792 112.729C157.609 113.141 157.472 113.553 157.288 113.966C157.105 114.424 157.884 114.653 158.067 114.195C158.205 113.828 158.388 113.462 158.525 113.095C159.075 113.141 159.625 112.866 159.946 112.408C160.22 111.95 159.533 111.538 159.258 111.95Z" fill="#788BF1"/>
<path d="M161.091 120.7C160.724 120.379 160.221 120.059 159.762 120.15C159.762 120.105 159.717 120.059 159.671 120.013C159.35 119.646 159.029 119.326 158.754 118.959C158.434 118.593 157.838 119.143 158.205 119.509C158.525 119.876 158.8 120.196 159.121 120.563C158.709 121.067 158.846 121.8 159.075 122.349C159.258 122.808 160.037 122.624 159.854 122.12C159.717 121.8 159.533 121.387 159.717 121.067C159.9 120.7 160.358 121.067 160.541 121.25C160.908 121.571 161.503 121.021 161.091 120.7Z" fill="#788BF1"/>
<path d="M154.631 127.16C154.585 127.16 154.585 127.114 154.631 127.114C154.86 126.565 155.089 126.061 155.318 125.511C155.41 125.328 155.227 125.099 155.044 125.007C154.815 124.961 154.631 125.099 154.54 125.282C154.311 125.832 154.082 126.336 153.852 126.885C153.807 126.977 153.852 127.069 153.898 127.16C153.44 127.298 153.074 127.71 153.028 128.214C152.982 128.718 153.761 128.718 153.807 128.214C153.852 127.939 154.265 127.802 154.494 127.939C154.815 128.076 154.906 128.535 154.86 128.855C154.769 129.359 155.548 129.588 155.639 129.084C155.777 128.351 155.502 127.389 154.631 127.16Z" fill="#788BF1"/>
<path d="M164.527 126.29C164.115 125.969 163.473 125.923 162.969 126.198L162.236 125.419C161.87 125.053 161.32 125.602 161.687 125.969C161.961 126.244 162.236 126.519 162.465 126.794C162.282 127.206 162.374 127.71 162.694 128.076C163.015 128.489 163.565 127.893 163.244 127.527C163.107 127.343 163.153 127.068 163.336 126.931C163.565 126.748 163.931 126.839 164.16 127.023C164.344 127.16 164.619 127.068 164.71 126.885C164.756 126.61 164.664 126.427 164.527 126.29Z" fill="#788BF1"/>
<path d="M166.085 116.761C165.947 116.898 165.718 116.669 165.718 116.531C165.626 116.211 165.993 115.844 166.222 115.661C166.634 115.34 166.039 114.791 165.672 115.111C165.26 115.432 164.893 116.027 164.939 116.577C164.848 116.577 164.756 116.623 164.71 116.669C164.481 116.852 164.252 117.035 164.069 117.219C163.885 117.356 163.931 117.631 164.069 117.768C164.252 117.952 164.481 117.906 164.619 117.768C164.848 117.585 165.077 117.402 165.26 117.219C165.626 117.585 166.268 117.677 166.68 117.264C167.001 116.944 166.451 116.394 166.085 116.761Z" fill="#788BF1"/>
<path d="M169.154 124.823C169.612 125.053 170.024 124.365 169.566 124.136C168.971 123.816 168.146 124.09 167.963 124.778C167.78 125.465 168.375 126.244 169.108 126.198C169.612 126.152 169.612 125.373 169.108 125.419C168.925 125.419 168.65 125.236 168.742 125.007C168.742 124.823 168.971 124.732 169.154 124.823Z" fill="#788BF1"/>
<path d="M154.998 107.231C154.952 107.002 154.677 106.91 154.494 106.956C154.265 107.002 154.173 107.231 154.219 107.46C154.265 107.873 153.761 107.964 153.578 107.643C153.303 107.231 152.616 107.598 152.89 108.056C153.165 108.514 153.761 108.789 154.311 108.56C154.86 108.331 155.089 107.781 154.998 107.231Z" fill="#788BF1"/>
<path d="M154.952 43.3681C153.211 42.5434 152.524 40.7109 153.348 39.0158C154.173 37.2749 156.372 36.3129 158.021 37.1833C160.129 38.2828 160.358 40.1612 159.533 41.902C158.709 43.5971 156.647 44.1927 154.952 43.3681Z" fill="#4EDDBB"/>
<path d="M154.815 37.3204C154.677 36.8165 153.944 37.0455 154.036 37.5495V37.5953C154.036 37.5953 153.99 37.6411 153.944 37.6869C153.944 37.6869 153.898 37.7327 153.852 37.7327C153.852 37.7327 153.852 37.7327 153.807 37.7327C153.394 37.4578 152.982 38.145 153.394 38.4199C154.127 38.7406 154.998 38.0534 154.815 37.3204Z" fill="#4EDDBB"/>
<path d="M159.579 42.9557C159.121 42.5892 158.434 42.2685 157.884 42.635C157.426 42.9557 157.243 43.5512 157.609 44.0094C157.93 44.4217 158.48 43.8261 158.159 43.4596C158.205 43.5054 158.159 43.4596 158.205 43.368C158.251 43.3222 158.296 43.2764 158.388 43.2764C158.663 43.2764 158.938 43.5054 159.167 43.6429C159.579 43.9178 159.991 43.2306 159.579 42.9557Z" fill="#4EDDBB"/>
<path d="M160.312 38.7865C160.175 38.8323 159.946 38.8323 159.854 38.649C159.762 38.5116 159.854 38.3283 159.991 38.2367C160.404 37.9618 160.037 37.2747 159.579 37.5495C159.121 37.8702 158.892 38.4658 159.167 38.9697C159.396 39.4737 160.037 39.7027 160.541 39.5195C160.999 39.382 160.816 38.6032 160.312 38.7865Z" fill="#4EDDBB"/>
<path d="M157.151 37.7333C157.105 37.5042 156.739 37.5958 156.784 37.8249C156.83 38.054 156.647 38.283 156.464 38.3288C156.235 38.3747 156.051 38.1914 155.96 37.9623C155.914 37.7333 155.502 37.8249 155.593 38.054C155.685 38.3747 155.914 38.6037 156.189 38.6953C156.235 38.8786 156.281 39.0618 156.326 39.2451C156.372 39.4742 156.784 39.3825 156.693 39.1535C156.647 39.016 156.601 38.8328 156.601 38.6953C157.014 38.6037 157.243 38.1456 157.151 37.7333Z" fill="#788BF1"/>
<path d="M155.822 40.2068C155.548 40.0694 155.227 40.0236 154.952 40.0694C154.769 39.8862 154.494 39.8403 154.265 39.8862C154.036 39.932 154.127 40.3443 154.356 40.2527C154.448 40.2068 154.54 40.2527 154.631 40.2985C154.631 40.3901 154.677 40.4359 154.769 40.4817C154.86 40.665 154.769 40.894 154.54 40.9857C154.311 41.0773 154.494 41.4438 154.723 41.3064C155.044 41.1689 155.227 40.8024 155.135 40.4359C155.273 40.4359 155.456 40.4817 155.593 40.5275C155.868 40.665 156.051 40.3443 155.822 40.2068Z" fill="#788BF1"/>
<path d="M158.159 41.0773C157.884 40.894 157.563 40.8024 157.197 40.8024L157.014 40.161C156.968 39.9319 156.555 40.0236 156.647 40.2526C156.693 40.4817 156.784 40.6649 156.83 40.894C156.83 40.9398 156.876 40.9856 156.922 41.0314C156.876 41.3063 156.83 41.5812 156.784 41.8561C156.739 42.0851 157.105 42.2226 157.151 41.9477L157.288 41.1689C157.517 41.2147 157.747 41.2605 157.93 41.398C158.205 41.5354 158.388 41.2147 158.159 41.0773Z" fill="#788BF1"/>
<path d="M159.762 40.8945C159.9 41.1236 160.221 40.8945 160.129 40.7113C159.946 40.3906 159.487 40.4822 159.35 40.8029C159.121 41.2152 159.533 41.5817 159.808 41.765C160.037 41.9024 160.22 41.5817 159.991 41.4443C159.9 41.3526 159.671 41.2152 159.671 41.0778C159.671 41.032 159.671 40.9861 159.717 40.9861C159.717 40.9403 159.717 40.8945 159.762 40.8945Z" fill="#788BF1"/>
<path d="M155.044 43.5968C154.998 43.3677 154.952 43.1845 154.952 42.9554C154.952 42.818 154.815 42.7264 154.723 42.7722C154.402 42.8638 154.127 43.0012 153.807 43.0929C153.578 43.1845 153.669 43.551 153.898 43.4594C154.127 43.3677 154.356 43.2761 154.585 43.2303C154.585 43.3677 154.631 43.551 154.677 43.6884C154.723 43.9175 155.089 43.8259 155.044 43.5968Z" fill="#788BF1"/>
<path d="M158.113 36.4502C157.838 36.9083 157.243 36.7709 157.105 36.267C157.059 36.0379 156.693 36.1295 156.739 36.3586C156.922 37.229 158.021 37.3665 158.434 36.6335C158.571 36.4502 158.25 36.2211 158.113 36.4502Z" fill="#788BF1"/>
<path d="M140.704 83.684C138.597 82.6761 137.772 80.4313 138.78 78.3697C139.788 76.2623 142.445 75.0711 144.507 76.1706C147.026 77.4992 147.347 79.8357 146.339 81.8973C145.331 83.9588 142.812 84.6919 140.704 83.684Z" fill="#4EDDBB"/>
<path d="M143.636 85.2416C143.865 85.15 143.911 84.9667 143.865 84.7376C143.728 84.0963 143.59 83.4549 143.453 82.8135C143.407 82.5844 143.132 82.4928 142.949 82.5844C142.72 82.6761 142.674 82.8593 142.72 83.0884C142.857 83.7298 142.995 84.3711 143.132 85.0125C143.178 85.2416 143.453 85.3332 143.636 85.2416Z" fill="#4EDDBB"/>
<path d="M139.284 79.8813C139.742 80.0646 140.109 79.3774 139.65 79.1483C138.963 78.8734 138.276 78.5986 137.543 78.3237C137.085 78.1404 136.718 78.8276 137.177 79.0567C137.91 79.3316 138.597 79.6064 139.284 79.8813Z" fill="#4EDDBB"/>
<path d="M145.194 79.4233C145.927 79.4233 146.66 79.4233 147.393 79.4233C147.897 79.4233 147.851 78.6445 147.347 78.6445C146.614 78.6445 145.881 78.6445 145.148 78.6445C144.644 78.6445 144.69 79.4233 145.194 79.4233Z" fill="#4EDDBB"/>
<path d="M147.76 79.9274C148.263 80.019 148.401 79.2402 147.897 79.1485C147.805 79.1485 147.76 79.0111 147.851 78.9653C148.034 78.8737 148.172 78.6904 148.08 78.4614C148.034 78.2781 147.76 78.1407 147.576 78.2323C147.21 78.3697 146.935 78.7362 146.981 79.1485C147.072 79.5151 147.393 79.8357 147.76 79.9274Z" fill="#4EDDBB"/>
<path d="M143.132 86.1581C143.224 85.9749 143.315 85.8375 143.407 85.6542C143.453 85.6084 143.499 85.5168 143.499 85.4709C143.545 85.5626 143.59 85.6542 143.682 85.7458C144.003 86.1581 144.644 85.7 144.323 85.2877C144.186 85.1044 144.14 84.8754 143.957 84.7379C143.774 84.5547 143.499 84.5089 143.27 84.6005C143.041 84.6921 142.903 84.8754 142.812 85.1044C142.674 85.3335 142.537 85.5626 142.399 85.8374C142.216 86.2956 142.903 86.6163 143.132 86.1581Z" fill="#4EDDBB"/>
<path d="M136.352 79.2403C136.764 79.2403 137.36 79.1945 137.635 78.8738C138.093 78.4615 137.589 77.9575 137.36 77.591C137.085 77.1787 136.398 77.591 136.718 78.0492C136.81 78.1408 136.856 78.2782 136.948 78.3699C136.902 78.3699 136.856 78.3699 136.81 78.4157C136.673 78.4615 136.489 78.4615 136.352 78.4615C135.802 78.4615 135.848 79.2403 136.352 79.2403Z" fill="#4EDDBB"/>
<path d="M142.399 79.1028C142.308 78.8738 142.308 78.6905 142.308 78.4614C142.308 78.4156 142.308 78.4156 142.308 78.3698C142.445 78.2324 142.537 78.0033 142.628 77.8201C142.674 77.6368 142.857 77.2703 142.72 77.0412C142.674 76.9496 142.537 76.9496 142.445 76.9954C142.445 76.9954 142.445 76.9954 142.399 76.9954C142.308 77.0412 142.308 77.1787 142.354 77.2703C142.308 77.3619 142.262 77.591 142.216 77.6368C142.17 77.8201 142.079 78.0033 141.941 78.0949C141.575 78.324 141.254 77.9117 141.025 77.6826C140.842 77.4994 140.613 77.7742 140.75 77.9575C141.025 78.2782 141.437 78.5989 141.85 78.5531C141.85 78.7821 141.895 78.9654 141.987 79.1944C142.124 79.4693 142.491 79.3319 142.399 79.1028Z" fill="#788BF1"/>
<path d="M145.285 81.8511C145.469 81.9885 145.743 81.7137 145.56 81.5762C145.423 81.4846 145.24 81.3472 145.194 81.1639C145.24 81.1181 145.24 81.0723 145.24 81.0265C145.331 80.8432 145.652 80.7974 145.789 80.7058C146.018 80.5683 145.789 80.2476 145.56 80.3851C145.331 80.5225 145.01 80.6142 144.873 80.8432C144.69 80.7974 144.507 80.7974 144.369 80.7516C144.14 80.7058 144.048 81.1181 144.277 81.1639C144.461 81.2097 144.644 81.2097 144.781 81.2555C144.873 81.4388 145.102 81.6678 145.285 81.8511Z" fill="#788BF1"/>
<path d="M141.117 82.8137C141.254 82.6763 141.437 82.5388 141.621 82.493C141.804 82.4472 142.216 82.5388 142.033 82.8137C141.895 83.0428 142.262 83.226 142.399 82.997C142.537 82.7679 142.491 82.4472 142.262 82.264C142.354 82.0807 142.445 81.8517 142.537 81.6684C142.628 81.4393 142.262 81.2561 142.17 81.4852C142.079 81.6684 141.987 81.8975 141.895 82.0807C141.529 81.9891 141.162 82.2182 140.842 82.4472C140.704 82.6305 140.933 82.9512 141.117 82.8137Z" fill="#788BF1"/>
<path d="M140.017 80.7982C140.2 80.844 140.383 80.8898 140.567 80.9815C140.796 81.0731 140.979 80.7524 140.75 80.615C140.521 80.5233 140.292 80.4317 140.063 80.3859C140.017 80.1568 139.788 79.9278 139.513 79.882C139.284 79.8362 139.192 80.2485 139.421 80.2943C139.513 80.2943 139.65 80.3859 139.65 80.5233C139.65 80.5692 139.605 80.7066 139.513 80.6608C139.284 80.5233 139.101 80.8898 139.33 81.0273C139.605 81.1189 139.88 81.0273 140.017 80.7982Z" fill="#788BF1"/>
<path d="M145.011 78.0493C145.148 77.8202 145.331 77.637 145.515 77.4537C145.789 77.5912 146.11 77.4995 146.385 77.4079C146.614 77.3163 146.477 76.9498 146.248 77.0414C146.11 77.0872 145.789 77.2247 145.652 77.0872C145.56 76.9498 145.652 76.7207 145.652 76.6291C145.744 76.4 145.331 76.3084 145.24 76.5375C145.194 76.7207 145.148 76.9498 145.194 77.1789C145.011 77.3621 144.827 77.5912 144.644 77.8202C144.552 78.0035 144.827 78.2784 145.011 78.0493Z" fill="#788BF1"/>
<path d="M142.445 74.8421C142.308 75.0253 142.17 75.2086 142.079 75.3918C142.033 75.3918 141.987 75.4377 141.987 75.4377C141.895 75.3918 141.804 75.3002 141.758 75.2086C141.666 74.9795 141.3 75.1628 141.437 75.3918C141.575 75.6667 141.758 75.8042 142.033 75.85C142.124 76.0332 142.216 76.2165 142.353 76.3997C142.537 76.583 142.812 76.3081 142.628 76.1248C142.537 75.9874 142.445 75.85 142.399 75.6667C142.537 75.4377 142.674 75.2086 142.857 75.0253C142.949 74.7963 142.583 74.613 142.445 74.8421Z" fill="#788BF1"/>
<path d="M180.012 31.2737C179.554 33.2895 179.095 35.351 178.637 37.3668C178.133 39.52 177.629 41.719 177.08 43.8722C176.622 45.7506 176.163 47.6289 175.659 49.5072C175.339 50.79 174.972 52.0728 174.652 53.3555C174.468 54.0427 174.239 54.7757 174.056 55.4629C173.323 58.0742 172.544 60.6856 171.765 63.2511C171.17 65.1294 170.574 67.0536 169.933 68.9319C169.062 71.4974 168.192 74.0171 167.276 76.5368C166.589 78.461 165.856 80.3393 165.077 82.2177C164.206 84.4167 163.29 86.6157 162.328 88.8147C161.595 90.5098 160.816 92.2049 159.991 93.8999C159.304 95.366 158.571 96.8778 157.792 98.3438C157.655 98.6645 157.472 98.9852 157.334 99.3059C156.693 100.543 156.052 101.78 155.364 103.017C154.448 104.758 153.486 106.544 152.478 108.239C151.699 109.568 150.875 110.942 150.05 112.225C149.913 112.454 149.729 112.729 149.592 112.958C148.813 114.195 147.988 115.432 147.118 116.623C146.431 117.585 145.698 118.593 144.919 119.509C144.736 119.555 144.598 119.555 144.415 119.601C143.361 119.83 142.399 119.967 141.575 120.151C139.376 120.563 137.955 120.792 137.497 120.838C137.36 120.838 137.314 120.884 137.314 120.884C137.314 120.884 137.268 120.792 137.177 120.563C138.505 120.38 139.788 119.372 140.704 118.41C141.758 117.31 142.674 116.073 143.59 114.791C143.82 114.47 144.049 114.149 144.232 113.829C144.873 112.866 145.515 111.859 146.11 110.897C146.614 110.072 147.072 109.293 147.576 108.514C148.034 107.827 148.447 107.094 148.859 106.361C149.684 104.987 150.462 103.612 151.241 102.238C152.295 100.36 153.303 98.4354 154.265 96.5571C155.089 94.9536 155.868 93.3044 156.647 91.6551C157.38 90.1433 158.067 88.5856 158.755 87.0738C159.533 85.2871 160.312 83.5004 161.045 81.6679C161.961 79.3772 162.832 77.1324 163.702 74.796C164.435 72.826 165.123 70.856 165.764 68.8861C166.543 66.5038 167.322 64.1674 168.055 61.7851C168.65 59.8151 169.246 57.8452 169.795 55.8294C170.528 53.2181 171.261 50.6067 171.949 47.9496C172.498 45.7964 173.048 43.6432 173.552 41.49C174.01 39.6116 174.468 37.7333 174.881 35.855C175.385 33.7476 175.843 31.6402 176.301 29.487C176.438 28.8914 176.576 28.3417 176.667 27.7461C177.858 28.8914 178.958 30.0367 180.012 31.2737Z" fill="#FFC741"/>
<path d="M147.118 116.669C146.431 117.631 145.698 118.639 144.919 119.555C144.736 119.601 144.598 119.601 144.415 119.647C144.14 118.043 143.865 116.44 143.545 114.836C143.774 114.516 144.003 114.195 144.186 113.874C144.827 112.912 145.469 111.904 146.064 110.942C146.477 112.867 146.797 114.745 147.118 116.669Z" fill="#2D264F"/>
<path d="M152.478 108.285C151.699 109.614 150.875 110.988 150.05 112.271C149.638 110.301 149.271 108.331 148.859 106.407C149.683 105.032 150.462 103.658 151.241 102.284C151.699 104.299 152.066 106.269 152.478 108.285Z" fill="#2D264F"/>
<path d="M157.792 98.3899C157.655 98.7105 157.472 99.0312 157.334 99.3519C156.693 100.589 156.052 101.826 155.364 103.063C154.998 100.91 154.631 98.7564 154.311 96.6032C155.135 94.9997 155.914 93.3504 156.693 91.7012C157.059 93.9002 157.426 96.145 157.792 98.3899Z" fill="#2D264F"/>
<path d="M162.328 88.8606C161.595 90.5557 160.816 92.2508 159.991 93.9458C159.579 91.6552 159.213 89.3645 158.8 87.0739C159.579 85.2872 160.358 83.5005 161.091 81.668C161.457 84.0961 161.916 86.4783 162.328 88.8606Z" fill="#2D264F"/>
<path d="M167.23 76.5829C166.543 78.507 165.81 80.3854 165.031 82.2637C164.573 79.7898 164.115 77.3159 163.656 74.842C164.389 72.872 165.077 70.9021 165.718 68.9321C166.268 71.4977 166.772 74.0174 167.23 76.5829Z" fill="#2D264F"/>
<path d="M171.719 63.2972C171.124 65.1755 170.528 67.0997 169.887 68.978C169.291 66.5957 168.65 64.2134 168.054 61.8312C168.65 59.8612 169.246 57.8913 169.795 55.8755C170.483 58.3494 171.124 60.8233 171.719 63.2972Z" fill="#2D264F"/>
<path d="M175.66 49.5076C175.339 50.7903 174.972 52.0731 174.652 53.3559C174.468 54.0431 174.239 54.7761 174.056 55.4633C173.323 52.9894 172.636 50.4697 171.995 47.9958C172.544 45.8425 173.094 43.6893 173.598 41.5361C174.239 44.2391 174.927 46.8962 175.66 49.5076Z" fill="#2D264F"/>
<path d="M178.637 37.3668C178.133 39.52 177.629 41.719 177.08 43.8722C176.393 41.2151 175.66 38.5579 174.927 35.9466C175.43 33.8392 175.889 31.7318 176.347 29.5786C177.126 32.1899 177.904 34.7555 178.637 37.3668Z" fill="#2D264F"/>
<path d="M199.161 78.9197C196.275 70.765 193.252 62.6103 190.045 54.5472C187.388 47.7669 184.547 41.0782 180.057 35.3058C179.737 34.8935 179.187 35.4891 179.508 35.8556C184.226 41.9029 187.067 49.0955 189.861 56.1965C192.839 63.8015 195.68 71.4064 198.383 79.103C198.566 79.6069 199.299 79.4237 199.161 78.9197Z" fill="white"/>
<path d="M137.177 121.159L137.131 121.021C137.131 121.021 137.085 120.929 136.993 120.7C136.215 118.547 133.099 109.43 124.99 81.3929C116.744 52.7598 116.652 31.8691 143.27 22.9356C150.554 20.4617 156.876 19.7287 162.603 20.645C164.115 20.874 165.581 21.2405 166.955 21.7445C168.1 22.111 169.2 22.6149 170.299 23.1647C171.765 23.8977 173.186 24.8139 174.56 25.8218C175.339 26.4174 176.072 27.0588 176.851 27.7002C177.996 28.7539 179.095 29.8992 180.149 31.1819C184.41 36.2672 188.166 43.1391 191.557 52.2101C203.789 84.6914 208.828 97.3816 208.874 97.4732L208.92 97.6107L208.782 97.7023C188.441 109.98 160.083 116.806 144.965 119.738C143.728 119.967 142.583 120.196 141.62 120.38C140.109 120.655 138.688 120.884 137.497 121.067C137.36 121.067 137.314 121.113 137.314 121.113L137.177 121.159ZM157.747 20.6908C153.394 20.6908 148.676 21.5612 143.407 23.3479C130.946 27.5169 123.753 34.6179 121.417 45.0633C119.447 53.7677 120.684 64.9919 125.403 81.3471C133.512 109.385 136.627 118.501 137.406 120.609C137.406 120.655 137.451 120.7 137.451 120.746C138.643 120.563 140.063 120.334 141.529 120.059C142.491 119.876 143.636 119.692 144.873 119.418C159.9 116.486 188.166 109.705 208.416 97.519C207.82 95.9614 202.643 82.9505 191.144 52.3933C187.754 43.3682 184.043 36.5421 179.783 31.5026C178.729 30.2657 177.629 29.1204 176.53 28.0667C175.797 27.3795 175.018 26.7381 174.285 26.1883C172.956 25.1804 171.536 24.31 170.07 23.577C169.017 23.0272 167.917 22.5691 166.772 22.2026C165.397 21.7445 163.977 21.378 162.465 21.1489C160.999 20.7824 159.396 20.6908 157.747 20.6908Z" fill="#E8AA17"/>
<path d="M204.934 88.403C205.071 88.3571 205.163 88.3113 205.3 88.2655C203.468 83.5468 200.948 76.9497 197.558 68.062C197.421 68.1078 197.329 68.1536 197.192 68.1995C200.582 77.0872 203.101 83.6842 204.934 88.403Z" fill="white"/>
<path d="M124.716 41.1234C121.005 49.1865 122.288 57.9826 123.754 66.4121C123.845 66.9161 124.624 66.687 124.532 66.1831C123.112 57.9826 121.784 49.3239 125.403 41.4899C125.632 41.0776 124.945 40.6653 124.716 41.1234Z" fill="white"/>
<path d="M133.878 90.4641C128.793 90.9223 137.085 113.279 139.696 115.432C142.308 117.585 143.636 116.577 140.933 107.507C138.23 98.4814 136.26 90.2351 133.878 90.4641Z" fill="white"/>
<path d="M170.391 26.2343C169.017 28.1126 174.377 32.0067 174.193 29.4412C174.01 26.8299 171.307 24.9516 170.391 26.2343Z" fill="white"/>
<path d="M208.828 97.0153C186.242 108.743 161.824 116.761 136.673 120.792C136.169 120.884 136.169 121.663 136.673 121.571C161.961 117.54 186.471 109.476 209.24 97.7025C209.698 97.4276 209.286 96.7863 208.828 97.0153Z" fill="#E8AA17"/>
<path d="M117.66 38.0544C113.491 35.7637 109.322 33.4731 105.107 31.1825C104.649 30.9534 104.191 31.5948 104.649 31.8238C108.818 34.1145 112.987 36.4051 117.202 38.6958C117.66 38.9706 118.118 38.2835 117.66 38.0544Z" fill="#E8AA17"/>
<path d="M131.083 24.9973C128.197 20.0953 125.357 15.1933 122.608 10.1997C122.379 9.74155 121.692 10.1539 121.921 10.612C124.67 15.5598 127.51 20.5076 130.396 25.4096C130.671 25.8677 131.358 25.4554 131.083 24.9973Z" fill="#E8AA17"/>
<path d="M144.094 17.713C143.545 16.2012 143.041 14.7352 142.491 13.2234C142.308 12.7652 141.575 12.9485 141.712 13.4524C142.262 14.9643 142.766 16.4303 143.315 17.9421C143.499 18.4002 144.278 18.1712 144.094 17.713Z" fill="#E8AA17"/>
<path d="M214.28 57.2496L215.562 65.0836C215.975 67.6491 212.035 68.657 211.622 66.0457C211.21 63.4344 210.752 60.823 210.34 58.2117C209.927 55.692 213.867 54.6841 214.28 57.2496Z" fill="#D9E3FB"/>
<path d="M213.409 55.967C213.409 58.1202 213.043 60.2734 211.76 61.9685C211.531 62.1517 211.302 62.3808 211.027 62.5182C210.798 61.098 210.569 59.6778 210.294 58.2118C210.065 56.3335 212.172 55.2798 213.409 55.967Z" fill="#B3C7F8"/>
<path d="M211.806 49.3698C216.158 49.0032 216.845 50.3318 216.341 55.2338C215.791 60.4107 208.736 61.3727 208.736 59.4028C208.736 54.4092 208.141 49.6904 211.806 49.3698Z" fill="#D9E3FB"/>
<path d="M215.104 58.0742C213.592 58.853 212.493 53.6762 212.813 51.4771C212.859 51.2481 212.63 51.019 212.447 50.9732C210.752 50.6067 211.164 50.79 209.469 50.7441C209.927 49.9653 210.66 49.4614 211.76 49.3698C216.112 49.0032 216.799 50.3318 216.295 55.2338C216.204 56.3791 215.745 57.3412 215.104 58.0742Z" fill="#333333"/>
<path d="M209.652 52.8513C209.698 53.2178 209.698 53.6301 209.744 53.9966C209.744 54.2715 209.378 54.3173 209.332 54.0424C209.286 53.6759 209.286 53.2636 209.24 52.8971C209.24 52.668 209.607 52.6222 209.652 52.8513Z" fill="#333333"/>
<path d="M209.149 51.5688C209.378 51.5688 209.561 51.6147 209.744 51.7063C209.973 51.8437 209.698 52.1644 209.515 52.027C209.423 51.9812 209.332 51.9354 209.194 51.9354C208.965 51.9812 208.919 51.5688 209.149 51.5688Z" fill="#333333"/>
<path d="M207.637 56.3331C208.003 55.4626 208.324 54.5922 208.69 53.7217C208.782 53.4927 209.149 53.6301 209.057 53.8592C208.736 54.6838 208.415 55.4626 208.095 56.2872C208.461 56.3789 208.874 56.4705 209.24 56.6538C209.469 56.7454 209.332 57.1119 209.103 57.0203C208.69 56.837 208.278 56.6996 207.82 56.6538C207.682 56.6079 207.591 56.4705 207.637 56.3331Z" fill="#333333"/>
<path d="M211.622 53.1261C214.05 52.4389 215.608 55.7374 211.531 56.7453L211.622 53.1261Z" fill="#D9E3FB"/>
<path d="M212.768 54.0889C212.997 54.0431 213.089 54.4096 212.814 54.5012C212.447 54.5928 212.172 54.8677 212.081 55.2342C212.035 55.4633 211.623 55.4175 211.668 55.1884C211.806 54.5928 212.218 54.1805 212.768 54.0889Z" fill="#333333"/>
<path d="M208.507 54.18C206.629 55.1421 206.308 56.4248 206.583 57.845C206.858 59.2652 208.645 60.5938 209.561 60.5938C210.477 60.5938 208.874 53.9968 208.507 54.18Z" fill="white"/>
<path d="M212.676 52.852C210.981 53.4934 209.469 54.4554 208.187 55.6924C208.003 55.8756 208.278 56.1963 208.461 56.0131C209.744 54.7761 211.21 53.8141 212.859 53.2185C213.089 53.1269 212.951 52.7604 212.676 52.852Z" fill="white"/>
<path d="M213.318 56.0127C211.897 56.9748 210.523 57.9369 209.103 58.8989C208.874 59.0364 209.149 59.3571 209.378 59.2196C210.798 58.2576 212.172 57.2955 213.592 56.3334C213.776 56.1502 213.501 55.8753 213.318 56.0127Z" fill="white"/>
<path d="M209.515 50.7444C208.049 50.836 207.683 48.8202 210.66 49.3242C213.592 49.8739 209.515 50.7444 209.515 50.7444Z" fill="#333333"/>
<path d="M207.316 58.8987C206.446 58.349 206.629 57.2495 206.812 56.379C206.858 56.15 206.446 56.1042 206.4 56.3332C206.217 57.3411 206.079 58.578 207.087 59.2194C207.316 59.3569 207.545 59.0362 207.316 58.8987Z" fill="white"/>
<path d="M214.463 64.1675C203.559 64.1675 206.721 68.7488 208.324 78.8276C209.927 88.9523 209.927 91.5178 209.927 91.5178H228.986C228.986 91.5178 229.764 86.3409 226.603 75.6665C223.442 64.9921 222.984 64.1675 214.463 64.1675Z" fill="#80A1F3"/>
<path d="M210.981 66.9159C209.973 66.4578 208.965 65.9996 207.912 65.5873C207.866 65.5873 207.866 65.5415 207.82 65.5415C205.667 67.4198 206.95 71.1307 208.003 76.9489C209.653 73.8795 210.752 70.4893 210.981 66.9159Z" fill="#80A1F3"/>
<path d="M209.195 84.645C209.928 90.0051 209.928 91.517 209.928 91.517H228.986C228.986 91.517 229.352 89.2721 228.665 84.645H209.195Z" fill="#333333"/>
<path d="M245.524 149.333C239.385 128.35 233.43 105.948 228.573 84.5991C225.779 85.4696 222.618 87.5311 219.961 88.7223C224.633 109.155 230.635 129.45 236.499 149.562H245.57C245.57 149.516 245.57 149.424 245.524 149.333Z" fill="#333333"/>
<path d="M219.136 88.9056C216.295 88.3101 212.722 87.3938 209.973 86.4775C205.117 107.139 202.781 128.351 203.193 149.562H211.897C211.531 129.175 214.463 108.788 219.136 88.9056Z" fill="#333333"/>
<path d="M211.897 149.562V153.594H196.825C196.825 153.594 196.413 152.219 199.024 151.395C201.59 150.616 202.231 151.303 203.193 149.562H211.897Z" fill="#80A1F3"/>
<path d="M245.57 149.562L246.166 153.594H230.91C230.91 153.594 230.498 152.219 233.109 151.395C235.674 150.616 236.453 151.532 236.499 149.562H245.57Z" fill="#80A1F3"/>
<path d="M211.851 123.677C211.393 123.082 210.889 122.486 210.431 121.936C210.248 121.753 209.973 122.028 210.156 122.211C210.615 122.807 211.118 123.402 211.577 123.952C211.714 124.181 211.989 123.906 211.851 123.677Z" fill="#D9E3FB"/>
<path d="M237.186 123.403C236.453 122.944 235.72 122.486 234.987 122.074C234.758 121.937 234.575 122.303 234.804 122.395C235.537 122.853 236.27 123.311 237.003 123.723C237.232 123.906 237.415 123.54 237.186 123.403Z" fill="#D9E3FB"/>
<path d="M224.588 90.8756C223.442 90.9672 222.343 91.0131 221.197 91.1047C220.922 91.1047 220.922 91.517 221.197 91.517C222.343 91.4254 223.442 91.3796 224.588 91.2879C224.817 91.2421 224.817 90.8298 224.588 90.8756Z" fill="#D9E3FB"/>
<path d="M203.285 151.303C203.056 151.12 202.826 150.89 202.689 150.616C202.552 150.387 202.231 150.616 202.368 150.799C202.552 151.12 202.826 151.394 203.101 151.669C203.285 151.807 203.468 151.44 203.285 151.303Z" fill="white"/>
<path d="M204.247 150.89C203.834 150.524 203.422 150.203 203.055 149.837C202.872 149.654 202.597 149.928 202.781 150.112C203.193 150.478 203.605 150.799 203.972 151.165C204.155 151.349 204.43 151.074 204.247 150.89Z" fill="white"/>
<path d="M236.407 151.578C236.27 151.303 236.087 151.028 235.949 150.753C235.812 150.524 235.491 150.707 235.583 150.936C235.72 151.211 235.903 151.486 236.041 151.761C236.224 151.99 236.545 151.807 236.407 151.578Z" fill="white"/>
<path d="M237.553 151.211C237.278 150.891 237.049 150.57 236.774 150.249C236.591 150.066 236.316 150.341 236.499 150.524C236.774 150.845 237.003 151.166 237.278 151.486C237.415 151.67 237.69 151.395 237.553 151.211Z" fill="white"/>
<path d="M194.03 62.7925C190.686 57.7073 186.884 52.0265 183.493 46.9871C185.418 45.8418 187.388 44.7423 189.449 43.7344C192.427 48.1324 196.046 53.6758 198.932 58.1196C197.421 59.8147 195.588 61.0517 194.03 62.7925Z" fill="#80A1F3"/>
<path d="M190.686 45.5215C190.274 44.8801 189.861 44.2845 189.449 43.689C187.433 44.6968 185.463 45.7964 183.493 46.9417C184.089 47.8121 184.685 48.7284 185.28 49.5988C186.929 48.0412 188.808 46.7584 190.686 45.5215Z" fill="#B3C7F8"/>
<path d="M197.787 56.9287C201.315 59.0819 208.003 63.0677 211.622 65.0834C215.425 67.1908 214.738 75.0707 210.935 72.9633C206.262 70.3519 199.482 66.5036 194.992 63.6632C193.481 62.7012 192.473 60.1815 193.343 58.4406C193.572 58.0283 193.755 57.6159 193.985 57.2036C196.321 57.7076 195.496 56.4248 197.787 56.9287Z" fill="#80A1F3"/>
<path d="M189.449 43.689C188.166 41.3526 186.425 37.5959 185.418 37.5959C184.364 37.5959 186.563 39.3826 186.38 40.6196C186.196 41.8565 182.944 36.1757 181.707 36.4506C180.424 36.7255 183.997 39.291 183.539 39.7949C183.081 40.2989 181.249 36.5422 180.287 37.0004C179.325 37.4585 182.577 40.3905 182.119 40.9403C181.661 41.49 179.966 37.5043 179.05 38.4206C178.454 39.0161 180.653 41.1693 180.974 42.1314C181.294 43.0935 179.05 39.1077 178.454 39.8866C177.858 40.6654 182.257 45.0176 183.539 46.9418C184.822 48.8659 189.449 43.689 189.449 43.689Z" fill="#B3C7F8"/>
<path d="M184.868 49.6441C184.868 49.5983 184.914 49.5983 184.868 49.6441C184.914 49.5983 184.914 49.5983 184.868 49.6441C186.792 48.0407 188.716 46.5288 190.686 45.0628C190.869 44.9254 191.098 45.2461 190.915 45.3835C189.128 46.7121 187.342 48.0865 185.601 49.5067C185.601 49.5525 185.555 49.5525 185.555 49.5983L185.097 49.919C184.959 50.0564 184.685 49.7816 184.868 49.6441Z" fill="#B3C7F8"/>
<path d="M198.978 59.1278C198.795 58.6696 198.612 58.2573 198.428 57.7992C198.337 57.5701 197.925 57.6617 198.062 57.8908L198.612 59.2194C198.703 59.4943 199.116 59.3568 198.978 59.1278Z" fill="#D9E3FB"/>
<path d="M213.363 65.9537C212.905 65.7704 212.447 65.5413 211.989 65.3581C211.76 65.2665 211.577 65.5871 211.806 65.6788L213.18 66.2743C213.409 66.4118 213.593 66.0453 213.363 65.9537Z" fill="#D9E3FB"/>
<path d="M87.8359 148.647V152.816H101.992C101.992 152.816 101.992 150.846 99.6099 150.617C97.2276 150.388 96.9069 150.342 95.899 148.647C94.8911 146.906 87.8359 148.647 87.8359 148.647Z" fill="white"/>
<path d="M110.33 149.747L110.239 152.77H124.028C124.028 152.77 124.028 150.8 121.646 150.571C119.264 150.342 118.668 149.838 118.393 149.197C117.569 147.41 110.33 149.747 110.33 149.747Z" fill="white"/>
<path d="M95.8991 148.647C95.2577 132.108 95.7617 116.669 97.5942 100.222C99.3351 102.696 100.939 105.308 102.405 107.965C104.741 112.088 107.077 116.349 109.002 120.701C110.834 124.961 110.926 129.451 110.88 133.987C110.834 139.255 110.651 144.524 110.33 149.746L118.393 149.196C118.76 143.699 118.943 138.705 118.943 133.162C118.943 127.619 119.218 122.259 116.973 117.127C112.942 107.782 107.215 94.0836 100.664 86.2954C100.251 85.7914 99.3809 89.7772 98.7395 89.6397C98.5563 88.0821 97.64 86.7077 95.8991 86.2496C94.0208 85.7456 92.6464 91.7929 90.7222 91.8845C87.9277 111.996 87.0572 128.352 87.836 148.647H95.8991Z" fill="#80A1F3"/>
<path d="M107.81 93.8092L107.444 98.7111L90.7681 94.7712V92.0225L107.81 93.8092Z" fill="#80A1F3"/>
<path d="M97.1818 99.3062C95.8991 98.8022 94.6163 98.2983 93.3336 97.7944C93.1045 97.7027 93.0129 98.0692 93.2419 98.1609C94.5247 98.6648 95.8075 99.1688 97.0902 99.6727C97.3193 99.8101 97.4109 99.3978 97.1818 99.3062Z" fill="#333333"/>
<path d="M113.125 123.45C112.621 123.999 112.071 124.503 111.567 125.053C111.384 125.236 111.659 125.511 111.842 125.328C112.346 124.778 112.896 124.274 113.4 123.724C113.583 123.541 113.308 123.266 113.125 123.45Z" fill="#333333"/>
<path d="M96.3113 149.197C96.1281 149.655 95.8532 150.067 95.4867 150.434C95.3035 150.617 95.5783 150.892 95.7616 150.708C96.1739 150.296 96.4946 149.838 96.6778 149.288C96.8153 149.059 96.403 148.968 96.3113 149.197Z" fill="#333333"/>
<path d="M119.126 149.7C118.851 150.021 118.577 150.342 118.348 150.663C118.21 150.846 118.485 151.121 118.622 150.937C118.897 150.617 119.172 150.296 119.401 149.975C119.584 149.746 119.31 149.471 119.126 149.7Z" fill="#333333"/>
<path d="M107.81 93.8087C107.994 92.022 108.223 90.0063 108.543 87.7156C110.147 75.2087 108.727 74.2008 105.52 73.422C97.1819 71.3146 95.3952 69.024 93.8375 74.4757C93.2878 76.4456 92.509 81.3476 91.8218 84.921C91.3178 87.4866 90.9971 89.7314 90.7681 91.8846C96.3572 92.9841 102.084 93.5339 107.81 93.8087Z" fill="#333333"/>
<path d="M107.444 74.1548C106.528 75.8041 106.344 77.9573 107.306 79.5607C107.719 80.2479 108.36 81.0267 109.139 81.5307C109.368 76.8119 108.772 75.0252 107.444 74.1548Z" fill="#B3C7F8"/>
<path d="M105.657 71.8639C105.84 69.7566 106.024 67.6492 106.207 65.5876C106.436 62.9762 102.45 62.289 102.221 64.9004L101.488 72.826C101.442 73.1925 101.534 73.5132 101.626 73.8339C102.267 72.5053 104.466 71.9556 105.657 71.8639Z" fill="#E4E9FF"/>
<path d="M103 63.5259C103.138 65.6791 103.687 67.7865 105.062 69.39C105.291 69.5732 105.566 69.7565 105.841 69.8939C105.978 68.4279 106.115 67.0077 106.253 65.5417C106.39 63.6175 104.237 62.7471 103 63.5259Z" fill="#788BF1"/>
<path d="M104.145 56.8375C99.7473 56.7917 99.1975 58.1661 100.068 62.9765C100.984 68.1075 108.131 68.5656 107.948 66.5957C107.536 61.6021 107.81 56.8833 104.145 56.8375Z" fill="#E4E9FF"/>
<path d="M101.488 65.771C103.046 66.4123 103.733 61.1897 103.275 58.9906C103.229 58.8074 103.412 58.5325 103.596 58.4409C105.245 57.9369 104.833 58.166 106.528 58.0286C106.024 57.2956 105.245 56.8374 104.145 56.7916C99.7473 56.7458 99.1975 58.1202 100.068 62.9306C100.251 64.1217 100.801 65.0379 101.488 65.771Z" fill="#80A1F3"/>
<path d="M106.573 60.1357C106.573 60.5022 106.573 60.9145 106.573 61.281C106.573 61.5559 106.986 61.5559 106.986 61.3268C106.986 60.9603 106.986 60.548 106.986 60.1815C106.94 59.9066 106.573 59.9066 106.573 60.1357Z" fill="#333333"/>
<path d="M106.94 58.8076C106.711 58.8076 106.528 58.8534 106.344 58.9909C106.115 59.1283 106.39 59.449 106.619 59.2657C106.711 59.2199 106.802 59.1741 106.94 59.1741C107.169 59.1741 107.215 58.8076 106.94 58.8076Z" fill="#333333"/>
<path d="M108.864 63.3427C108.452 62.5181 108.039 61.6477 107.627 60.823C107.536 60.594 107.169 60.7772 107.261 61.0063C107.627 61.7851 108.039 62.5639 108.406 63.3427C108.039 63.4802 107.673 63.6176 107.306 63.8009C107.077 63.9383 107.261 64.259 107.49 64.1674C107.902 63.9841 108.314 63.8009 108.727 63.7093C108.864 63.6176 108.91 63.4802 108.864 63.3427Z" fill="#333333"/>
<path d="M105.795 57.7081C105.566 57.3874 105.016 57.3416 104.649 57.2958C104.1 57.2499 103.504 57.2958 103.046 57.5706C102.038 58.212 102.267 59.449 102.313 60.4568C102.221 60.5485 102.175 60.7317 102.313 60.7775C103.183 61.2815 104.329 60.8233 105.016 60.0903C105.611 59.5406 106.344 58.4869 105.795 57.7081Z" fill="#80A1F3"/>
<path d="M107.169 61.6939C106.024 65.359 106.482 67.8328 107.444 67.4663C108.406 67.0998 109.918 65.0841 109.322 63.2057C108.727 61.3274 107.673 60.0905 107.169 61.6939Z" fill="white"/>
<path d="M109.597 62.9311C109.551 62.702 109.185 62.6562 109.185 62.9311C109.276 63.939 109.368 65.0385 108.543 65.7257C108.36 65.9089 108.635 66.1838 108.818 66.0005C109.735 65.2675 109.735 64.0306 109.597 62.9311Z" fill="white"/>
<path d="M104.649 70.3067C101.946 66.2751 103.962 61.6022 103.962 61.6022L100.16 61.4189C99.9306 62.9308 100.297 67.3288 95.4868 68.1993C90.6764 69.0697 90.4932 73.4219 90.4932 73.4219C90.4932 73.4219 91.501 73.6052 92.9213 73.8801C93.4252 73.3761 93.9291 72.8722 94.5705 72.5057C95.3035 72.0934 95.8533 73.2387 95.1661 73.651C94.937 73.7884 94.6621 73.9717 94.4789 74.2008C98.0981 74.9796 103.046 76.2623 103.641 77.6367C103.596 77.6367 107.352 74.3382 104.649 70.3067Z" fill="#80A1F3"/>
<path d="M104.558 60.5484C102.084 60.0445 100.755 63.4346 104.924 64.1676L104.558 60.5484Z" fill="#E4E9FF"/>
<path d="M103.458 61.6022C103.183 61.5564 103.183 61.9687 103.412 62.0145C103.779 62.0603 104.1 62.3352 104.191 62.6559C104.237 62.8849 104.649 62.8391 104.558 62.5642C104.42 62.0603 104.008 61.6938 103.458 61.6022Z" fill="#333333"/>
<path d="M107.536 65.4042C105.978 65.1293 104.558 64.5338 103.275 63.6175C103.092 63.4801 102.863 63.8008 103.092 63.9382C104.374 64.9003 105.84 65.5417 107.444 65.7707C107.673 65.8623 107.81 65.45 107.536 65.4042Z" fill="white"/>
<path d="M108.818 62.1061C107.444 61.7396 105.978 60.9149 104.695 60.2278C104.466 60.0903 104.283 60.4568 104.512 60.5484C105.84 61.2814 107.398 62.1061 108.864 62.5184V62.1061H108.818Z" fill="white"/>
<path d="M122.975 81.4855C128.289 78.5993 133.649 75.7131 139.009 72.8727C137.864 70.9486 136.627 69.0244 135.298 67.1919C130.58 69.6658 124.807 72.8727 120.134 75.3924C120.684 77.6372 122.379 79.2407 122.975 81.4855Z" fill="#333333"/>
<path d="M136.352 74.2929C137.222 73.8348 138.093 73.3308 139.009 72.8727C137.864 70.9486 136.627 69.0244 135.298 67.1919C134.611 67.5584 133.924 67.9249 133.191 68.2914C134.336 70.2614 135.344 72.2771 136.352 74.2929Z" fill="#B3C7F8"/>
<path d="M122.654 75.2547C118.577 74.5217 110.972 73.0098 106.894 72.0936C106.482 72.002 106.115 72.002 105.749 72.002C106.574 73.9719 106.574 76.1251 106.482 78.2325C106.482 78.5074 106.299 78.6906 106.07 78.7823C110.972 79.8818 115.874 80.8438 120.821 81.6685C122.608 81.9434 124.486 81.1645 124.945 79.2862C125.036 78.8281 125.174 78.3699 125.311 77.9118C123.249 76.8123 124.715 76.4 122.654 75.2547Z" fill="#333333"/>
<path d="M135.298 67.1917C137.497 65.7715 138.826 63.6183 140.521 63.5266C142.216 63.3892 139.88 64.7636 139.467 65.9547C139.055 67.1458 144.598 63.6641 145.56 64.4887C146.568 65.3591 142.216 65.9089 142.353 66.5961C142.491 67.2833 145.881 64.8094 146.522 65.6798C147.164 66.5045 142.903 67.604 143.086 68.2912C143.224 68.9784 146.614 66.2754 146.981 67.5123C147.255 68.337 144.278 69.1616 143.499 69.8946C142.766 70.6276 146.614 68.8409 146.751 69.803C146.889 70.7651 140.979 71.8188 138.963 72.9183C136.947 74.0178 135.298 67.1917 135.298 67.1917Z" fill="#B3C7F8"/>
<path d="M108.085 79.2408C107.078 79.1033 106.07 78.8742 105.108 78.5077C104.879 78.4161 104.787 78.7826 105.016 78.8743C106.024 79.2408 107.032 79.5156 108.085 79.6531C108.315 79.6989 108.315 79.2866 108.085 79.2408Z" fill="#B3C7F8"/>
<path d="M108.956 72.5061C107.49 72.2771 105.841 71.7731 104.329 71.9106C103.458 72.0022 102.725 72.4145 102.405 73.2391C102.313 73.4682 102.679 73.5598 102.771 73.3308C103.321 71.9564 104.97 72.2771 106.115 72.4603C107.032 72.5978 107.902 72.7352 108.818 72.8726C109.139 72.9185 109.231 72.552 108.956 72.5061Z" fill="#B3C7F8"/>
<path d="M120.776 75.3466C120.546 75.6672 120.317 76.0338 120.088 76.3544C119.951 76.5835 120.272 76.7668 120.409 76.5377C120.638 76.217 120.867 75.8505 121.096 75.5298C121.234 75.3466 120.913 75.1175 120.776 75.3466Z" fill="#B3C7F8"/>
<path d="M136.535 74.5672V74.5214C135.619 72.2766 134.611 70.0317 133.557 67.7869C133.466 67.5578 133.099 67.7411 133.237 67.9702C134.199 69.9859 135.069 72.0475 135.94 74.1091C135.94 74.1549 135.94 74.1549 135.94 74.2007L136.169 74.7047C136.306 74.9337 136.627 74.7963 136.535 74.5672Z" fill="#B3C7F8"/>
</g>
</svg>
