<svg width="48" height="48" viewBox="0 0 48 48" fill="none" xmlns="http://www.w3.org/2000/svg">
<mask id="mask0" mask-type="alpha" maskUnits="userSpaceOnUse" x="0" y="0" width="48" height="48">
<path d="M47.1765 17.7899C50.6062 30.5899 43.0101 43.7467 30.2101 47.1765C17.4101 50.6062 4.25328 43.0101 0.823532 30.2101C-2.60622 17.4101 4.98987 4.25328 17.7899 0.823532C30.5899 -2.60622 43.7467 4.98987 47.1765 17.7899Z" fill="#80A1F3"/>
</mask>
<g mask="url(#mask0)">
<path d="M47.1765 17.7899C50.6062 30.5899 43.0101 43.7467 30.2101 47.1765C17.4101 50.6062 4.25328 43.0101 0.823532 30.2101C-2.60622 17.4101 4.98987 4.25328 17.7899 0.823532C30.5899 -2.60622 43.7467 4.98987 47.1765 17.7899Z" fill="#80A1F3"/>
<path d="M25.1141 7.26163C30.4843 5.86936 31.7274 3.53235 33.0699 6.26715C34.4125 9.00196 32.4235 9.25058 33.4677 11.2395C34.5119 13.2285 32.4732 15.2174 30.5837 14.571C28.6942 13.9246 25.1141 7.26163 25.1141 7.26163Z" fill="#333333"/>
<path d="M20.3407 16.4605C18.6501 17.7533 20.2909 20.687 18.3517 19.9412C17.1086 19.4937 16.0147 20.5876 15.7164 22.5765C15.1197 26.0572 13.8766 20.2395 10.2468 23.571C6.61692 26.9025 7.11416 22.5765 4.13074 26.0572C4.13074 26.0572 7.46223 28.0461 11.4401 32.6705C15.418 37.2948 28.8434 29.339 34.313 30.5323C34.313 30.5323 37.1473 29.1898 35.9539 26.4053C34.8103 23.571 33.1197 25.908 33.6169 22.2782C34.1141 18.6484 31.976 21.2837 31.4788 19.2948C30.9816 17.3058 33.4677 11.339 27.9981 11.687C22.4788 11.9854 20.3407 16.4605 20.3407 16.4605Z" fill="#333333"/>
<path d="M23.2317 19.4235C22.2724 24.4175 21.7345 27.2174 20.7752 32.2114C19.9564 36.4059 26.4047 38.1962 27.1724 34.0017C27.9912 29.7561 28.81 25.4594 29.6289 21.2138C30.4477 16.9682 24.0505 15.1779 23.2317 19.4235Z" fill="#FCF2DC"/>
<path d="M24.9152 17.7533C24.8157 20.7865 26.5093 22.1091 27.9016 24.6948C27.9016 25.5945 28.2015 28.6937 28.2015 28.6937C28.9474 26.8042 29.2412 23.7699 29.6389 21.4826C30.2854 18.4992 26.9539 16.7589 24.9152 17.7533Z" fill="#333333"/>
<path d="M32.4732 16.5599C32.4732 18.6981 32.324 21.0351 32.2743 23.4218C32.2245 25.1621 28.7936 25.4108 25.6113 23.8196C24.3185 23.1732 23.0754 22.2782 22.1306 21.0848C21.1859 19.8417 21.335 18.6981 21.1859 16.8583C20.5395 9.10138 20.8875 6.56547 27.7991 7.36105C31.8267 7.80856 32.4732 11.5876 32.4732 16.5599Z" fill="#FCF2DC"/>
<path d="M31 17.5019C30.8652 16.7887 30.7303 16.0754 30.5955 15.3621C30.5506 14.9781 30.0112 12.3993 30.6854 12.509C30.9551 12.5639 31.0449 12.0701 30.7753 12.0152C30.1461 11.9055 29.8315 12.3993 29.8315 13.1674C29.8315 14.5391 30.236 16.0205 30.5056 17.3373C30.0562 17.3922 29.6517 17.4471 29.2022 17.5019C28.9326 17.5568 28.9326 18.0506 29.2022 17.9958C29.7416 17.9409 30.236 17.886 30.7753 17.8311C30.9101 17.8311 31 17.6665 31 17.5019Z" fill="#333333"/>
<path d="M21.6033 21.3956C23.5922 25.7713 23.0754 14.3224 22.6279 10.792C22.5782 10.444 22.9262 10.0462 23.2246 9.99644C25.9096 9.44948 28.5947 9.54893 31.3295 9.59865C31.7273 7.95777 28.9925 7.41081 27.2522 7.21192C20.3406 6.41634 19.6445 8.6539 20.2909 16.4108C20.4898 18.3003 20.6585 20.2023 21.6033 21.3956Z" fill="#333333"/>
<path d="M26.9539 12.9301C26.9539 13.4771 26.9539 14.0241 26.9539 14.571C26.9539 14.8694 27.4511 14.9191 27.4511 14.6208C27.4511 14.0738 27.4511 13.5268 27.4511 12.9799C27.4511 12.6815 26.9539 12.6318 26.9539 12.9301Z" fill="#333333"/>
<path d="M31.3793 13.1787C31.3793 13.7257 31.3793 14.2727 31.3793 14.8196C31.3793 15.118 31.8765 15.2174 31.8765 14.8694C31.8765 14.3224 31.8765 13.7754 31.8765 13.2285C31.8765 12.9301 31.3793 12.8804 31.3793 13.1787Z" fill="#333333"/>
<path d="M23.4733 13.129C19.6445 11.9854 17.0092 17.1069 23.4733 18.9467V13.129Z" fill="#FCF2DC"/>
<path d="M23.2743 16.1124C22.7274 15.5158 22.081 15.0185 21.4346 14.571C21.1362 14.4218 20.8876 14.8196 21.1859 15.0185C21.8324 15.4163 22.429 15.9135 22.9263 16.4605C23.1749 16.7091 23.523 16.3611 23.2743 16.1124Z" fill="#333333"/>
<path d="M23.0257 17.1069C22.4787 17.0572 22.2301 16.4605 22.6279 16.0627C22.8268 15.8141 22.4787 15.466 22.2798 15.7147C21.6334 16.4605 22.0809 17.5544 23.0754 17.6042C23.324 17.6042 23.324 17.1069 23.0257 17.1069Z" fill="#333333"/>
<path d="M27.3517 11.3887C27.103 11.4384 26.8544 11.5379 26.6058 11.5876C26.3075 11.687 26.4069 12.1345 26.7052 12.0848C26.9539 12.0351 27.2025 11.9356 27.4511 11.8859C27.7494 11.8362 27.65 11.339 27.3517 11.3887Z" fill="#333333"/>
<path d="M26.9539 9.00193C26.9041 8.85276 26.6555 8.85276 26.5064 8.95221C26.4566 8.80304 26.1583 8.70359 26.0588 8.90249C25.0644 10.5434 22.8765 7.51022 21.5837 11.8362C21.534 12.0848 21.3351 12.234 21.5837 12.3334C22.8268 12.7809 24.0202 12.2837 25.0644 11.6373C25.9097 11.0903 26.8047 10.4439 26.9539 9.39973C26.9539 9.35 27.0036 9.35 27.0036 9.30028C27.103 9.1511 27.0533 9.05166 26.9539 9.00193Z" fill="#333333"/>
<path d="M41.2246 68.8693H4.18042C3.60807 40.1906 3.98153 32.7699 11.639 30.1842C12.7826 29.7864 14.1252 29.5378 15.7163 29.3389C16.8102 29.1898 18.0036 29.14 19.3462 29.0406C19.7937 29.0406 20.2909 28.9909 20.7882 28.9909C21.9815 28.9411 23.2743 28.8914 24.6666 28.8914C26.1086 28.8417 27.4014 28.8417 28.5948 28.8914C29.3406 28.9411 29.987 28.9411 30.6832 29.0406C45.3517 30.3334 40.7274 39.7809 41.2246 68.8693Z" fill="#FCF2DC"/>
<path fill-rule="evenodd" clip-rule="evenodd" d="M31.0356 29.8891C31.1823 29.9545 31.2569 30.1497 31.2022 30.3251C30.9728 31.0607 30.3118 33.034 29.4911 35.081C28.9567 36.414 28.1877 37.2977 27.3013 37.6698C26.4111 38.0436 25.4433 37.8838 24.5503 37.2229C23.7591 36.6374 22.9655 35.494 22.2408 34.2408C21.5101 32.9772 20.8241 31.556 20.2577 30.3753C20.1798 30.2129 20.2268 30.0058 20.3626 29.9126C20.4984 29.8195 20.6717 29.8756 20.7496 30.038C21.3172 31.2213 21.992 32.6185 22.7072 33.8552C23.4283 35.1023 24.1657 36.141 24.8487 36.6465C25.6159 37.2142 26.4058 37.3273 27.1134 37.0302C27.8248 36.7315 28.4937 36.0007 28.9799 34.7879C29.7922 32.7617 30.4466 30.8074 30.6709 30.0883C30.7256 29.9128 30.8888 29.8237 31.0356 29.8891Z" fill="#333333"/>
<path d="M29.7154 21.5509C28.755 21.7061 27.7946 21.1243 27.4253 20.1545C27.3145 19.883 26.9082 19.9994 27.019 20.2709C27.4991 21.4733 28.6442 22.1327 29.8262 21.9776C30.1217 21.9388 30.0109 21.5121 29.7154 21.5509Z" fill="#333333"/>
</g>
</svg>
