<svg width="64" height="64" viewBox="0 0 64 64" fill="none" xmlns="http://www.w3.org/2000/svg">
<path d="M61.707 19.2928L47.707 5.29279C47.5195 5.10532 47.2652 5 47 5C46.7348 5 46.4805 5.10532 46.293 5.29279L43.586 7.99979H37.447C35.7263 7.99572 34.0219 8.33353 32.4327 8.99358C30.8436 9.65364 29.4015 10.6228 28.19 11.8448L17.875 22.6378C17.3044 23.236 16.974 24.0233 16.9468 24.8495C16.9196 25.6758 17.1975 26.4831 17.7275 27.1176C18.2575 27.752 19.0025 28.1692 19.8204 28.2895C20.6382 28.4098 21.4718 28.2248 22.162 27.7698L33.5 20.2758C35.3354 22.0436 37.7928 23.0182 40.341 22.9888C42.2615 23.0645 44.1589 22.549 45.777 21.5118L56.137 32.2238C56.137 32.2238 57.989 27.7708 57.989 24.4238L61.707 20.7058C61.8942 20.5183 61.9993 20.2642 61.9993 19.9993C61.9993 19.7344 61.8942 19.4803 61.707 19.2928Z" fill="#4200FF"/>
<path d="M56.9 35.8738L46.654 25.3428L45.307 23.9208C43.7473 24.6263 42.0548 24.9904 40.343 24.9888C37.8378 25.0095 35.3911 24.2323 33.357 22.7698L23.265 29.4378C22.233 30.1181 20.998 30.4218 19.7682 30.2976C18.5384 30.1733 17.3891 29.6288 16.514 28.7558C15.5297 27.7608 14.9707 26.4222 14.9551 25.0228C14.9394 23.6233 15.4683 22.2726 16.43 21.2558L26.744 10.4628C27.3624 9.84982 28.0314 9.29017 28.744 8.78979C27.1077 8.27469 25.4034 8.00839 23.688 7.99979H20.414L17.707 5.29279C17.5195 5.10532 17.2652 5 17 5C16.7348 5 16.4805 5.10532 16.293 5.29279L2.293 19.2928C2.10553 19.4803 2.00021 19.7346 2.00021 19.9998C2.00021 20.265 2.10553 20.5193 2.293 20.7068L5.935 24.3488C5.55634 27.1541 5.84202 30.0091 6.769 32.6838C7.70224 32.1906 8.73747 31.9215 9.79273 31.8977C10.848 31.8739 11.8943 32.0961 12.8488 32.5467C13.8033 32.9972 14.6399 33.6638 15.2922 34.4937C15.9445 35.3235 16.3946 36.2938 16.607 37.3278C18.0023 37.5626 19.2912 38.2225 20.2974 39.2173C21.3036 40.212 21.9782 41.4932 22.229 42.8858C23.4799 43.1076 24.6439 43.6746 25.5898 44.5227C26.5356 45.3708 27.2256 46.4664 27.582 47.6858C28.7944 47.7698 29.9632 48.1726 30.97 48.8534C31.9767 49.5342 32.7858 50.4689 33.3154 51.5628C33.845 52.6567 34.0762 53.8711 33.9857 55.0831C33.8952 56.2951 33.4862 57.4616 32.8 58.4648C33.4871 59.074 34.3327 59.476 35.2389 59.6245C36.145 59.773 37.0747 59.6617 37.9203 59.3037C38.7658 58.9456 39.4927 58.3554 40.0167 57.6013C40.5406 56.8472 40.8403 55.9601 40.881 55.0428C41.631 55.362 42.4489 55.4884 43.2602 55.4103C44.0716 55.3323 44.8504 55.0524 45.5258 54.5962C46.2012 54.1399 46.7516 53.5218 47.1269 52.7982C47.5021 52.0747 47.6902 51.2687 47.674 50.4538C48.5531 50.7239 49.4905 50.7409 50.3788 50.5029C51.2671 50.2648 52.0703 49.7814 52.6966 49.1079C53.3228 48.4344 53.7466 47.5981 53.9195 46.6948C54.0923 45.7916 54.0073 44.8579 53.674 44.0008C54.3077 43.9769 54.9302 43.8263 55.5047 43.5578C56.0792 43.2894 56.5941 42.9085 57.019 42.4378C57.8352 41.5326 58.277 40.351 58.2549 39.1323C58.2328 37.9136 57.7485 36.7488 56.9 35.8738V35.8738Z" fill="#4200FF"/>
<path d="M30.564 51.1087C30.1102 50.6523 29.5704 50.2905 28.9758 50.0441C28.3812 49.7978 27.7436 49.6719 27.1 49.6737C26.6815 49.6798 26.2654 49.7393 25.862 49.8507C25.8955 49.1336 25.7694 48.4179 25.4928 47.7553C25.2162 47.0928 24.7959 46.4999 24.2624 46.0195C23.7289 45.539 23.0953 45.183 22.4075 44.9771C21.7197 44.7712 20.9948 44.7205 20.285 44.8287C20.3985 44.0698 20.3314 43.2947 20.0891 42.5665C19.8469 41.8383 19.4363 41.1775 18.8907 40.6378C18.3451 40.0981 17.68 39.6946 16.9492 39.4602C16.2185 39.2258 15.4427 39.1671 14.685 39.2887C14.719 39.0747 14.7381 38.8585 14.742 38.6417C14.7368 38.002 14.6028 37.3698 14.348 36.7829C14.0932 36.196 13.7229 35.6664 13.259 35.2257C12.3436 34.3564 11.1234 33.8812 9.86118 33.9025C8.59892 33.9239 7.39551 34.44 6.50999 35.3397L5.92799 35.9397C5.27761 36.6083 4.83635 37.4521 4.65827 38.3677C4.48019 39.2833 4.57302 40.231 4.9254 41.0946C5.27777 41.9583 5.87438 42.7004 6.64216 43.23C7.40993 43.7597 8.31552 44.054 9.24799 44.0767H9.36899C9.44999 44.0767 9.52699 44.0577 9.60699 44.0537C9.39646 44.8938 9.41398 45.7748 9.65772 46.6058C9.90147 47.4367 10.3626 48.1876 10.9935 48.7808C11.6245 49.374 12.4023 49.7881 13.2467 49.9802C14.0911 50.1723 14.9715 50.1356 15.797 49.8737C15.797 49.9007 15.789 49.9257 15.789 49.9527C15.789 51.2523 16.3052 52.4986 17.2242 53.4176C18.1431 54.3365 19.3894 54.8527 20.689 54.8527C21.0313 54.8512 21.3724 54.814 21.707 54.7417C21.698 54.8617 21.672 54.9787 21.672 55.1007C21.6721 56.0698 21.9596 57.0171 22.4981 57.8228C23.0366 58.6286 23.8019 59.2565 24.6973 59.6273C25.5926 59.9981 26.5778 60.095 27.5283 59.9059C28.4787 59.7167 29.3518 59.25 30.037 58.5647L30.562 58.0397C31.4804 57.1204 31.9964 55.8741 31.9968 54.5747C31.9972 53.2752 31.4818 52.0286 30.564 51.1087Z" fill="#4200FF"/>
</svg>
