<svg width="64" height="64" viewBox="0 0 64 64" fill="none" xmlns="http://www.w3.org/2000/svg">
<path d="M13 35H5C4.447 35 4 34.553 4 34C4 33.447 4.447 33 5 33H13C13.553 33 14 33.447 14 34C14 34.553 13.553 35 13 35Z" fill="#4200FF"/>
<path d="M15.929 27.9287C15.673 27.9287 15.417 27.8307 15.222 27.6357L9.566 21.9797C9.175 21.5887 9.175 20.9567 9.566 20.5657C9.957 20.1747 10.589 20.1747 10.98 20.5657L16.636 26.2217C17.027 26.6127 17.027 27.2447 16.636 27.6357C16.44 27.8307 16.185 27.9287 15.929 27.9287Z" fill="#4200FF"/>
<path d="M62 40H2.00001C1.69901 40 1.41401 40.136 1.22501 40.369C1.03501 40.602 0.960008 40.908 1.02101 41.203C1.11001 41.634 3.36501 51.569 19 51.98V62C19 62.553 19.447 63 20 63H52C52.553 63 53 62.553 53 62C53 57.037 57.037 53 62 53C62.553 53 63 52.553 63 52V41C63 40.447 62.553 40 62 40Z" fill="#4200FF"/>
<path d="M57.707 28.2926L47.828 18.4136L40.414 25.8276L50.293 35.7066C50.488 35.9016 50.744 35.9996 51 35.9996C51.256 35.9996 51.512 35.9016 51.707 35.7066L57.707 29.7066C58.098 29.3156 58.098 28.6836 57.707 28.2926Z" fill="#4200FF"/>
<path d="M52.707 9.29276L44.707 1.29276C44.316 0.901762 43.684 0.901762 43.293 1.29276L23.293 21.2928C22.902 21.6838 22.902 22.3158 23.293 22.7068L31.293 30.7068C31.488 30.9018 31.744 30.9998 32 30.9998C32.256 30.9998 32.512 30.9018 32.707 30.7068L52.707 10.7068C53.098 10.3158 53.098 9.68376 52.707 9.29276Z" fill="#4200FF"/>
</svg>
