<svg width="909" height="737" viewBox="0 0 909 737" fill="none" xmlns="http://www.w3.org/2000/svg">
<path d="M123.73 504.917C55.3956 504.917 0 391.887 0 252.458C0 113.029 55.3956 0 123.73 0C192.064 0 247.459 113.029 247.459 252.458C247.459 391.887 192.064 504.917 123.73 504.917Z" fill="#4200FF"/>
<path d="M125.232 255.045C119.06 145.133 106.622 70.8927 106.497 70.1554L108.468 69.8214C108.593 70.5592 121.047 144.887 127.228 254.901C132.932 356.439 134.308 510.019 108.469 665.054L106.496 664.726C132.303 509.882 130.929 356.473 125.232 255.045Z" fill="#3F3D56"/>
<path d="M12.97 201.585L124.841 261.462L123.897 263.225L12.0261 203.348L12.97 201.585Z" fill="#3F3D56"/>
<path d="M241.996 231.595L242.94 233.358L131.053 293.205L130.109 291.441L241.996 231.595Z" fill="#3F3D56"/>
<path d="M272.803 573.293C247.272 573.293 226.575 531.062 226.575 478.968C226.575 426.874 247.272 384.643 272.803 384.643C298.335 384.643 319.032 426.874 319.032 478.968C319.032 531.062 298.335 573.293 272.803 573.293Z" fill="#E6E6E6"/>
<path d="M272.844 483.032L272.57 483.544L230.772 461.171L231.716 459.408L272.757 481.375C270.486 439.573 265.841 411.512 265.747 410.96L267.719 410.626C267.821 411.229 273.34 444.552 275.299 492.77L316.692 470.615L317.636 472.379L275.838 494.751L275.339 493.818C276.906 533.615 276.028 583.377 267.719 633.228L265.747 632.9C274.805 578.548 275.005 524.297 272.844 483.032Z" fill="#3F3D56"/>
<path d="M38.566 685.766C284.798 607.818 508.075 611.971 652.021 629.181C807.968 647.825 906.924 685.369 907.905 685.746L908.623 683.879C907.639 683.501 808.45 645.868 652.258 627.194C560.383 616.223 467.684 613.852 375.368 620.111C260.765 627.868 147.496 649.269 37.9625 683.859L38.566 685.766Z" fill="#3F3D56"/>
<path d="M334.111 666.736C334.111 666.736 333.421 652.267 319.264 653.949L334.111 666.736Z" fill="#3F3D56"/>
<path d="M338.111 652.967C334.198 652.967 331.026 649.794 331.026 645.881C331.026 641.968 334.198 638.796 338.111 638.796C342.024 638.796 345.197 641.968 345.197 645.881C345.197 649.794 342.024 652.967 338.111 652.967Z" fill="#4200FF"/>
<path d="M337.264 657.813H339.264V671.813H337.264V657.813Z" fill="#3F3D56"/>
<path d="M69.6096 620.729L28.4513 681.757L66.7711 720.077L71.7384 710.142L63.2229 690.273C63.2229 690.273 64.6422 671.823 69.6096 666.855C74.5769 661.888 96.5753 632.084 96.5753 632.084L69.6096 620.729Z" fill="#FFCFCF"/>
<path d="M122.122 423.454C122.122 423.454 114.317 435.806 130.639 489.028C130.639 489.028 54.5088 617.516 66.5724 626.031C78.636 634.547 111.281 653.392 119.797 647.715C128.312 642.038 190.246 449.71 190.246 449.71L122.122 423.454Z" fill="#2F2E41"/>
<path d="M35.9024 670.758L23.4839 683.177C17.0973 689.563 12.8394 698.788 24.9031 706.594C36.9667 714.4 78.8346 743.495 93.0272 734.27C107.22 725.044 75.9962 716.529 75.9962 716.529C75.9962 716.529 70.8332 697.386 68.0925 701.635C65.3519 705.885 65.3518 714.4 65.3518 714.4L35.9024 670.758Z" fill="#2F2E41"/>
<path d="M185.988 654.082C185.988 654.082 208.696 695.95 208.696 700.917C208.696 705.885 207.277 720.077 207.277 720.077L250.564 730.721L265.466 723.625L260.499 710.852C260.499 710.852 233.533 701.627 227.856 683.886C222.179 666.146 215.792 647.695 215.792 647.695L185.988 654.082Z" fill="#FFCFCF"/>
<path d="M159.732 237.532C143.272 237.532 129.928 224.188 129.928 207.727C129.928 191.267 143.272 177.923 159.732 177.923C176.192 177.923 189.536 191.267 189.536 207.727C189.536 224.188 176.192 237.532 159.732 237.532Z" fill="#FFCFCF"/>
<path d="M167.538 233.274L153.308 274.159L122.122 260.24C122.122 260.24 143.411 227.597 143.411 223.339L167.538 233.274Z" fill="#FFCFCF"/>
<path d="M171.796 378.747H134.185C134.185 378.747 107.22 419.905 122.831 463.193C125.222 469.821 127.596 479.107 129.964 490.085C135.412 515.332 140.836 549.531 146.394 580.956C154.201 625.099 162.274 663.769 171.05 664.471C188.791 665.89 223.289 665.654 223.289 658.557C223.289 651.461 200.181 446.162 200.181 446.162L195.213 437.646L194.274 400.554C194.126 394.7 191.689 389.138 187.487 385.062C183.284 380.985 177.651 378.718 171.796 378.747Z" fill="#2F2E41"/>
<path d="M209.051 700.562C209.051 700.562 200.89 714.4 203.019 724.335C205.148 734.269 208.696 732.85 224.308 734.269C239.92 735.689 293.142 735.689 293.142 725.754C293.142 715.819 251.624 702.917 251.449 706.885C251.274 710.852 249.854 718.658 254.112 720.077C258.37 721.496 254.467 720.432 254.467 720.432L209.051 700.562Z" fill="#2F2E41"/>
<path d="M167.532 467.32C167.532 467.32 170.619 517.729 191.208 502.722C211.797 487.715 183.184 460.607 183.184 460.607L167.532 467.32Z" fill="white"/>
<path d="M126.44 400.93C125.45 401.377 124.358 401.545 123.28 401.417C122.202 401.29 121.179 400.871 120.321 400.206C119.076 399.228 118.246 397.816 117.999 396.252C115.023 379.091 111.399 331.518 109.311 307.461C106.692 277.276 119.776 253.896 119.885 253.753L127.596 243.152C128.397 242.044 129.549 241.24 130.865 240.87C132.181 240.501 133.583 240.588 134.843 241.117C134.843 241.117 158.915 266.092 159.004 267.056C159.381 271.197 162.246 280.373 177.179 295.305C193.517 311.644 193.608 325.904 193.247 329.886C193.223 330.147 193.211 330.409 193.21 330.67C193.241 332.457 192.998 334.237 192.491 335.95C185.647 357.525 191.006 383.356 199.613 410.319C199.939 411.537 199.878 412.827 199.439 414.009C199 415.191 198.204 416.208 197.161 416.918C194.648 418.628 197.662 416.091 196.766 417.189C190.834 424.457 182.299 414.328 172.535 403.275C169.134 399.424 165.279 395.06 160.735 390.517C154.489 384.27 142.553 398.525 137.004 398.525C133.352 398.569 129.751 399.389 126.44 400.93Z" fill="#FFE9B8"/>
<path d="M123.13 264.761C123.13 264.761 107.541 277.907 116.397 294.957C125.254 312.006 124.076 324.581 124.076 324.581C124.076 324.581 126.434 441.706 154.107 436.015L166.694 470.768L189.428 462.563L176.282 431.91C176.282 431.91 186.811 431.255 183.734 424.081C181.573 419.042 169.932 364.363 163.193 332.259C160.337 318.655 158.362 309.105 158.362 309.105C158.362 309.105 149.405 261.214 123.13 264.761Z" fill="#FFE9B8"/>
<path opacity="0.2" d="M119.86 324.281L128.625 381.79L123.896 320.297L119.86 324.281Z" fill="black" fill-opacity="0.8"/>
<path d="M192.249 194.522C192.249 194.522 197.26 155.527 156.376 168.314C156.376 168.314 127.177 162.956 117.601 199.48L107.905 237.767L112.631 235.195L114.834 240.01L122.491 241.949L125.768 235.446L127.353 243.343L190.07 249.596C190.07 249.596 161.98 232.984 161.535 203.211L166.885 208.865L192.249 194.522Z" fill="#2F2E41"/>
<path opacity="0.2" d="M145.609 583.199L131.624 490.013L142.998 590.611L145.609 583.199Z" fill="black"/>
<path d="M122.754 184.466C114.044 184.466 106.984 177.406 106.984 168.696C106.984 159.986 114.044 152.926 122.754 152.926C131.463 152.926 138.524 159.986 138.524 168.696C138.524 177.406 131.463 184.466 122.754 184.466Z" fill="#2F2E41"/>
<path d="M139.004 164.835C138.744 160.834 136.97 157.082 134.041 154.344C131.113 151.605 127.25 150.086 123.241 150.096C123.566 150.054 123.889 150.004 124.221 149.983C126.289 149.849 128.362 150.123 130.323 150.791C132.284 151.459 134.095 152.506 135.651 153.873C137.207 155.241 138.479 156.902 139.393 158.761C140.307 160.62 140.846 162.641 140.979 164.708C141.112 166.775 140.836 168.849 140.168 170.81C139.499 172.77 138.451 174.58 137.082 176.136C135.714 177.691 134.053 178.962 132.193 179.875C130.334 180.788 128.312 181.326 126.245 181.458C125.913 181.479 125.586 181.471 125.258 181.472C129.236 180.968 132.872 178.967 135.426 175.876C137.979 172.785 139.259 168.836 139.004 164.835Z" fill="#2F2E41"/>
<path opacity="0.2" d="M167.758 342.202L181.633 416.567L163.649 334.43L167.758 342.202Z" fill="black" fill-opacity="0.8"/>
<path d="M166.893 229.206L174.98 235.303C183.308 231.111 189.555 221.414 191.825 212.159L183.013 207.712C182.32 217.152 175.619 223.428 166.893 229.206Z" fill="white"/>
<path d="M163.535 209.056H183.684C183.863 209.056 184.033 208.985 184.159 208.859C184.285 208.733 184.356 208.562 184.356 208.384C184.356 208.206 184.285 208.035 184.159 207.909C184.033 207.783 183.863 207.712 183.684 207.712H163.535C163.356 207.712 163.186 207.783 163.06 207.909C162.934 208.035 162.863 208.206 162.863 208.384C162.863 208.562 162.934 208.733 163.06 208.859C163.186 208.985 163.356 209.056 163.535 209.056Z" fill="white"/>
<path d="M167.565 229.206C167.674 229.206 167.782 229.179 167.879 229.127C167.976 229.076 168.059 229.001 168.121 228.911C168.182 228.82 168.22 228.715 168.232 228.606C168.244 228.497 168.229 228.387 168.188 228.285L162.814 214.851C162.782 214.769 162.733 214.694 162.672 214.631C162.61 214.568 162.537 214.517 162.456 214.482C162.375 214.447 162.288 214.429 162.199 214.428C162.111 214.426 162.023 214.443 161.941 214.475C161.859 214.508 161.785 214.557 161.721 214.619C161.658 214.68 161.608 214.754 161.573 214.835C161.539 214.917 161.52 215.004 161.519 215.092C161.519 215.18 161.535 215.268 161.568 215.35L166.941 228.783C166.991 228.908 167.077 229.015 167.188 229.09C167.299 229.165 167.43 229.206 167.565 229.206Z" fill="white"/>
<path d="M162.179 216.992C159.457 216.992 157.251 213.903 157.251 210.093C157.251 206.282 159.457 203.193 162.179 203.193C164.901 203.193 167.107 206.282 167.107 210.093C167.107 213.903 164.901 216.992 162.179 216.992Z" fill="#FFCFCF"/>
</svg>
