<svg width="776" height="558" viewBox="0 0 776 558" fill="none" xmlns="http://www.w3.org/2000/svg">
<path d="M261.557 248H151.557V371H261.557V248Z" fill="white"/>
<path d="M95.557 556H39.557L33.557 508H101.557L95.557 556Z" fill="#E0E0E0"/>
<path d="M208.007 521.232L206.117 547.067C206.032 548.237 206.197 549.411 206.603 550.511C207.008 551.611 207.644 552.612 208.468 553.447C209.292 554.281 210.285 554.929 211.38 555.348C212.475 555.768 213.647 555.948 214.817 555.877L228.087 555.073C228.702 555.036 229.301 554.863 229.842 554.568C230.383 554.273 230.852 553.863 231.216 553.366C231.58 552.869 231.83 552.298 231.949 551.694C232.068 551.089 232.052 550.466 231.902 549.869L224.537 520.406L208.007 521.232Z" fill="white"/>
<path d="M319.003 536.509C334.62 540.163 345.777 545.356 353.106 552.384C355.716 554.867 359.131 556.331 362.729 556.509C367.326 556.751 371.084 556.236 373.909 554.974H373.909C374.633 554.655 375.258 554.148 375.719 553.506C376.181 552.864 376.462 552.111 376.534 551.323C376.619 550.523 376.489 549.715 376.157 548.982C375.825 548.25 375.303 547.619 374.645 547.156L337.606 520.802L321.873 527.096L318.202 530.766C317.805 531.163 317.505 531.648 317.327 532.18C317.148 532.713 317.096 533.28 317.173 533.837C317.251 534.393 317.456 534.924 317.774 535.388C318.091 535.852 318.512 536.236 319.003 536.509H319.003Z" fill="white"/>
<path d="M270.94 114.695L165.067 113.714C165.333 98.2936 168.921 83.151 176.764 69.6005C181.914 60.701 181.803 51.0158 180.562 42.8561C178.646 30.2641 183.101 17.3806 192.999 9.3649C200.563 3.22855 210.11 0.0697977 219.842 0.483568L221.897 0.569216C228.594 0.847508 235.113 2.80363 240.856 6.25798C246.6 9.71233 251.383 14.5542 254.768 20.3391C258.208 26.5146 259.595 33.624 258.729 40.6398C258.058 47.2411 259.664 53.9096 263.42 60.6416C269.9 75.4242 271.303 94.3404 270.94 114.695Z" fill="#333333"/>
<path d="M341.775 522.176L320.996 527.597L219.813 307.161L226.137 522.176H205.358C183.154 421.017 143.067 304.269 161.09 267.41L268.597 261.086L341.775 522.176Z" fill="#4200FF"/>
<path d="M218.909 77.6913C234.376 77.6913 246.915 65.1525 246.915 49.6851C246.915 34.2177 234.376 21.679 218.909 21.679C203.442 21.679 190.903 34.2177 190.903 49.6851C190.903 65.1525 203.442 77.6913 218.909 77.6913Z" fill="#FFB9B9"/>
<path d="M243.302 101.18L197.227 98.47C201.742 88.1062 203.546 78.1264 201.744 68.657H236.074C235.996 75.9276 239.614 88.5044 243.302 101.18Z" fill="#FFB9B9"/>
<path d="M272.211 269.217L171.028 276.445L181.417 97.1151L199.034 92.1461L218.909 96.6631L238.784 86.7251L251.432 91.2431L272.211 269.217Z" fill="#4200FF"/>
<path d="M188.193 398.407L119.081 382.597C139.631 314.449 176.654 158.546 164.704 102.987L200.841 86.7256L188.193 398.407Z" fill="white"/>
<path d="M154.766 201.461L128.567 185.199L150.91 119.759C153.402 113.007 158.175 107.337 164.404 103.731L171.931 99.3735L167.414 165.324L154.766 201.461Z" fill="white"/>
<path d="M332.289 383.501C310.476 396.121 255.95 403.156 232.009 394.342C230.247 332.769 226.792 158.603 237.881 84.9187L277.632 101.18L274.018 149.965C255.014 191.698 310.198 337.054 332.289 383.501Z" fill="white"/>
<path d="M329.127 193.33L304.734 185.199L272.211 148.158L277.632 101.18L331.837 177.068L329.127 193.33Z" fill="white"/>
<path d="M252.681 228.494C253.08 230.245 254.158 231.767 255.677 232.725C257.196 233.684 259.034 234 260.786 233.606L281.492 228.917L278.5 215.7L257.793 220.389C256.041 220.786 254.518 221.863 253.559 223.383C252.6 224.903 252.285 226.741 252.681 228.494Z" fill="#FFB9B9"/>
<path d="M243.302 42.4576C227.746 36.0611 212.382 35.5982 197.227 41.5541L190.903 18.9685H248.722L243.302 42.4576Z" fill="#333333"/>
<path d="M271.308 213.205L283.052 234.887C302.806 229.378 319.926 212.008 336.354 191.523L331.837 177.068L303.831 184.295L271.308 213.205Z" fill="white"/>
<path d="M262.725 168.486H259.111C259.111 117.375 248.588 81.7568 238.333 81.7568L237.429 78.1431C246.626 78.1431 252.49 92.9671 255.789 105.403C260.262 122.263 262.725 144.666 262.725 168.486Z" fill="#333333"/>
<path d="M179.61 155.837H175.996C175.996 109.028 186.593 79.9497 202.196 79.9497L201.292 83.5634C190.5 83.5634 179.61 105.911 179.61 155.837Z" fill="#333333"/>
<path d="M260.918 178.423C265.908 178.423 269.953 174.378 269.953 169.389C269.953 164.399 265.908 160.354 260.918 160.354C255.929 160.354 251.884 164.399 251.884 169.389C251.884 174.378 255.929 178.423 260.918 178.423Z" fill="#333333"/>
<path d="M165.155 177.52H161.542C161.542 164.568 168.836 154.031 177.803 154.031V157.644C170.829 157.644 165.155 166.56 165.155 177.52Z" fill="#333333"/>
<path d="M194.065 177.52H190.451C190.451 166.56 184.777 157.644 177.803 157.644V154.031C186.77 154.031 194.065 164.568 194.065 177.52Z" fill="#333333"/>
<path d="M192.258 182.037C194.254 182.037 195.872 180.419 195.872 178.423C195.872 176.427 194.254 174.809 192.258 174.809C190.262 174.809 188.644 176.427 188.644 178.423C188.644 180.419 190.262 182.037 192.258 182.037Z" fill="#333333"/>
<path d="M163.348 182.037C165.344 182.037 166.962 180.419 166.962 178.423C166.962 176.427 165.344 174.809 163.348 174.809C161.353 174.809 159.735 176.427 159.735 178.423C159.735 180.419 161.353 182.037 163.348 182.037Z" fill="#333333"/>
<path d="M118.177 145.193L140.724 149.219L192.258 222.495L164.88 216.053L118.177 145.193Z" fill="#4200FF"/>
<path d="M114.178 144.296C113.834 144.301 113.498 144.398 113.205 144.578C112.912 144.757 112.673 145.012 112.512 145.316C112.351 145.619 112.275 145.961 112.291 146.304C112.308 146.647 112.416 146.98 112.604 147.267L160.776 220.355C161.045 220.763 161.46 221.053 161.936 221.165L184.349 226.438C184.727 226.527 185.123 226.499 185.484 226.358C185.846 226.217 186.156 225.969 186.373 225.647C186.591 225.326 186.705 224.945 186.702 224.557C186.698 224.169 186.576 223.791 186.353 223.474L133.464 148.272C133.321 148.067 133.138 147.892 132.927 147.758C132.716 147.624 132.481 147.532 132.235 147.489L114.539 144.329C114.42 144.307 114.299 144.296 114.178 144.296Z" fill="#333333"/>
<path d="M144.227 196.553L145.566 210.038L166.693 207.941C168.481 207.764 170.125 206.883 171.264 205.493C172.403 204.103 172.944 202.317 172.766 200.529C172.589 198.741 171.708 197.096 170.318 195.957C168.928 194.818 167.142 194.278 165.354 194.456L144.227 196.553Z" fill="#FFB9B9"/>
<path d="M125.857 194.991C125.887 199.589 127.734 203.989 130.995 207.231C134.255 210.474 138.665 212.296 143.263 212.302H146.737L149.266 191.226L128.326 183.688L125.857 194.991Z" fill="white"/>
<path d="M755.757 113.6C756.751 113.6 757.557 112.794 757.557 111.8C757.557 110.806 756.751 110 755.757 110C754.763 110 753.957 110.806 753.957 111.8C753.957 112.794 754.763 113.6 755.757 113.6Z" fill="#6C63FF"/>
<path d="M749.007 107.3C750.001 107.3 750.807 106.494 750.807 105.5C750.807 104.506 750.001 103.7 749.007 103.7C748.013 103.7 747.207 104.506 747.207 105.5C747.207 106.494 748.013 107.3 749.007 107.3Z" fill="#6C63FF"/>
<path d="M769.878 79.4418C770.873 79.4418 771.678 78.6359 771.678 77.6418C771.678 76.6477 770.873 75.8418 769.878 75.8418C768.884 75.8418 768.078 76.6477 768.078 77.6418C768.078 78.6359 768.884 79.4418 769.878 79.4418Z" fill="#6C63FF"/>
<path d="M774.113 71.2367C775.107 71.2367 775.913 70.4308 775.913 69.4367C775.913 68.4426 775.107 67.6367 774.113 67.6367C773.119 67.6367 772.313 68.4426 772.313 69.4367C772.313 70.4308 773.119 71.2367 774.113 71.2367Z" fill="#6C63FF"/>
<path d="M25.1764 490.243C39.5961 509.554 69.5284 511.587 69.5284 511.587C69.5284 511.587 76.082 482.31 61.6623 462.999C47.2427 443.688 17.3103 441.655 17.3103 441.655C17.3103 441.655 10.7568 470.932 25.1764 490.243Z" fill="#E0E0E0"/>
<path d="M98.6331 497.503C89.1181 510.245 69.3666 511.587 69.3666 511.587C69.3666 511.587 65.0421 492.268 74.5572 479.525C84.0723 466.782 103.824 465.441 103.824 465.441C103.824 465.441 108.148 484.76 98.6331 497.503Z" fill="#E0E0E0"/>
</svg>
