<svg width="100" height="100" viewBox="0 0 100 100" fill="none" xmlns="http://www.w3.org/2000/svg">
<mask id="mask0" mask-type="alpha" maskUnits="userSpaceOnUse" x="0" y="0" width="100" height="100">
<circle cx="50" cy="50" r="50" fill="#F2F2F2"/>
</mask>
<g mask="url(#mask0)">
<path d="M49.5 118C87.3315 118 118 87.3316 118 49.5001C118 11.6686 87.3315 -19 49.5 -19C11.6685 -19 -19 11.6686 -19 49.5001C-19 87.3316 11.6685 118 49.5 118Z" fill="#4200FF"/>
<path d="M47.9245 7.71639C32.7225 7.71639 20.3989 21.3929 20.3989 38.2637V59.6983H26.9911L30.8077 51.7566L29.8535 59.6983H72.2262L75.6958 52.4786L74.8285 59.6983H79.5992V42.8684C79.5992 23.4545 65.4179 7.71639 47.9245 7.71639Z" fill="#2F2E41"/>
<path d="M25.7103 101.939H7.80701L7.63791 87.3379C7.62986 87.1849 7.62985 87.0399 7.62985 86.8869L11.2137 82.8521L11.2781 82.7796L24.9613 91.4453L25.7103 101.939Z" fill="#D0CDE1"/>
<path d="M45.489 56.7032C56.3112 56.7032 65.0844 47.93 65.0844 37.1078C65.0844 26.2855 56.3112 17.5123 45.489 17.5123C34.6667 17.5123 25.8935 26.2855 25.8935 37.1078C25.8935 47.93 34.6667 56.7032 45.489 56.7032Z" fill="#FFCFCF"/>
<path d="M34.2543 48.8649C34.2543 48.8649 40.0023 78.65 37.3896 81.7852C34.7769 84.9205 65.0845 76.0372 65.0845 76.0372C65.0845 76.0372 55.1562 55.658 60.3816 44.162L34.2543 48.8649Z" fill="#FFCFCF"/>
<path d="M87.4175 69.0078H87.4094C86.9476 68.0316 86.15 67.2541 85.1624 66.8173C81.3208 65.1985 78.0108 63.9582 75.2887 63.0159C70.4738 61.3633 65.2211 61.5266 60.5182 63.475C60.0592 63.6602 59.6082 63.8616 59.1652 64.0871C59.1652 64.0871 40.0056 67.7354 37.7264 67.2763C37.5573 67.2441 37.3801 67.2199 37.211 67.2038C36.8666 67.1543 36.5198 67.1248 36.1721 67.1152C31.7137 66.9082 27.2917 68.0053 23.4472 70.2723C17.1573 73.9206 7.83125 80.3877 7.63796 86.6856L7.46075 86.887L7.63796 101.939H91.7342C91.9033 87.5151 92 76.6749 92 75.9421C92 73.6629 87.4175 69.0078 87.4175 69.0078Z" fill="#FFE9B8"/>
<path d="M55.7495 16.1312C54.4249 14.3525 52.7083 12.9029 50.733 11.8949C48.7576 10.8868 46.5766 10.3475 44.3591 10.3186H43.8187C33.3993 10.3186 24.9527 19.747 24.9527 31.3775V31.3776H28.4439L29.0078 27.0859L29.8344 31.3776H50.5411L52.2759 27.7467L51.8421 31.3776H55.9158C57.8167 40.8178 55.0855 50.2581 47.7221 59.6983H54.6613L58.1309 52.4365L57.2635 59.6983H70.4914L73.0936 42.9963C73.0936 30.488 65.826 19.8813 55.7495 16.1312Z" fill="#2F2E41"/>
<path d="M59.5526 17.8899C65.2465 17.8899 69.8622 13.2741 69.8622 7.58026C69.8622 1.88642 65.2465 -2.72937 59.5526 -2.72937C53.8588 -2.72937 49.243 1.88642 49.243 7.58026C49.243 13.2741 53.8588 17.8899 59.5526 17.8899Z" fill="#2F2E41"/>
</g>
</svg>
