<svg width="86" height="86" viewBox="0 0 86 86" fill="none" xmlns="http://www.w3.org/2000/svg">
<g filter="url(#filter0_d)">
<circle cx="43" cy="41" r="31" fill="#C4C4C4"/>
</g>
<mask id="mask0" mask-type="alpha" maskUnits="userSpaceOnUse" x="12" y="10" width="62" height="62">
<circle cx="43" cy="41" r="31" fill="#F2F2F2"/>
</mask>
<g mask="url(#mask0)">
<path d="M42.6902 83.16C66.1457 83.16 85.1602 64.1455 85.1602 40.69C85.1602 17.2345 66.1457 -1.78003 42.6902 -1.78003C19.2347 -1.78003 0.220215 17.2345 0.220215 40.69C0.220215 64.1455 19.2347 83.16 42.6902 83.16Z" fill="#4200FF"/>
<path d="M41.7133 14.7842C32.2881 14.7842 24.6475 23.2636 24.6475 33.7235V47.013H28.7346L31.1009 42.0891L30.5093 47.013H56.7804L58.9315 42.5367L58.3938 47.013H61.3517V36.5784C61.3517 24.5418 52.5593 14.7842 41.7133 14.7842Z" fill="#2F2E41"/>
<path d="M27.9408 73.2023H16.8408L16.736 64.1495C16.731 64.0547 16.731 63.9648 16.731 63.8699L18.953 61.3683L18.9929 61.3234L27.4764 66.6961L27.9408 73.2023Z" fill="#D0CDE1"/>
<path d="M40.2034 45.1559C46.9132 45.1559 52.3525 39.7165 52.3525 33.0067C52.3525 26.2969 46.9132 20.8575 40.2034 20.8575C33.4936 20.8575 28.0542 26.2969 28.0542 33.0067C28.0542 39.7165 33.4936 45.1559 40.2034 45.1559Z" fill="#FFCFCF"/>
<path d="M33.2378 40.2962C33.2378 40.2962 36.8016 58.7629 35.1817 60.7068C33.5618 62.6506 52.3525 57.143 52.3525 57.143C52.3525 57.143 46.197 44.5079 49.4367 37.3804L33.2378 40.2962Z" fill="#FFCFCF"/>
<path d="M66.1991 52.7848H66.1941C65.9078 52.1796 65.4133 51.6975 64.801 51.4267C62.4192 50.423 60.367 49.654 58.6793 49.0698C55.6941 48.0452 52.4374 48.1464 49.5216 49.3544C49.237 49.4693 48.9574 49.5941 48.6828 49.7339C48.6828 49.7339 36.8038 51.9959 35.3907 51.7113C35.2858 51.6913 35.176 51.6763 35.0711 51.6663C34.8576 51.6356 34.6426 51.6173 34.427 51.6114C31.6628 51.483 28.9212 52.1632 26.5376 53.5688C22.6379 55.8307 16.8557 59.8403 16.7358 63.745L16.626 63.8699L16.7358 73.2023H68.8755C68.9804 64.2593 69.0403 57.5384 69.0403 57.084C69.0403 55.671 66.1991 52.7848 66.1991 52.7848Z" fill="#FFE9B8"/>
<path d="M46.5647 20.0014C45.7435 18.8986 44.6792 17.9999 43.4545 17.3749C42.2298 16.7499 40.8775 16.4155 39.5027 16.3976H39.1676C32.7076 16.3976 27.4707 22.2432 27.4707 29.4541V29.4542H29.6353L29.9849 26.7933L30.4974 29.4542H43.3355L44.4111 27.203L44.1422 29.4542H46.6678C47.8464 35.3071 46.153 41.16 41.5877 47.013H45.89L48.0412 42.5107L47.5034 47.013H55.7047L57.3181 36.6577C57.3181 28.9026 52.8121 22.3265 46.5647 20.0014Z" fill="#2F2E41"/>
<path d="M48.9227 21.0918C52.4529 21.0918 55.3147 18.23 55.3147 14.6998C55.3147 11.1697 52.4529 8.30786 48.9227 8.30786C45.3925 8.30786 42.5308 11.1697 42.5308 14.6998C42.5308 18.23 45.3925 21.0918 48.9227 21.0918Z" fill="#2F2E41"/>
<g filter="url(#filter1_d)">
<circle cx="43" cy="41" r="31" fill="#C4C4C4"/>
</g>
</g>
<mask id="mask1" mask-type="alpha" maskUnits="userSpaceOnUse" x="12" y="10" width="62" height="62">
<circle cx="43" cy="41" r="31" fill="#F2F2F2"/>
</mask>
<g mask="url(#mask1)">
<path d="M42.6902 83.16C66.1457 83.16 85.1602 64.1455 85.1602 40.69C85.1602 17.2345 66.1457 -1.78003 42.6902 -1.78003C19.2347 -1.78003 0.220215 17.2345 0.220215 40.69C0.220215 64.1455 19.2347 83.16 42.6902 83.16Z" fill="#4200FF"/>
<path d="M41.7133 14.7842C32.2881 14.7842 24.6475 23.2636 24.6475 33.7235V47.013H28.7346L31.1009 42.0891L30.5093 47.013H56.7804L58.9315 42.5367L58.3938 47.013H61.3517V36.5784C61.3517 24.5418 52.5593 14.7842 41.7133 14.7842Z" fill="#2F2E41"/>
<path d="M27.9408 73.2023H16.8408L16.736 64.1495C16.731 64.0547 16.731 63.9648 16.731 63.8699L18.953 61.3683L18.9929 61.3234L27.4764 66.6961L27.9408 73.2023Z" fill="#D0CDE1"/>
<path d="M40.2034 45.1559C46.9132 45.1559 52.3525 39.7165 52.3525 33.0067C52.3525 26.2969 46.9132 20.8575 40.2034 20.8575C33.4936 20.8575 28.0542 26.2969 28.0542 33.0067C28.0542 39.7165 33.4936 45.1559 40.2034 45.1559Z" fill="#FFCFCF"/>
<path d="M33.2378 40.2962C33.2378 40.2962 36.8016 58.7629 35.1817 60.7068C33.5618 62.6506 52.3525 57.143 52.3525 57.143C52.3525 57.143 46.197 44.5079 49.4367 37.3804L33.2378 40.2962Z" fill="#FFCFCF"/>
<path d="M66.1991 52.7848H66.1941C65.9078 52.1796 65.4133 51.6975 64.801 51.4267C62.4192 50.423 60.367 49.654 58.6793 49.0698C55.6941 48.0452 52.4374 48.1464 49.5216 49.3544C49.237 49.4693 48.9574 49.5941 48.6828 49.7339C48.6828 49.7339 36.8038 51.9959 35.3907 51.7113C35.2858 51.6913 35.176 51.6763 35.0711 51.6663C34.8576 51.6356 34.6426 51.6173 34.427 51.6114C31.6628 51.483 28.9212 52.1632 26.5376 53.5688C22.6379 55.8307 16.8557 59.8403 16.7358 63.745L16.626 63.8699L16.7358 73.2023H68.8755C68.9804 64.2593 69.0403 57.5384 69.0403 57.084C69.0403 55.671 66.1991 52.7848 66.1991 52.7848Z" fill="#FFE9B8"/>
<path d="M46.5647 20.0014C45.7435 18.8986 44.6792 17.9999 43.4545 17.3749C42.2298 16.7499 40.8775 16.4155 39.5027 16.3976H39.1676C32.7076 16.3976 27.4707 22.2432 27.4707 29.4541V29.4542H29.6353L29.9849 26.7933L30.4974 29.4542H43.3355L44.4111 27.203L44.1422 29.4542H46.6678C47.8464 35.3071 46.153 41.16 41.5877 47.013H45.89L48.0412 42.5107L47.5034 47.013H55.7047L57.3181 36.6577C57.3181 28.9026 52.8121 22.3265 46.5647 20.0014Z" fill="#2F2E41"/>
<path d="M48.9227 21.0918C52.4529 21.0918 55.3147 18.23 55.3147 14.6998C55.3147 11.1697 52.4529 8.30786 48.9227 8.30786C45.3925 8.30786 42.5308 11.1697 42.5308 14.6998C42.5308 18.23 45.3925 21.0918 48.9227 21.0918Z" fill="#2F2E41"/>
<g filter="url(#filter2_d)">
<circle cx="43" cy="41" r="31" fill="#C4C4C4"/>
</g>
</g>
<mask id="mask2" mask-type="alpha" maskUnits="userSpaceOnUse" x="12" y="10" width="62" height="62">
<circle cx="43" cy="41" r="31" fill="#F2F2F2"/>
</mask>
<g mask="url(#mask2)">
<path d="M42.6902 83.16C66.1457 83.16 85.1602 64.1455 85.1602 40.69C85.1602 17.2345 66.1457 -1.78003 42.6902 -1.78003C19.2347 -1.78003 0.220215 17.2345 0.220215 40.69C0.220215 64.1455 19.2347 83.16 42.6902 83.16Z" fill="#4200FF"/>
<path d="M41.7133 14.7842C32.2881 14.7842 24.6475 23.2636 24.6475 33.7235V47.013H28.7346L31.1009 42.0891L30.5093 47.013H56.7804L58.9315 42.5367L58.3938 47.013H61.3517V36.5784C61.3517 24.5418 52.5593 14.7842 41.7133 14.7842Z" fill="#2F2E41"/>
<path d="M27.9408 73.2023H16.8408L16.736 64.1495C16.731 64.0547 16.731 63.9648 16.731 63.8699L18.953 61.3683L18.9929 61.3234L27.4764 66.6961L27.9408 73.2023Z" fill="#D0CDE1"/>
<path d="M40.2034 45.1559C46.9132 45.1559 52.3525 39.7165 52.3525 33.0067C52.3525 26.2969 46.9132 20.8575 40.2034 20.8575C33.4936 20.8575 28.0542 26.2969 28.0542 33.0067C28.0542 39.7165 33.4936 45.1559 40.2034 45.1559Z" fill="#FFCFCF"/>
<path d="M33.2378 40.2962C33.2378 40.2962 36.8016 58.7629 35.1817 60.7068C33.5618 62.6506 52.3525 57.143 52.3525 57.143C52.3525 57.143 46.197 44.5079 49.4367 37.3804L33.2378 40.2962Z" fill="#FFCFCF"/>
<path d="M66.1991 52.7848H66.1941C65.9078 52.1796 65.4133 51.6975 64.801 51.4267C62.4192 50.423 60.367 49.654 58.6793 49.0698C55.6941 48.0452 52.4374 48.1464 49.5216 49.3544C49.237 49.4693 48.9574 49.5941 48.6828 49.7339C48.6828 49.7339 36.8038 51.9959 35.3907 51.7113C35.2858 51.6913 35.176 51.6763 35.0711 51.6663C34.8576 51.6356 34.6426 51.6173 34.427 51.6114C31.6628 51.483 28.9212 52.1632 26.5376 53.5688C22.6379 55.8307 16.8557 59.8403 16.7358 63.745L16.626 63.8699L16.7358 73.2023H68.8755C68.9804 64.2593 69.0403 57.5384 69.0403 57.084C69.0403 55.671 66.1991 52.7848 66.1991 52.7848Z" fill="#FFE9B8"/>
<path d="M46.5647 20.0014C45.7435 18.8986 44.6792 17.9999 43.4545 17.3749C42.2298 16.7499 40.8775 16.4155 39.5027 16.3976H39.1676C32.7076 16.3976 27.4707 22.2432 27.4707 29.4541V29.4542H29.6353L29.9849 26.7933L30.4974 29.4542H43.3355L44.4111 27.203L44.1422 29.4542H46.6678C47.8464 35.3071 46.153 41.16 41.5877 47.013H45.89L48.0412 42.5107L47.5034 47.013H55.7047L57.3181 36.6577C57.3181 28.9026 52.8121 22.3265 46.5647 20.0014Z" fill="#2F2E41"/>
<path d="M48.9227 21.0918C52.4529 21.0918 55.3147 18.23 55.3147 14.6998C55.3147 11.1697 52.4529 8.30786 48.9227 8.30786C45.3925 8.30786 42.5308 11.1697 42.5308 14.6998C42.5308 18.23 45.3925 21.0918 48.9227 21.0918Z" fill="#2F2E41"/>
<g filter="url(#filter3_d)">
<circle cx="43" cy="41" r="31" fill="#C4C4C4"/>
</g>
</g>
<mask id="mask3" mask-type="alpha" maskUnits="userSpaceOnUse" x="12" y="10" width="62" height="62">
<circle cx="43" cy="41" r="31" fill="#F2F2F2"/>
</mask>
<g mask="url(#mask3)">
<path d="M42.6902 83.16C66.1457 83.16 85.1602 64.1455 85.1602 40.69C85.1602 17.2345 66.1457 -1.78003 42.6902 -1.78003C19.2347 -1.78003 0.220215 17.2345 0.220215 40.69C0.220215 64.1455 19.2347 83.16 42.6902 83.16Z" fill="#4200FF"/>
<path d="M41.7133 14.7842C32.2881 14.7842 24.6475 23.2636 24.6475 33.7235V47.013H28.7346L31.1009 42.0891L30.5093 47.013H56.7804L58.9315 42.5367L58.3938 47.013H61.3517V36.5784C61.3517 24.5418 52.5593 14.7842 41.7133 14.7842Z" fill="#2F2E41"/>
<path d="M27.9408 73.2023H16.8408L16.736 64.1495C16.731 64.0547 16.731 63.9648 16.731 63.8699L18.953 61.3683L18.9929 61.3234L27.4764 66.6961L27.9408 73.2023Z" fill="#D0CDE1"/>
<path d="M40.2034 45.1559C46.9132 45.1559 52.3525 39.7165 52.3525 33.0067C52.3525 26.2969 46.9132 20.8575 40.2034 20.8575C33.4936 20.8575 28.0542 26.2969 28.0542 33.0067C28.0542 39.7165 33.4936 45.1559 40.2034 45.1559Z" fill="#FFCFCF"/>
<path d="M33.2378 40.2962C33.2378 40.2962 36.8016 58.7629 35.1817 60.7068C33.5618 62.6506 52.3525 57.143 52.3525 57.143C52.3525 57.143 46.197 44.5079 49.4367 37.3804L33.2378 40.2962Z" fill="#FFCFCF"/>
<path d="M66.1991 52.7848H66.1941C65.9078 52.1796 65.4133 51.6975 64.801 51.4267C62.4192 50.423 60.367 49.654 58.6793 49.0698C55.6941 48.0452 52.4374 48.1464 49.5216 49.3544C49.237 49.4693 48.9574 49.5941 48.6828 49.7339C48.6828 49.7339 36.8038 51.9959 35.3907 51.7113C35.2858 51.6913 35.176 51.6763 35.0711 51.6663C34.8576 51.6356 34.6426 51.6173 34.427 51.6114C31.6628 51.483 28.9212 52.1632 26.5376 53.5688C22.6379 55.8307 16.8557 59.8403 16.7358 63.745L16.626 63.8699L16.7358 73.2023H68.8755C68.9804 64.2593 69.0403 57.5384 69.0403 57.084C69.0403 55.671 66.1991 52.7848 66.1991 52.7848Z" fill="#FFE9B8"/>
<path d="M46.5647 20.0014C45.7435 18.8986 44.6792 17.9999 43.4545 17.3749C42.2298 16.7499 40.8775 16.4155 39.5027 16.3976H39.1676C32.7076 16.3976 27.4707 22.2432 27.4707 29.4541V29.4542H29.6353L29.9849 26.7933L30.4974 29.4542H43.3355L44.4111 27.203L44.1422 29.4542H46.6678C47.8464 35.3071 46.153 41.16 41.5877 47.013H45.89L48.0412 42.5107L47.5034 47.013H55.7047L57.3181 36.6577C57.3181 28.9026 52.8121 22.3265 46.5647 20.0014Z" fill="#2F2E41"/>
<path d="M48.9227 21.0918C52.4529 21.0918 55.3147 18.23 55.3147 14.6998C55.3147 11.1697 52.4529 8.30786 48.9227 8.30786C45.3925 8.30786 42.5308 11.1697 42.5308 14.6998C42.5308 18.23 45.3925 21.0918 48.9227 21.0918Z" fill="#2F2E41"/>
</g>
<defs>
<filter id="filter0_d" x="0" y="0" width="86" height="86" filterUnits="userSpaceOnUse" color-interpolation-filters="sRGB">
<feFlood flood-opacity="0" result="BackgroundImageFix"/>
<feColorMatrix in="SourceAlpha" type="matrix" values="0 0 0 0 0 0 0 0 0 0 0 0 0 0 0 0 0 0 127 0"/>
<feOffset dy="2"/>
<feGaussianBlur stdDeviation="6"/>
<feColorMatrix type="matrix" values="0 0 0 0 0 0 0 0 0 0 0 0 0 0 0 0 0 0 0.18 0"/>
<feBlend mode="normal" in2="BackgroundImageFix" result="effect1_dropShadow"/>
<feBlend mode="normal" in="SourceGraphic" in2="effect1_dropShadow" result="shape"/>
</filter>
<filter id="filter1_d" x="0" y="0" width="86" height="86" filterUnits="userSpaceOnUse" color-interpolation-filters="sRGB">
<feFlood flood-opacity="0" result="BackgroundImageFix"/>
<feColorMatrix in="SourceAlpha" type="matrix" values="0 0 0 0 0 0 0 0 0 0 0 0 0 0 0 0 0 0 127 0"/>
<feOffset dy="2"/>
<feGaussianBlur stdDeviation="6"/>
<feColorMatrix type="matrix" values="0 0 0 0 0 0 0 0 0 0 0 0 0 0 0 0 0 0 0.18 0"/>
<feBlend mode="normal" in2="BackgroundImageFix" result="effect1_dropShadow"/>
<feBlend mode="normal" in="SourceGraphic" in2="effect1_dropShadow" result="shape"/>
</filter>
<filter id="filter2_d" x="0" y="0" width="86" height="86" filterUnits="userSpaceOnUse" color-interpolation-filters="sRGB">
<feFlood flood-opacity="0" result="BackgroundImageFix"/>
<feColorMatrix in="SourceAlpha" type="matrix" values="0 0 0 0 0 0 0 0 0 0 0 0 0 0 0 0 0 0 127 0"/>
<feOffset dy="2"/>
<feGaussianBlur stdDeviation="6"/>
<feColorMatrix type="matrix" values="0 0 0 0 0 0 0 0 0 0 0 0 0 0 0 0 0 0 0.18 0"/>
<feBlend mode="normal" in2="BackgroundImageFix" result="effect1_dropShadow"/>
<feBlend mode="normal" in="SourceGraphic" in2="effect1_dropShadow" result="shape"/>
</filter>
<filter id="filter3_d" x="0" y="0" width="86" height="86" filterUnits="userSpaceOnUse" color-interpolation-filters="sRGB">
<feFlood flood-opacity="0" result="BackgroundImageFix"/>
<feColorMatrix in="SourceAlpha" type="matrix" values="0 0 0 0 0 0 0 0 0 0 0 0 0 0 0 0 0 0 127 0"/>
<feOffset dy="2"/>
<feGaussianBlur stdDeviation="6"/>
<feColorMatrix type="matrix" values="0 0 0 0 0 0 0 0 0 0 0 0 0 0 0 0 0 0 0.18 0"/>
<feBlend mode="normal" in2="BackgroundImageFix" result="effect1_dropShadow"/>
<feBlend mode="normal" in="SourceGraphic" in2="effect1_dropShadow" result="shape"/>
</filter>
</defs>
</svg>
