<svg width="283" height="242" viewBox="0 0 283 242" fill="none" xmlns="http://www.w3.org/2000/svg">
<path d="M196.561 171.951C244.044 171.951 282.537 133.459 282.537 85.9757C282.537 38.4926 244.044 0 196.561 0C149.078 0 110.586 38.4926 110.586 85.9757C110.586 133.459 149.078 171.951 196.561 171.951Z" fill="#FFCE62"/>
<path d="M19.1192 145.377L31.9141 135.143C21.9743 134.047 17.8903 139.468 16.2188 143.758C8.45348 140.534 0 144.76 0 144.76L25.6001 154.053C24.3086 150.604 22.0605 147.594 19.1192 145.377Z" fill="#3F3D56"/>
<path d="M130.119 232.377L142.914 222.143C132.974 221.047 128.89 226.468 127.219 230.758C119.453 227.534 111 231.76 111 231.76L136.6 241.053C135.309 237.604 133.061 234.594 130.119 232.377Z" fill="#3F3D56"/>
</svg>
