<svg width="297" height="767" viewBox="0 0 297 767" fill="none" xmlns="http://www.w3.org/2000/svg">
<path d="M130.329 273.674H97.2536C79.0996 273.674 61.6916 289.589 62.4377 308.49C63.1838 327.39 77.8562 343.305 97.2536 343.305H130.329C148.483 343.305 165.891 327.39 165.145 308.49C164.398 289.589 149.726 273.674 130.329 273.674Z" fill="#333333"/>
<path d="M110.434 734.735L110.931 307.743C110.931 288.843 95.0153 272.928 76.1152 272.928C57.2152 272.928 41.2994 288.843 41.2994 307.743L40.802 734.735H110.434Z" fill="#333333"/>
<path d="M122.371 734.735L121.873 307.743C121.873 288.843 137.789 272.928 156.689 272.928C175.589 272.928 191.505 288.843 191.505 307.743L192.002 734.735H122.371Z" fill="#333333"/>
<path d="M40.8021 734.735C41.5481 751.148 35.331 740.952 21.6533 752.143C12.452 759.604 13.4467 766.318 13.4467 766.318H110.434V734H40.8021V734.735Z" fill="white"/>
<path d="M192.002 734.735C191.256 751.148 207.421 740.952 221.098 752.143C230.3 759.604 229.305 766.318 229.305 766.318H122.371V734H192.002V734.735Z" fill="white"/>
<path d="M132.567 537.031L126.349 554.439C125.852 555.931 128.09 556.677 128.836 555.185C130.826 549.465 133.064 543.497 135.053 537.777C135.551 536.036 133.064 535.539 132.567 537.031Z" fill="#FCF2DC"/>
<path d="M72.1364 568.365C71.8877 566.873 69.4008 566.873 69.6495 568.365L79.5969 647.944C79.8456 649.436 82.3325 649.436 82.0838 647.944L72.1364 568.365Z" fill="#FCF2DC"/>
<path d="M149.726 339.575C142.266 340.072 134.805 340.57 127.344 340.819C125.852 340.819 125.852 343.305 127.344 343.305C134.805 342.808 142.266 342.311 149.726 342.062C151.467 342.062 151.467 339.575 149.726 339.575Z" fill="#FCF2DC"/>
<path d="M66.9139 746.424L43.2889 742.693C41.7968 742.445 41.0507 744.931 42.5428 745.18C50.5007 746.424 58.21 747.667 66.1679 748.91C67.66 749.159 68.406 746.672 66.9139 746.424Z" fill="#333333"/>
<path d="M189.516 741.201C182.552 741.947 175.341 742.942 168.377 743.688C166.885 743.937 166.885 746.423 168.377 746.175C175.341 745.429 182.552 744.434 189.516 743.688C191.256 743.439 191.256 740.952 189.516 741.201Z" fill="#333333"/>
<path d="M116.154 11.3112C143.012 4.34798 149.229 -7.34021 155.943 6.33746C162.658 20.0151 152.71 21.2585 157.933 31.2059C163.155 41.1533 152.959 51.1007 143.509 47.8678C134.059 44.6349 116.154 11.3112 116.154 11.3112Z" fill="#333333"/>
<path d="M92.2797 57.3179C83.8245 63.7837 92.0311 78.4561 82.3324 74.7258C76.1152 72.4876 70.6442 77.9587 69.1521 87.9061C66.1678 105.314 59.9507 76.2179 41.7967 92.8798C23.6427 109.542 26.1296 87.9061 11.2085 105.314C11.2085 105.314 27.8704 115.261 47.7652 138.389C67.66 161.517 134.805 121.727 162.16 127.696C162.16 127.696 176.335 120.981 170.367 107.055C164.647 92.8798 156.192 104.568 158.679 86.414C161.165 68.26 150.472 81.4403 147.985 71.4929C145.498 61.5455 157.933 31.7033 130.577 33.4441C102.973 34.9362 92.2797 57.3179 92.2797 57.3179Z" fill="#333333"/>
<path d="M106.739 72.1365C101.941 97.1133 99.2513 111.117 94.4534 136.093C90.3581 157.071 122.608 166.025 126.448 145.047C130.543 123.814 134.638 102.324 138.734 81.0905C142.829 59.8568 110.834 50.9029 106.739 72.1365Z" fill="#FCF2DC"/>
<path d="M115.159 63.7837C114.661 78.9535 123.131 85.5684 130.095 98.5C130.095 103 131.595 118.5 131.595 118.5C135.325 109.05 136.794 93.8745 138.784 82.435C142.017 67.5139 125.355 58.81 115.159 63.7837Z" fill="#333333"/>
<path d="M152.959 57.8152C152.959 68.5087 152.213 80.1969 151.964 92.1337C151.715 100.838 134.556 102.081 118.64 94.1232C112.174 90.8903 105.957 86.414 101.232 80.4456C96.5073 74.2284 97.2533 68.5087 96.5072 59.3074C93.2743 20.5125 95.0151 7.82958 129.582 11.8085C149.726 14.0467 152.959 32.9467 152.959 57.8152Z" fill="#FCF2DC"/>
<path d="M98.5946 82C108.542 103.884 105.957 46.6244 103.719 28.9678C103.47 27.227 105.211 25.2375 106.703 24.9888C120.132 22.2533 133.561 22.7506 147.239 22.9993C149.228 14.7927 135.551 12.0572 126.847 11.0625C92.2795 7.08351 88.798 18.2743 92.0309 57.0691C93.0256 66.5192 93.8696 76.0316 98.5946 82Z" fill="#333333"/>
<path d="M125.355 39.6612C125.355 42.3968 125.355 45.1323 125.355 47.8678C125.355 49.3599 127.842 49.6086 127.842 48.1165C127.842 45.381 127.842 42.6454 127.842 39.9099C127.842 38.4178 125.355 38.1691 125.355 39.6612Z" fill="#333333"/>
<path d="M147.488 40.9046C147.488 43.6402 147.488 46.3757 147.488 49.1112C147.488 50.6033 149.975 51.1007 149.975 49.3599C149.975 46.6244 149.975 43.8889 149.975 41.1533C149.975 39.6612 147.488 39.4125 147.488 40.9046Z" fill="#333333"/>
<path d="M145.747 35.4336C146.99 36.4283 148.482 34.6875 147.488 33.6928C144.504 30.9573 140.773 32.9467 140.027 37.1744C139.281 40.656 141.022 45.1323 141.768 48.3652L145.498 65.5245C145.747 67.0166 147.985 66.5192 147.736 64.7784C146.742 60.3021 145.747 55.5771 144.752 51.1007C144.255 48.8626 143.757 46.6244 143.26 44.1375C143 42.837 143.011 42.6454 142.763 41.8994C141.5 37.5 142.265 34.4388 145.747 35.4336Z" fill="#333333"/>
<path d="M133.561 58.5613C126.35 58.0639 121.376 55.8257 116.402 50.6034C115.656 50.852 114.91 51.3494 114.413 51.8468C114.164 51.8468 113.667 72.985 113.667 83.4298C110.682 78.2074 107.947 72.7363 105.211 67.7626C104.465 66.2705 101.481 65.7731 102.227 67.2652C106.703 75.4718 111.677 87.4087 118.392 94.3719C134.307 102.081 151.846 101.204 152.095 92.5C152.343 80.5631 153.095 68.6934 153.095 58C146.878 58.4974 140.027 59.0586 133.561 58.5613Z" fill="#B3C7F8"/>
<path d="M107.947 40.656C88.7981 34.9362 75.6178 60.5507 107.947 69.7521V40.656Z" fill="#FCF2DC"/>
<path d="M106.952 55.577C104.217 52.5928 100.984 50.106 97.751 47.8678C96.2589 47.1217 95.0154 49.1112 96.5075 50.106C99.7405 52.0955 102.725 54.5823 105.212 57.3178C106.455 58.5613 108.196 56.8205 106.952 55.577Z" fill="#333333"/>
<path d="M105.709 60.5507C102.973 60.3021 101.73 57.3178 103.719 55.3283C104.714 54.0849 102.973 52.3441 101.978 53.5876C98.7455 57.3178 100.984 62.7889 105.957 63.0376C107.201 63.0376 107.201 60.5507 105.709 60.5507Z" fill="#333333"/>
<path d="M119.386 57.0691C117.894 52.8415 115.905 49.1112 113.418 45.3809C111.18 42.3967 108.444 39.1638 104.963 38.1691C103.471 37.6717 102.725 40.1586 104.217 40.6559C107.698 41.6507 110.682 45.8783 112.672 48.6139C114.661 51.3494 115.905 54.5823 117.148 57.8152C117.397 59.0586 119.884 58.5612 119.386 57.0691Z" fill="#B3C7F8"/>
<path d="M127.344 31.952C126.101 32.2007 124.857 32.698 123.614 32.9467C122.122 33.4441 122.619 35.6823 124.111 35.4336C125.355 35.1849 126.598 34.6875 127.842 34.4388C129.334 34.1902 128.836 31.7033 127.344 31.952Z" fill="#333333"/>
<path d="M125.355 20.0151C125.106 19.2691 123.863 19.2691 123.117 19.7664C122.868 19.0204 121.376 18.523 120.878 19.5177C115.905 27.7243 104.962 12.5546 98.4967 34.1901C98.248 35.4336 97.2533 36.1796 98.4967 36.677C104.714 38.9151 110.682 36.4283 115.905 33.1954C120.132 30.4599 124.609 27.227 125.355 22.0046C125.355 21.7559 125.603 21.7559 125.603 21.5072C126.101 20.7612 125.852 20.2638 125.355 20.0151Z" fill="#333333"/>
<path d="M196.727 319.432H11.4573C8.59478 176 10.4625 138.886 48.76 125.955C54.4798 123.965 61.1942 122.722 69.1522 121.727C74.6232 120.981 80.5917 120.732 87.3062 120.235C89.5443 120.235 92.0312 119.986 94.518 119.986C100.486 119.738 106.952 119.489 113.915 119.489C121.127 119.24 127.593 119.24 133.562 119.489C137.292 119.738 140.525 119.738 144.006 120.235C217.368 126.701 194.241 173.951 196.727 319.432Z" fill="#FCF2DC"/>
<path fill-rule="evenodd" clip-rule="evenodd" d="M237.313 120.917C237.679 119.722 238.041 118.56 238.392 117.433C239.291 114.547 240.117 111.896 240.745 109.542C240.869 109.293 240.931 109.106 240.994 108.92C241.043 108.772 241.092 108.624 241.173 108.445C242.444 98.0559 240.231 89.6697 238.217 82.0418C235.988 73.5996 234.005 66.0863 237.263 57.8152C243.48 41.402 254.423 34.1902 248.952 53.8363C243.48 74.2284 255.915 75.9692 256.909 51.5981C257.656 27.227 265.613 19.2691 266.359 33.4441C266.681 39.5473 266.31 46.1116 266.023 51.2114C265.642 57.9562 265.406 62.1395 267.106 59.3073C267.9 57.8951 268.036 53.413 268.193 48.2624C268.478 38.901 268.831 27.3313 273.323 27.973C277.662 28.438 276.979 39.4303 276.39 48.9123C276.034 54.6454 275.712 59.8264 276.556 61.7942C277.884 65.0637 277.995 60.1894 278.147 53.4838C278.366 43.8682 278.67 30.4869 282.773 31.952C286.772 33.2374 285.767 41.9869 284.847 50.0039C284.165 55.9465 283.529 61.4866 285.011 63.2863C286.784 65.3922 286.829 60.7795 286.883 55.0849C286.952 48.003 287.036 39.2477 290.482 39.6612C296.699 40.4073 298.937 86.1653 290.979 124.463C290.541 126.574 289.998 128.412 289.363 130.001C288.513 132.865 287.619 135.818 286.716 138.788C287.416 138.656 288.244 139.021 288.244 139.881V141.622C288.244 142.368 287.498 143.114 286.752 142.865C269.095 138.389 249.698 131.177 234.03 121.976C232.538 120.981 233.782 118.992 235.274 119.738C235.947 120.135 236.627 120.528 237.313 120.917Z" fill="#B3C7F8"/>
<path d="M253.428 73.7311C251.936 72.985 250.692 75.2232 252.184 75.9692C263.624 80.9429 269.841 93.3771 267.105 105.563C266.857 107.055 269.095 107.801 269.592 106.309C272.576 92.8798 265.862 79.2021 253.428 73.7311Z" fill="#333333"/>
<path d="M211.151 194.592C208.416 206.529 205.68 218.466 202.945 230.154C202.696 231.646 204.934 232.392 205.432 230.9C208.167 218.963 210.903 207.026 213.638 195.338C213.887 193.597 211.4 193.1 211.151 194.592Z" fill="#333333"/>
<path d="M193.121 197.452C193.121 195.96 190.634 195.96 190.634 197.452C192.375 226.548 194.116 274.034 195.608 303.13C195.608 304.622 198.095 304.622 198.095 303.13C196.603 274.034 194.862 226.3 193.121 197.452Z" fill="#333333"/>
<path d="M95.5128 350.766H33.3416V454.468C33.3416 454.468 101.233 458.695 101.233 456.208C101.233 453.721 107.201 416.17 95.5128 350.766Z" fill="white"/>
<path d="M68.9035 121.727C68.6548 120.235 66.1679 120.235 66.4166 121.727C77.6074 204.788 85.5654 278.15 92.0312 361.459C92.0312 362.951 94.518 362.951 94.518 361.459C88.0522 278.15 80.0943 204.788 68.9035 121.727Z" fill="white"/>
<path d="M92.7773 354.745C92.7773 353.253 90.2904 353.253 90.2904 354.745C91.0365 374.391 91.0365 401 69.1522 409.704C67.6601 410.202 68.4061 412.689 69.8983 412.191C93.0259 402.99 93.772 375.883 92.7773 354.745Z" fill="#333333"/>
<path d="M11.0947 287C11.5921 325.795 11.2085 393.54 11.2085 393.54H63.9297V221.201L11.0947 287Z" fill="#FCF2DC"/>
<path d="M11.2087 393.54C10.96 414.181 12.9495 458.198 27.3732 465.658C31.8495 467.896 30.6061 468.145 38.0667 468.891C45.5272 469.637 39.8074 438.303 43.0403 439.795C46.2732 441.536 47.0193 468.642 51.993 468.642C60.697 468.642 46.7706 434.821 54.4799 428.853C65.6707 420.149 56.4694 439.298 59.7023 446.51C62.6865 453.224 69.6497 442.282 68.9036 424.874C68.1575 407.466 64.676 403.238 63.9299 393.291C63.7784 391.321 63.9299 381.5 63.9299 381.5C55.5 381.5 22 381.5 11.2088 381.5C11.2086 386 11.2087 393.54 11.2087 393.54Z" fill="#B3C7F8"/>
<path d="M36.5743 466.653C34.0875 457.949 33.3414 448.996 34.8335 439.795C35.0822 438.303 32.5953 437.557 32.3467 439.049C30.8545 448.499 31.3519 457.949 34.0875 467.15C34.5848 468.891 36.823 468.145 36.5743 466.653Z" fill="#333333"/>
<path d="M29.114 464.166C26.3784 456.208 24.6376 448.002 24.3889 439.546C24.3889 438.054 21.9021 438.054 21.9021 439.546C22.1508 448.25 23.8916 456.706 26.6271 464.664C27.3732 466.404 29.6113 465.658 29.114 464.166Z" fill="#333333"/>
<path d="M66.1679 380.608C65.6705 380.111 65.4218 379.862 64.9245 379.365C63.9297 378.37 62.6863 379.365 62.935 380.359C45.2784 382.1 27.6217 381.852 10.2138 379.862C8.7217 379.613 8.7217 382.1 10.2138 382.349C28.6165 384.338 47.0192 384.587 65.4218 382.598C66.4166 382.846 66.914 381.603 66.1679 380.608Z" fill="#B3C7F8"/>
<path d="M57.9614 276.409C55.9719 279.145 53.9824 281.88 52.2416 284.616C51.2469 285.859 53.485 287.103 54.4798 285.859C56.4693 283.124 58.4588 280.388 60.1995 277.653C60.9456 276.409 58.9561 275.166 57.9614 276.409Z" fill="#FCF2DC"/>
<path d="M64.427 184.893V309.236C64.427 310.728 66.9139 310.728 66.9139 309.236V184.893C66.9139 183.401 64.427 183.401 64.427 184.893Z" fill="#333333"/>
<path fill-rule="evenodd" clip-rule="evenodd" d="M169.884 123.188C170.057 122.519 170.739 122.117 171.407 122.29C174.138 122.994 179.065 125.079 184.122 127.888C189.18 130.697 194.527 134.318 198.02 138.159C202.856 143.479 206.002 152.227 208.351 161.117C209.533 165.594 210.528 170.166 211.431 174.444C211.584 175.172 211.735 175.891 211.884 176.599C212.521 179.635 213.117 182.473 213.712 184.991L228.403 138.622C228.612 137.964 229.314 137.6 229.972 137.808C230.63 138.017 230.995 138.719 230.786 139.378L215.777 186.752C215.128 188.799 212.101 188.924 211.538 186.64C210.846 183.827 210.162 180.566 209.434 177.1C209.286 176.394 209.137 175.681 208.985 174.96C208.083 170.687 207.099 166.167 205.934 161.756C203.587 152.872 200.558 144.667 196.17 139.841C192.949 136.297 187.879 132.834 182.908 130.073C177.935 127.311 173.219 125.339 170.782 124.71C170.114 124.538 169.712 123.856 169.884 123.188ZM33.6946 133.306C34.0779 133.88 33.9232 134.656 33.3491 135.04C16.7081 146.151 7.54737 163.304 4.45494 199.383C1.35774 235.518 4.37539 290.328 11.8401 376.392C11.8998 377.08 11.3906 377.686 10.7028 377.745C10.0151 377.805 9.40915 377.296 9.3495 376.608C1.88845 290.587 -1.15478 235.558 1.96408 199.17C5.08771 162.726 14.42 144.672 31.9609 132.96C32.535 132.577 33.3112 132.732 33.6946 133.306ZM281.528 151.815C282.182 152.035 282.534 152.744 282.314 153.399C278.347 165.192 274.397 177.688 270.421 190.267C261.184 219.491 251.806 249.163 241.734 271.514C237.369 281.201 229.835 285.485 221.869 286.544C213.976 287.594 205.686 285.486 199.55 282.511C198.928 282.21 198.669 281.462 198.97 280.841C199.271 280.22 200.019 279.961 200.64 280.262C206.464 283.085 214.256 285.034 221.539 284.066C228.748 283.107 235.484 279.299 239.455 270.486C249.464 248.276 258.765 218.847 267.979 189.693C271.967 177.075 275.939 164.509 279.945 152.601C280.165 151.947 280.874 151.595 281.528 151.815Z" fill="#333333"/>
<path fill-rule="evenodd" clip-rule="evenodd" d="M142.437 121.829C143.084 122.07 143.412 122.79 143.171 123.437C142.16 126.149 139.246 133.426 135.627 140.974C133.271 145.89 129.88 149.149 125.972 150.521C122.047 151.899 117.78 151.31 113.842 148.873C110.354 146.714 106.855 142.497 103.659 137.876C100.438 133.217 97.4129 127.976 94.9157 123.622C94.5722 123.023 94.7792 122.259 95.378 121.916C95.9769 121.572 96.7408 121.779 97.0843 122.378C99.5871 126.741 102.562 131.894 105.716 136.454C108.895 141.053 112.146 144.883 115.158 146.747C118.54 148.841 122.023 149.258 125.143 148.162C128.28 147.061 131.229 144.366 133.373 139.894C136.954 132.422 139.84 125.215 140.829 122.563C141.07 121.916 141.79 121.588 142.437 121.829Z" fill="#333333"/>
</svg>
